<mxfile host="Electron" modified="2024-06-11T15:47:31.775Z" agent="Mozilla/5.0 (Windows NT 10.0; Win64; x64) AppleWebKit/537.36 (KHTML, like Gecko) draw.io/24.5.1 Chrome/124.0.6367.207 Electron/30.0.6 Safari/537.36" etag="js-XoX_9S_6GDLbkvhy-" version="24.5.1" type="device" pages="3">
  <diagram id="D8N-wq0irvBRP2gIR-Zz" name="利用技術">
    <mxGraphModel dx="2436" dy="1171" grid="1" gridSize="10" guides="1" tooltips="1" connect="1" arrows="1" fold="1" page="1" pageScale="1" pageWidth="827" pageHeight="1169" math="0" shadow="0">
      <root>
        <mxCell id="0" />
        <mxCell id="7oBIYt8I7hRJdarAHVjE-17" value="枠" parent="0" />
        <mxCell id="5_4wYqAJkxoxE9KYLucA-16" value="" style="rounded=0;whiteSpace=wrap;html=1;fillColor=none;" vertex="1" parent="7oBIYt8I7hRJdarAHVjE-17">
          <mxGeometry x="80" y="80" width="780" height="490" as="geometry" />
        </mxCell>
        <mxCell id="5_4wYqAJkxoxE9KYLucA-14" value="" style="image;aspect=fixed;html=1;points=[];align=center;fontSize=12;image=img/lib/azure2/other/Azure_A.svg;" vertex="1" parent="7oBIYt8I7hRJdarAHVjE-17">
          <mxGeometry x="100" y="100" width="68" height="64.12" as="geometry" />
        </mxCell>
        <mxCell id="5_4wYqAJkxoxE9KYLucA-21" value="" style="rounded=0;whiteSpace=wrap;html=1;fillColor=none;" vertex="1" parent="7oBIYt8I7hRJdarAHVjE-17">
          <mxGeometry x="209" y="320" width="410" height="200" as="geometry" />
        </mxCell>
        <mxCell id="Q91gIaGjUl61W1oqCAtO-1" value="" style="rounded=0;whiteSpace=wrap;html=1;fillColor=none;" vertex="1" parent="7oBIYt8I7hRJdarAHVjE-17">
          <mxGeometry x="619" y="590" width="240" height="110" as="geometry" />
        </mxCell>
        <mxCell id="1" parent="0" />
        <mxCell id="7oBIYt8I7hRJdarAHVjE-1" value="ユーザ" style="shape=umlActor;verticalLabelPosition=bottom;verticalAlign=top;html=1;outlineConnect=0;" parent="1" vertex="1">
          <mxGeometry x="-100" y="238" width="30" height="60" as="geometry" />
        </mxCell>
        <mxCell id="7oBIYt8I7hRJdarAHVjE-12" value="Backend" style="text;html=1;strokeColor=none;fillColor=none;align=center;verticalAlign=middle;whiteSpace=wrap;rounded=0;fontSize=21;" parent="1" vertex="1">
          <mxGeometry x="484.9" y="750" width="60" height="30" as="geometry" />
        </mxCell>
        <mxCell id="7oBIYt8I7hRJdarAHVjE-13" value="Frontend" style="text;html=1;strokeColor=none;fillColor=none;align=center;verticalAlign=middle;whiteSpace=wrap;rounded=0;fontSize=21;" parent="1" vertex="1">
          <mxGeometry x="268.25" y="750" width="60" height="30" as="geometry" />
        </mxCell>
        <mxCell id="7oBIYt8I7hRJdarAHVjE-36" value="DataPlatform" style="text;html=1;strokeColor=none;fillColor=none;align=center;verticalAlign=middle;whiteSpace=wrap;rounded=0;fontSize=21;" parent="1" vertex="1">
          <mxGeometry x="680" y="750" width="60" height="30" as="geometry" />
        </mxCell>
        <mxCell id="7oBIYt8I7hRJdarAHVjE-47" value="" style="shape=image;verticalLabelPosition=bottom;labelBackgroundColor=default;verticalAlign=top;aspect=fixed;imageAspect=0;image=data:image/png,iVBORw0KGgoAAAANSUhEUgAAAOEAAADhCAMAAAAJbSJIAAAAdVBMVEUxeMb///8qdcUYb8Mkc8RmlNCUstwTbcLo7vcgccRpltE/gMnU3/D2+v1Qh8ywxeXJ2e41e8eCqdpYkNCZuODu9Pq+0euivuI/f8nD1ex6pNdVjM50oNaStN7s8vnz9/zX4/Lf6fWiu+AAY7+NrdoAaMCqxOXug1fhAAAGwklEQVR4nO2dbZeqKhSAEegaqeVLWam92Jnp///EqzXTTI0oBiKy9vPpnLVG81kgyGYDyHkmKFdx4kVoikReEq/K4MUIPf0vzCKXUTz2o74NpsyNspBrmOZsunI/YJanjYbHGbHBrwaT2fGvYYrp2A+mEIrTV8MtGfuhFONunw3X7thPpByy/m1oXQnWfJXizTC0rwRr3PDb8DT2owzG6cuwsKkV/Q0t7oZ7G1/COyS8Gea2dPR/wUltGLKxn2NAWFgZZvYWYVWImYMCmwUrAuTb287UEB9dbe0q7tAryiw3zJDFfUUNTpA39jMMjIemGXQSx3Y/AAAAAAAAAAAAAAAAAAAAAAAAAAAAAAAAAAAAAAAAAAAAAAAAAAAAAAAAAAAAAAAAAAAAAJg8GFP2oPonxvbscIUxIy5ZLuL1dbVK03R1vW4v63i2pJ8uGWZvbqyU9p9iDC3jVfizt/NvgjK8FDuqfAvyaDFTyZL/S4zmB/91k/U/lGnmKS1LnHf9ZD9WnM03MdkdSsF7BOeDp04RL3UYYneZdl/7i9NuWoYsD7uvfCJQt7eeBkOKrr1vMylDUjQ3ndYYPjaMt9QQ0/1bt5mOIfXfu81kDD/fFJyMIVm9e5uJGLLi7dtMwxB7p7dvMw1D8l4zemMShlLf9JMwdAW+RU/H4yZoGlBNwbCjCINwW43rd1G085Z5UlzCcnKGrG24lC4oq8by90Egvgdtoiz9aZmUGm7mfJqfr+WK4+VRS/kN6SpqPG6LMne22ig3rAanfP41P+HHJ/+SRyVd8PxOC/7xBpihwldt2AZpfsb/BHbvp7whRbBsP2SEsnw/CUPG+yItOk9RwW4yd8w3RJx3+CxyGhWmB/MNd5ywoeAxMbpOsXjfkNcJBQrDhCqQMEyaL90YdrqBhCGns7Df0FlaU0tnHMMPs47cUv8eOnOzzmtS35aadsDmAP2h4yxMqqcDfNNUxAZV1CG+Sysu5lRUGcO2+aa9MccVy4yeWmOlp4KY4SjzHkbtwdKyYCY4yhh2Rkt9E8pRxpAfxvgpx9gdu+eQMUSfZaeic1pH41ZWKUPaXYgVQVrQER2lDOujX4UoYzpaZZUzxF5nAtQXmwMZyVHOsKNPfCI4aAvNPCFp+DjVXqwcx3gfZQ0R6ZPrNc9c7QEAaUPEes2Snj3dr6O8YfsU1F/Ww+TQclFgiFi/nChfb0BVhSEiWS/FINdZU5UYIuadezl2z92oQ40hwuTQK+8k1qeoyLAqxl2v7Ch9kRxlhgizvE9V1VZR1RnW856LHo6Jpu8blYb1/HUh7DjXNIOj1rBypDPRb5yrnnqq2vCWbLEVa1f19PzqDSsY/igFDFMtYeNBDOvlQYXA8F9LIQ5k+J00085aR3M6mGH9neN1OJY6uv0BDesOsuDPT9XkGqrpoIZ10kzr4FEw9UaKgQ07Rla8hX4qGdwQsYTfO56tMKwUuYalDbW0gnEraqDh21SHIfrk9v7q1pFy0WLIT0yxxRAx3phKQ4aYJkNehENDFq2EoSdexRhvdsNsw1w81MIOzT9jeFvqhgfRAR6vlh6lnl0MCUPiO3vBKUFWNv/MWcPwSc7QCWIm0BpyF0jtzf5qI7e8tjDvnhJ0eRlwB/PL8Mux/a8/LxxBZ2b2dyl5lMy5QPzKSil3iKijoVFj6Diba0KbJDFli5In6KSGRzHI89s1vxaR+1hxiG52rvfRFgMvDI9Ekb/txzy9ZIl3W02JvCRe8Yuv5qQl6K3W8JvGhb9/0BPWH8ZQDOOj+rKGez2TpCMaalo9NJ7hWtMk8GiG/gRmuaUMN0hX2tBIhpudtryocQxLjYlfoxjutVVRNI7hh9ZFUTLrnvruI3gn3enNMJVaFfTRPv/ZhJ/ozhKWiggzXPTbRinNBcI6iiOMsrn6jMZ7wRUJYdY4SH4hQoqjxPJRfUzoYh0eWzU3522BxaqnhxK11RgvGmnZSbfpJozg5SK+huf5i+im9NN1kUdEJOh4u1WCMsUj/zd2Q+bchzJCcbRbzoosy4piMcu9qN45ude+yDRG1/FX9LVTqd54b/9uekW+QcukB4D4KBj7GYYlCpATm15NZaCxg5xw7GWnQ1J9CSLHUdxfmES9mwjSFAsfh3ohXGXozGx9E2m95U1tOLfWcP5lqClBWjvubRruZuisbXwV3XtKyt3QRsUvwW9DZ2tbRX1sXf9tKJzoMQ0oegQLHobOKWvcBHWKYJL95BH/GDpOmBixAYwslCW/o3a/DSvHgrpU89polVRDSfd1dc2zYVVX/WuceIZtVShIVE/1+6957v8DbUxgOH7LQrMAAAAASUVORK5CYII=;" parent="1" vertex="1">
          <mxGeometry x="230" y="801.25" width="53.75" height="53.75" as="geometry" />
        </mxCell>
        <mxCell id="7oBIYt8I7hRJdarAHVjE-48" value="React" style="shape=image;verticalLabelPosition=bottom;labelBackgroundColor=default;verticalAlign=top;aspect=fixed;imageAspect=0;image=data:image/png,iVBORw0KGgoAAAANSUhEUgAAAPEAAADRCAMAAAAquaQNAAAAWlBMVEX///9h2vtR1/ta2ftp3Pvy/P/6/v/p+f7F8P3t+v77/v+97v194PzB7/3g9/7S8/617P2h5/yI4vzZ9f6s6v2S5Py27P2b5vyk6PzN8v5y3fuA4PyL4vyV5fy3bU5tAAAO0UlEQVR4nOVdaZuiMAwWCgKKoCIe6Pz/v7mCSpM2PTlmXN4P++zMYG3aNFeTsFoNRnGuo+CN+2FXDB8RINkd7p/Bo/o87uBeiK8sZCzowVgY1ulmnMHTOhQHZ9dsnLE9EdchmBCY2KMcPHb5QNT2g4d1PMLMPbGn6H3PK9ivB4y82QeasfejUeCGdR4q5vSe2NV3M+KrktwOYT5kNb2RBdpZdTQffGa2PujpbUcOfuE0Z6ZZvWg+OQ98MtLbjTw7ybHNtLrduDmNezNyzmfgueVXZDmx9tDZb0emFw2I4mhC6gj8IIJbJRy2/zBan9iyNin72WvgMBSUFfuZlEIBFdwKFubborM5snJ/p5QoaxKLQZOG+CQL7/uyY5JNsc3RioTVpDRiwEmFd0xOSVklFip0LzP009rAlkxyRw+NSpMWZ0BSuJP/voskosNcL2li6QSzsKGGBo+x80j0mAEJplmrykWaGdMZnqV4Fp5HRTEyJHkEWqyw5bMLlbqnkDYtvCpHvErPKuh94safZduBlNgi4l950DxWihqM5bRPtcnFByMdPxz40zNpqAJsiP7Js8DaLKBkdiIYHUZPAbDCPP7ypZ8gSw2PxkeBXYlTcBMfOZqsqZRPQMdj4wHsiPnhmyCSJGvkhAlmzMIqBY97UeAIztTMxk9dC9sc1ujPtfDXo423te9XcRa2Bl9nZ8xvhV3Mwd8EmRXaCd+YL/ocKvnIqKnrkGGhzaLPPq7FP9j6HP1CsaMHBa7gYsM++IJ59+PPCzEFgd914Hw2w0HO+sm7nCGRs1stlXhxdAdueIXTRwZKfoxdPlZgmf1crQLvO3OSQfwgDw+amsC9iMbpczH2BdkW/9i4hTSa/oPTi67exmP2x+6FI6YR/eAqgOp+FtPbIFxUOwftDqqQTug87dOMwprzk8nElHGmSQ7dOTP1PFs+4HrBQ2akFMmh+9IB+Tm9evJSTj1KmeTQR9pyQe+kMbwwUBMWku/vZRln81HMTVpLq1pEIlBsE+XUTmPqK6jBX7WOEMGR5yhDF94eQyneCKEgFnndrn8RxVIUnnmpl++h+CgS7GlD/A7FHl91kQl+knyZexpOWA/RTsRFSzeSe5YD0E4jZdmowb/KWa+gqCW6M3O7Y34i+RULxNV0QMZHiK4hBow1PcV8kxytQ5RVEG5xWMT1xp/b1dNfMHr7TlAvdVFrGKl21VFz+k7cP3aTN1Avva/3YaKBo47az+gfX/yiD2hD7+9f3sVttwaPxHioNkf4RR9KmoMRp7vIhQGRGGfsfE5QppBSWJo5KHguTYg8gpHBQ8UO0QfoPiBNhDSWw20wDyFPn/6Sedh3D0gwtjagVcIetgPGQyw/Z/Avs11eGNDT3qZaX0tUMxog0ASxPEKFfhsfKo7XgIf358iLODqqpw04qWRqIYoR2PkFXDlZH4QB4OrJ7jYVKl0yYxZm8faqWo98RuWEsjBsHkeHmFa5UFnbRevtM1HGQOEkJxN4iFUbcnI8ytkAl9UHXCE7JanoOBZyvlU6TU+xw7z9we0d8yGqISlFUVXlLd3ttk+c2392u/RWVlVRwIUx31leZ/ScWlxsRdc6w6kBrxxpCe1v4WPhNjMEDfMZ/YgWO5Poyqr0dDk2QWhV8SCjzSBv7pdTWikEBT9X01vVLQpl4Ceudtdj9Mql9yMWkP3KnY+O161IeDGz4IJL3FuFcbW95KqygaGUt1t+OVe9Gb+dWXABydpZPHF5OgZiEcPoaOkOjqeyJbu3Sy3tleEA6nNbBxPsq5psFgaPLf95DourBUhjn41YSHb/3/lqQ6yLkibGTMc4TutB0xS08aCxHrvJK9uSfeMuo15WRve5qGny+/HxqFs8Hsd73jTRu0TMQyA8P9fsJ9RQyUmu6rGZ1jYtiyRe61zfzTpOivK28xk+jE6TEB2fGxty3+oT/MbpGg1dxjW2Cr7d6bHZ+3Y31wS3Vf5NfUqLGPjQrpcG4Ori6fvGRXqqG2ZBNwvvzheUaiRXwze2+9rU7/rCFQw1Pv/mlkqwhq7yZ9+ycv8TmYyc5xyv43B3adjeJ7GXd6XmB2CjnK+GYQEXYo9NsTs0oaGQ/z48+ZgoQcSICmkTS9WkrQCXS5r/poioSQCao2Hu1Nlc8U3E6fV/NQEeCTkeEhutHzYg5fqsOjgM7LtcO3gFm+Sz4KD8lEmljiARnam4z5fmVLG/T2P+WoE4vRgIAbE862oZDFASJDnA4G+r6qpqGsIC96WuGpJ9nprvpe55uaTIuHC+fpdCmXrNQKVTdz+gNIrCxs3LiB8UvdC6qYiwQAcoa32duZNS1oNgwIciFdHhw0GGbIkhnuruAIM8PNiFtwF+xo9e3SDcmIMxtuJAGQzM+uJOLnCnTBqefod4F4otf++1Uggvzu9iFPMmFbUH5lL+z2fl5Xpur2TNALYGKTDwCA65BHvQwmAvMzX/6gMxcRsD6CJtMAtIYc8fABeG0HwYYtvHtBEDzA/qU1tZvYSmiPZaygYOI8VlFudfHsSF3DispdSeOh2gEFjRkyCNpJYTjdawFwvcA6aiF319v47AS9ReZSdlmqal1u4H29lftVyIRRaRSt0LdIUJYtkG0zZjAA0U3r8B1pI6Vyk5Ne/LmKcPclLOHBjnveXGadGt51Y8z+rlqTDBTNPOogUoib2JM1J6ECmOKzwtGhUTQU/59Rt+pWg4MmJDM5XWEHY4zA3eJlAVL5V8MlpblXTMWkFBzyeTTBluzZmkYiIoWHqXE/SQjfrOsUpe6zyADj+KjHK6CxNU7esVscI6CEYUdUG1RpNgjYVJDPIj2k0AJQGMiuLFyp5eLKL2bAPGu6AVsMmFEKp/A1liox4GlsWi4COYCyn+yDRBG0amxGzxKQGPW80OlcLKbHFCBFvmkxyg7HroJamhTR2ZUg60wQPKLcusX1QXKro16BBbF7gn4GRlBs1kaFNHZnpBDZUBqWEbwCvQNuJPQaZn9hFB4MrA/xJP1nqCFekfYFrwv9bzg80Z8LRQPqhDCDSl6KBUAVGFK32M4AypkrWboEMOFyQZeRXApHMrSyEoJo0PI70tiM8RNXBuNdZwzcDBgefFrcnXVZ4Rdcqs7pOoNJZE3mSVE6HAlpQvPIHM1anNpBmR51EfZP6AEl7y+XcNnnE24UkU0Bl1Lb+8izOiJlSZT3H3UeJASUvqnPsB7nV64xTYTs5OrSiSyJwygvcpkPz6I3zWPZYEPJ6PzOODktahHgLDkja+HVMrLJfQ/Iwe3Frt26j2E/JJ+sNCiTSH1nZMrShpxhW8Pll6fEc/yzWsLRD2UagtJrUqSTGlGfEm+7T/kJov+VS3AECLnGaSm90xDhTpy3CTvYL+UuUMCFh5DIf2gF6yrTXFpDFg/gITxETSgRQDp0kR6xlIMdSofjFwMSC4vD1e3jlenqweVR9TI/w9fbw8m+u77Grnk0fY1ZP7TpYHeT7fCfrHjvlXX+ofLzAGguJcTv7nn49zwWAE5CEYy3SpISL37k/FMiFhyL5ZXLwanxfrAK7qToIyFn3uJADr+d1JIKqETy3u3mmBd4tfcH98km0nDTLj/fHycgQG5YG8jJlvywOZJ9fn9pdyfRaYz0Xl7AUT5ezd0ttEOXsyCdrvWVxe5kqRe0spG3I7vy/3drXA/Orn+t5lFcLC/P/NoV+1Mlf+9B+pk+BfC36rqJNweY1bXFPW0X9cC7PS1DtF/2e9UwtNTduh/BM1beVBXdPm17draXWLLb6yNpUu3bHG0uqPu/n/nRrzyxw15i0ymz4C0bR9BGqrPgIjNkhdWK+IDv79QFwUBQo//mo/kA6durfNcADz+dKeL2+i9/mS+vq88Jd6N9Xp5L2bXrDN65gac7XZW2APtuX12ZN6KT7+916KRDCg7ZdprT4dSX31y9z+Yr/Mv9QTdZ43t5v73hb/Wd/b5fU2Xl7/as5TC+lRPnUfegsz2e/N4t5Y3rsGlvc+ieW9M4RPfynvheFSw9ZzgVr5C9/9s7z3O033Di/ykCuguTkfHct7T9sI7+Lje/kV7+Jb3vsWl/dOzeW9N5VPcinvxvV3W3AOP8r3/tPvP+ZftZB3XC/vPebLe1c9+CrXos4WRI2al35Zfw3FKymb2VUvvfBFFG+EghgWeZ3DL6J4tcbpSZHnKL9Csd9XJQJX+93wD154Bwz0xaVWXX4ObvYrFohPqJioynVvDLCa1+bioWKPmaaUCeKU/vQGt6v9OvO4wNt3Wo1pc83pOw2IPhxogu0KVjD8IjF+4NEH8x0gBra38A+u8679IjFeOHvyk9BdmeGGTqxx03X8bA1LpraB3BbICgVOk2AFbsMbMOv2wh2GNV9yg99NppAs0DVnSPAiuHQiqQZaBW7gesFexOJiIha8WDjGhzm0Fwz7GZUTFNa2lS4Z9h5Yb0uvxT/Ympz5jKIa1Q7aSRvM0XihcuxJWXI2qHqaXnChklgbtl4LVZAC7wrFc+HRxjEAiz5LQhfYFvPDYqWr9ja1XUW3dJo5jjHqe2IyNOOjYGYRUcub+MjRdFhAJsr09kcLGHfWP7kXkvboAnexlJ+Z7GywOvNkKcKWCbo1LqW38OR0hGeTiw8GOruC89gsOREtYPcZ5amrpHefaZptnKRnc2WgAJaAubVPGwB4Z0bPrJJKvpnWHizFXF2mohkGUeaRWy3OkGTikp4odgxzvdpZSyxBlyDuIMFzKOM3EC13LI7KWk4yZhapeKKY6z5WY8ZIsHIflSY9UHzuyYDvSs2s3N+p8gHW2JiPiRS974oF7u96yE2xxUdltrqQDj+Cq9dlTiuKBozapgexzZ+yARaKpRgz5Vb3MDSRg1uR2zt0GfFySwVccqFGgaGJHJ9Y4HY3fDNXtb8HnqmajSOzmRlzy+DpcLKqriCzeCdGZtwNFh58rkjWB3Otc/ALBFMqVKD36st4sdhSTIBJuU8HUra+yQ32Q9IVNntVqw8X2T8BYsLa6JTVY3iIsbVkSF1Xzy6zEOIrQxNrmwnUt5GyUdJaHtz7qIyI4lz3/uP9sBu35DvZHe6fwaP6PII//A/ZZr1g8AteZgAAAABJRU5ErkJggg==;" parent="1" vertex="1">
          <mxGeometry x="297" y="801.25" width="56.21" height="48.75" as="geometry" />
        </mxCell>
        <mxCell id="7oBIYt8I7hRJdarAHVjE-51" value="" style="shape=image;verticalLabelPosition=bottom;labelBackgroundColor=default;verticalAlign=top;aspect=fixed;imageAspect=0;image=data:image/png,iVBORw0KGgoAAAANSUhEUgAAAOEAAADhCAMAAAAJbSJIAAAAdVBMVEUxeMb///8qdcUYb8Mkc8RmlNCUstwTbcLo7vcgccRpltE/gMnU3/D2+v1Qh8ywxeXJ2e41e8eCqdpYkNCZuODu9Pq+0euivuI/f8nD1ex6pNdVjM50oNaStN7s8vnz9/zX4/Lf6fWiu+AAY7+NrdoAaMCqxOXug1fhAAAGwklEQVR4nO2dbZeqKhSAEegaqeVLWam92Jnp///EqzXTTI0oBiKy9vPpnLVG81kgyGYDyHkmKFdx4kVoikReEq/K4MUIPf0vzCKXUTz2o74NpsyNspBrmOZsunI/YJanjYbHGbHBrwaT2fGvYYrp2A+mEIrTV8MtGfuhFONunw3X7thPpByy/m1oXQnWfJXizTC0rwRr3PDb8DT2owzG6cuwsKkV/Q0t7oZ7G1/COyS8Gea2dPR/wUltGLKxn2NAWFgZZvYWYVWImYMCmwUrAuTb287UEB9dbe0q7tAryiw3zJDFfUUNTpA39jMMjIemGXQSx3Y/AAAAAAAAAAAAAAAAAAAAAAAAAAAAAAAAAAAAAAAAAAAAAAAAAAAAAAAAAAAAAAAAAAAAAJg8GFP2oPonxvbscIUxIy5ZLuL1dbVK03R1vW4v63i2pJ8uGWZvbqyU9p9iDC3jVfizt/NvgjK8FDuqfAvyaDFTyZL/S4zmB/91k/U/lGnmKS1LnHf9ZD9WnM03MdkdSsF7BOeDp04RL3UYYneZdl/7i9NuWoYsD7uvfCJQt7eeBkOKrr1vMylDUjQ3ndYYPjaMt9QQ0/1bt5mOIfXfu81kDD/fFJyMIVm9e5uJGLLi7dtMwxB7p7dvMw1D8l4zemMShlLf9JMwdAW+RU/H4yZoGlBNwbCjCINwW43rd1G085Z5UlzCcnKGrG24lC4oq8by90Egvgdtoiz9aZmUGm7mfJqfr+WK4+VRS/kN6SpqPG6LMne22ig3rAanfP41P+HHJ/+SRyVd8PxOC/7xBpihwldt2AZpfsb/BHbvp7whRbBsP2SEsnw/CUPG+yItOk9RwW4yd8w3RJx3+CxyGhWmB/MNd5ywoeAxMbpOsXjfkNcJBQrDhCqQMEyaL90YdrqBhCGns7Df0FlaU0tnHMMPs47cUv8eOnOzzmtS35aadsDmAP2h4yxMqqcDfNNUxAZV1CG+Sysu5lRUGcO2+aa9MccVy4yeWmOlp4KY4SjzHkbtwdKyYCY4yhh2Rkt9E8pRxpAfxvgpx9gdu+eQMUSfZaeic1pH41ZWKUPaXYgVQVrQER2lDOujX4UoYzpaZZUzxF5nAtQXmwMZyVHOsKNPfCI4aAvNPCFp+DjVXqwcx3gfZQ0R6ZPrNc9c7QEAaUPEes2Snj3dr6O8YfsU1F/Ww+TQclFgiFi/nChfb0BVhSEiWS/FINdZU5UYIuadezl2z92oQ40hwuTQK+8k1qeoyLAqxl2v7Ch9kRxlhgizvE9V1VZR1RnW856LHo6Jpu8blYb1/HUh7DjXNIOj1rBypDPRb5yrnnqq2vCWbLEVa1f19PzqDSsY/igFDFMtYeNBDOvlQYXA8F9LIQ5k+J00085aR3M6mGH9neN1OJY6uv0BDesOsuDPT9XkGqrpoIZ10kzr4FEw9UaKgQ07Rla8hX4qGdwQsYTfO56tMKwUuYalDbW0gnEraqDh21SHIfrk9v7q1pFy0WLIT0yxxRAx3phKQ4aYJkNehENDFq2EoSdexRhvdsNsw1w81MIOzT9jeFvqhgfRAR6vlh6lnl0MCUPiO3vBKUFWNv/MWcPwSc7QCWIm0BpyF0jtzf5qI7e8tjDvnhJ0eRlwB/PL8Mux/a8/LxxBZ2b2dyl5lMy5QPzKSil3iKijoVFj6Diba0KbJDFli5In6KSGRzHI89s1vxaR+1hxiG52rvfRFgMvDI9Ekb/txzy9ZIl3W02JvCRe8Yuv5qQl6K3W8JvGhb9/0BPWH8ZQDOOj+rKGez2TpCMaalo9NJ7hWtMk8GiG/gRmuaUMN0hX2tBIhpudtryocQxLjYlfoxjutVVRNI7hh9ZFUTLrnvruI3gn3enNMJVaFfTRPv/ZhJ/ozhKWiggzXPTbRinNBcI6iiOMsrn6jMZ7wRUJYdY4SH4hQoqjxPJRfUzoYh0eWzU3522BxaqnhxK11RgvGmnZSbfpJozg5SK+huf5i+im9NN1kUdEJOh4u1WCMsUj/zd2Q+bchzJCcbRbzoosy4piMcu9qN45ude+yDRG1/FX9LVTqd54b/9uekW+QcukB4D4KBj7GYYlCpATm15NZaCxg5xw7GWnQ1J9CSLHUdxfmES9mwjSFAsfh3ohXGXozGx9E2m95U1tOLfWcP5lqClBWjvubRruZuisbXwV3XtKyt3QRsUvwW9DZ2tbRX1sXf9tKJzoMQ0oegQLHobOKWvcBHWKYJL95BH/GDpOmBixAYwslCW/o3a/DSvHgrpU89polVRDSfd1dc2zYVVX/WuceIZtVShIVE/1+6957v8DbUxgOH7LQrMAAAAASUVORK5CYII=;" parent="1" vertex="1">
          <mxGeometry x="470" y="798.75" width="53.75" height="53.75" as="geometry" />
        </mxCell>
        <mxCell id="5_4wYqAJkxoxE9KYLucA-6" value="Storage Account Blob - zip / json / img" style="image;aspect=fixed;html=1;points=[];align=center;fontSize=12;image=img/lib/azure2/storage/Storage_Accounts.svg;" vertex="1" parent="1">
          <mxGeometry x="700" y="242" width="65" height="52" as="geometry" />
        </mxCell>
        <mxCell id="5_4wYqAJkxoxE9KYLucA-8" style="edgeStyle=orthogonalEdgeStyle;rounded=0;orthogonalLoop=1;jettySize=auto;html=1;" edge="1" parent="1" source="5_4wYqAJkxoxE9KYLucA-7" target="5_4wYqAJkxoxE9KYLucA-6">
          <mxGeometry relative="1" as="geometry" />
        </mxCell>
        <mxCell id="5_4wYqAJkxoxE9KYLucA-7" value="CDN" style="image;aspect=fixed;html=1;points=[];align=center;fontSize=12;image=img/lib/azure2/networking/Front_Doors.svg;" vertex="1" parent="1">
          <mxGeometry x="222.86999999999998" y="238" width="68" height="60" as="geometry" />
        </mxCell>
        <mxCell id="5_4wYqAJkxoxE9KYLucA-11" value="Satic Web Apps" style="image;aspect=fixed;html=1;points=[];align=center;fontSize=12;image=img/lib/azure2/preview/Static_Apps.svg;" vertex="1" parent="1">
          <mxGeometry x="230" y="324.5" width="68" height="54" as="geometry" />
        </mxCell>
        <mxCell id="5_4wYqAJkxoxE9KYLucA-22" value="HTML / JS" style="image;aspect=fixed;html=1;points=[];align=center;fontSize=12;image=img/lib/azure2/storage/Storage_Accounts.svg;" vertex="1" parent="1">
          <mxGeometry x="330" y="420" width="65" height="52" as="geometry" />
        </mxCell>
        <mxCell id="5_4wYqAJkxoxE9KYLucA-23" value="API" style="image;aspect=fixed;html=1;points=[];align=center;fontSize=12;image=img/lib/azure2/compute/Function_Apps.svg;" vertex="1" parent="1">
          <mxGeometry x="440" y="416" width="68" height="60" as="geometry" />
        </mxCell>
        <mxCell id="5_4wYqAJkxoxE9KYLucA-36" style="edgeStyle=orthogonalEdgeStyle;rounded=0;orthogonalLoop=1;jettySize=auto;html=1;entryX=0;entryY=0.5;entryDx=0;entryDy=0;" edge="1" parent="1" target="Q91gIaGjUl61W1oqCAtO-1">
          <mxGeometry relative="1" as="geometry">
            <mxPoint y="294" as="sourcePoint" />
            <mxPoint x="930" y="674.0000000000002" as="targetPoint" />
            <Array as="points">
              <mxPoint y="645" />
            </Array>
          </mxGeometry>
        </mxCell>
        <mxCell id="5_4wYqAJkxoxE9KYLucA-37" style="edgeStyle=orthogonalEdgeStyle;rounded=0;orthogonalLoop=1;jettySize=auto;html=1;" edge="1" parent="1" source="5_4wYqAJkxoxE9KYLucA-24" target="5_4wYqAJkxoxE9KYLucA-7">
          <mxGeometry relative="1" as="geometry" />
        </mxCell>
        <mxCell id="5_4wYqAJkxoxE9KYLucA-38" style="edgeStyle=orthogonalEdgeStyle;rounded=0;orthogonalLoop=1;jettySize=auto;html=1;entryX=0;entryY=0.25;entryDx=0;entryDy=0;" edge="1" parent="1" source="5_4wYqAJkxoxE9KYLucA-24" target="5_4wYqAJkxoxE9KYLucA-21">
          <mxGeometry relative="1" as="geometry" />
        </mxCell>
        <mxCell id="5_4wYqAJkxoxE9KYLucA-24" value="website" style="sketch=0;html=1;aspect=fixed;strokeColor=none;shadow=0;fillColor=#3B8DF1;verticalAlign=top;labelPosition=center;verticalLabelPosition=bottom;shape=mxgraph.gcp2.website" vertex="1" parent="1">
          <mxGeometry x="-20" y="242" width="53.61" height="52" as="geometry" />
        </mxCell>
        <mxCell id="5_4wYqAJkxoxE9KYLucA-25" value="Google Drive" style="dashed=0;outlineConnect=0;html=1;align=center;labelPosition=center;verticalLabelPosition=bottom;verticalAlign=top;shape=mxgraph.webicons.google_drive;gradientColor=#DFDEDE" vertex="1" parent="1">
          <mxGeometry x="715" y="599" width="50" height="50" as="geometry" />
        </mxCell>
        <mxCell id="5_4wYqAJkxoxE9KYLucA-26" value="GCP" style="shape=image;verticalLabelPosition=bottom;labelBackgroundColor=default;verticalAlign=top;aspect=fixed;imageAspect=0;image=data:image/png,iVBORw0KGgoAAAANSUhEUgAAADoAAAAxCAYAAACLfLrrAAAAAXNSR0IArs4c6QAAAARnQU1BAACxjwv8YQUAAAAJcEhZcwAADsMAAA7DAcdvqGQAAAXkSURBVGhD7Zh5bBRVHMe/szPTPdqFFmnowR1aAQuFFiJEiIpBAyEeeHIFjZIiYPmDEEkkVhI8QYLEEqMoEIlIApgY4kErFeQwEkSbKota2lJaaaEH3e52r5nnm/URju4cO7M1UvpJ2r7fr+3O+87vze9933CEgtsAG/vZ6+kT2tu4bYT2eDMiwSBCJ08g4qlC5OwZSM0XIbdcBkQBfNYQ8BmZ4AcPhf2e+yDkjmH/lXh6TKjc2oKuL/ag68B+EG8Hy2rDDxsBx4Nz4Jg5G7YBd7BsYki4UNLpRWfpuwgc+haQJJaNE84G19OL4Fq8BJyYxJLWSKhQqb4OV9YUQ2r6m2WswWdmw71qLcQJhSxjnoQJDR4/DO+bJSBdfpZJDB1iKn5d/iHmzhnOMuZISNcNlH+NjldX94jIdYXvobQyHUc8EZY1h+WKSudr0Va0ECQcYpnE0Cm4UTLpfTS4hkZjkQc2LXRibLa52lgSSoIBtC1dFH02DSGISMovgDAmD8Tvg1RTjUhdDe3QdLu5Dr+QjJLCLahPHsky/+J2cPjgeScy+nMsYxxLQjteX4tgxUEWqSOOnwjnE/ORVHg3OLuDZa8R/q0S3o3r6Q2rRYB3Yl3BZtS4c9lvb2RqDo/1T3b/DD1MC1Um177yBRap43x8HlKKVtJuoLPkIhH4d+/A6pop8AgjWDI2u5a5kJkaX1VNC/W+/RoCZV9Fx7aUMGypIfBpQXDuMF3S9IGSU2CftRT2Gcuif2OUH/+SULI3gIjMEjGYO1nE8pnx7a+mhBKvFy3PzII4qgnOaY3Uxag3Ii55NLis52DLXkI3RjfLalNWFcFbXwZZ1B2XncPeYhfsIksYwFQLky/sQ//iOiQ/XKspUoH4PJD/fBmRE+NAWstYVpuZeQIKhtNVoYI/SLD7RHxdPm6hcsNHII3UmgkXWcYgwQZIp2dD/mMVS2izaJp2uT49GsauY2EW6ROXUPnCVsie+J65m5Hrt0A+u4JF6owbysPt1G442w+HsLXcWGUNCyXtx+gEafdMAHLTXlphbT+sSMwbrD+9fT+FUfG7vmsyKJTQShaxsUXEgeAnHQHsmSyhTrrb2PS2fR+CrNNSDX2S3PAxbSpnWWSBqMjD4FyxzcDNpBj0BRfbCQ6c1n5e9bcXuQuRo9SKhW+0aTcgDgCfsxFInQ7OQb1p+BLk2ncgN26jZpgZ/aR08AWHotuNUZSJNV0h8DRIKC0LodWnPtVUF4c9L7kgqDRrXaGk/SikU/ezKAZCfwhTKulSzGKJa5DOSkgnp0b3T76wgoo0/6rEGyBYvj2AhjZ1J1H6rBOjs2IvUt2lSzqr2Cg2tpwNMUUqcCnjwY/dblmkgmLoX3nUzqLYnGtWvwn6z6hPQyitpo26Hi24QU9ZFnmVOzNtyNDwuNVWhBIvXZZqCP3Y4L9jRLr6lGssVZQT2CAGsuJHdfp6gmnxql+P0/AXukI590Q2ikGoGaTlGxb0PG2062otT2Vpq6EvtJ+GUIp8fgsb9Txv0BONpK4TuRlWhKY9QL+pnyRIazmkqgW0unGa/Di41EGw5vMAfq5Rf08sUCX5w9Tnaeg8Kp8popv/JyzqToBLxkrvvXS7zMf4gblIsmkfin30mDXA/xiL1FGqV3VBRlW9pFlJhUcKRRQ/pH5dQ0JJoA7ScWrbSPer+eBEUdsUVEvxdeB+1TvZyDo22oQ+W+Gi3li9G+kuXQXOMYzuh/NYdA2zIhPN7AmCpkgFQ0IV+NxN1Onksej/I1J5z1s0Q//9kWGhUeNe8F1UbBd9Jq2I5KKnTeuMG8Jj4wJn9B2SHsaFKkTFlmOH40VLlbRqMRRjMCtfwIb5Dtg1/Mz1mHoLqPBD4yls/mUnznsbWSY+zDQjReCMuwQsni4iOy2+GpkWqhCRJeyvPghP2zk0+prp1yU0+S/T0772XqAsXXf1Dhapo5wtFW+bQ43AqEE2TB7JIytOgVexJPRWwtztuQXpE9rb6BPa2+gT2tu4TYQC/wARXiXhMvyrqwAAAABJRU5ErkJggg==;" vertex="1" parent="1">
          <mxGeometry x="642" y="609" width="58" height="49" as="geometry" />
        </mxCell>
        <mxCell id="5_4wYqAJkxoxE9KYLucA-28" value="SQL Server" style="verticalLabelPosition=bottom;html=1;verticalAlign=top;align=center;strokeColor=none;fillColor=#00BEF2;shape=mxgraph.azure.sql_database_sql_azure;" vertex="1" parent="1">
          <mxGeometry x="700" y="421" width="47.5" height="50" as="geometry" />
        </mxCell>
        <mxCell id="5_4wYqAJkxoxE9KYLucA-29" style="edgeStyle=orthogonalEdgeStyle;rounded=0;orthogonalLoop=1;jettySize=auto;html=1;entryX=0;entryY=0.5;entryDx=0;entryDy=0;entryPerimeter=0;" edge="1" parent="1" source="5_4wYqAJkxoxE9KYLucA-23" target="5_4wYqAJkxoxE9KYLucA-28">
          <mxGeometry relative="1" as="geometry" />
        </mxCell>
        <mxCell id="5_4wYqAJkxoxE9KYLucA-30" value="" style="verticalLabelPosition=bottom;html=1;verticalAlign=top;align=center;strokeColor=none;fillColor=#00BEF2;shape=mxgraph.azure.sql_database;" vertex="1" parent="1">
          <mxGeometry x="670" y="805" width="37.5" height="50" as="geometry" />
        </mxCell>
        <mxCell id="5_4wYqAJkxoxE9KYLucA-32" value="Sread sheet" style="shape=image;verticalLabelPosition=bottom;labelBackgroundColor=default;verticalAlign=top;aspect=fixed;imageAspect=0;image=data:image/png,iVBORw0KGgoAAAANSUhEUgAAADAAAAAwCAYAAABXAvmHAAAAAXNSR0IArs4c6QAAAARnQU1BAACxjwv8YQUAAAAJcEhZcwAADsMAAA7DAcdvqGQAAAIgSURBVGhDY/z5++9/hiEMmKD0kAWjHhhoMOqBgQZD3gNkFaP/gbD++iKGWQ+2Mrz/9QUqShrQ+SrAcDZqGZRHPiArBhY92sPQeWsl2Y4HgStPbjAYLYuC8sgHZHng9PsbUBZl4OqjaxR7giwP/PtPvcob5Am9peFQHulgUGTim49vku2JQVMKkeuJQeMBECDHE4PKAyBAqicGzgMiPAwMYnxY8c2fzxkCthVDFeIHA+cBYaAH8GBpKQWoQvxg0CUhUsGoBwYakNWYy7owiWHuwx1QHgMDDwsnQ7FqMJRHHui9vZbhy5/vUB4DQ6qCJ8MU/VwoDzegigckOIQYnntT1rKU3BrJ8OLHeyiPgSFF3pNhqgGNPJB9YTLDnIfboTyg5RzCDM+8lzIcf3udofLKPKgoAqyzrAM3wYOPN0NFEKBdJ4nBUliTQXprNMOzH2+hosTHAFl5AOQYZADjv/n1keHgm8sY+Oe/32CMTe7tr09gvf+AEBkQ214cmZkYVxIChebljw+goghgJawFpo+9vQamkYEuvwKDMBvf4EhCIIc4iOphYDYmFjDGJgfSAwLkJqHRTAwCo5mYAjCaiUFgyGVi9KYELQCxTYkhnwdGPTDQYNQDAw3I8gATIyOURTvAzEic08jygDK3FJRFO6DGKwNl4QdkeSBVwYvBXFADyqM+sBPWBdcDxACyKrLBBEZmJh5MYNQDAw1GPTCwgIEBAAYFTlrBaGNdAAAAAElFTkSuQmCC;" vertex="1" parent="1">
          <mxGeometry x="790" y="601" width="48" height="48" as="geometry" />
        </mxCell>
        <mxCell id="5_4wYqAJkxoxE9KYLucA-39" value="SPAからスプレッドシートのデータ読み取り" style="shape=callout;whiteSpace=wrap;html=1;perimeter=calloutPerimeter;position2=0.33;direction=west;" vertex="1" parent="1">
          <mxGeometry x="460" y="649" width="140" height="80" as="geometry" />
        </mxCell>
        <mxCell id="5_4wYqAJkxoxE9KYLucA-17" value="コメント" parent="0" />
        <mxCell id="5_4wYqAJkxoxE9KYLucA-18" value="CORS用のヘッダを付与" style="shape=callout;whiteSpace=wrap;html=1;perimeter=calloutPerimeter;" vertex="1" parent="5_4wYqAJkxoxE9KYLucA-17">
          <mxGeometry x="230" y="160" width="120" height="80" as="geometry" />
        </mxCell>
        <mxCell id="5_4wYqAJkxoxE9KYLucA-19" value="Webに公開" style="shape=callout;whiteSpace=wrap;html=1;perimeter=calloutPerimeter;position2=0.33;" vertex="1" parent="5_4wYqAJkxoxE9KYLucA-17">
          <mxGeometry x="680" y="160" width="120" height="80" as="geometry" />
        </mxCell>
        <mxCell id="5_4wYqAJkxoxE9KYLucA-20" value="SPAを作成" style="shape=callout;whiteSpace=wrap;html=1;perimeter=calloutPerimeter;position2=0.33;direction=west;" vertex="1" parent="5_4wYqAJkxoxE9KYLucA-17">
          <mxGeometry x="160" y="410" width="120" height="80" as="geometry" />
        </mxCell>
      </root>
    </mxGraphModel>
  </diagram>
  <diagram name="ローカル環境利用技術" id="PtMgRmRW2fAvkyZ-Aqnl">
    <mxGraphModel dx="1126" dy="820" grid="1" gridSize="10" guides="1" tooltips="1" connect="1" arrows="1" fold="1" page="1" pageScale="1" pageWidth="827" pageHeight="1169" math="0" shadow="0">
      <root>
        <mxCell id="pornnzjDikWWZmQVH5Sh-0" />
        <mxCell id="pornnzjDikWWZmQVH5Sh-1" parent="pornnzjDikWWZmQVH5Sh-0" />
        <mxCell id="pornnzjDikWWZmQVH5Sh-2" style="edgeStyle=orthogonalEdgeStyle;rounded=0;orthogonalLoop=1;jettySize=auto;html=1;" parent="pornnzjDikWWZmQVH5Sh-1" edge="1">
          <mxGeometry relative="1" as="geometry">
            <mxPoint x="140" y="267" as="sourcePoint" />
            <mxPoint x="260" y="266.5" as="targetPoint" />
          </mxGeometry>
        </mxCell>
        <mxCell id="pornnzjDikWWZmQVH5Sh-4" value="開発者" style="shape=umlActor;verticalLabelPosition=bottom;verticalAlign=top;html=1;outlineConnect=0;" parent="pornnzjDikWWZmQVH5Sh-1" vertex="1">
          <mxGeometry x="80" y="240" width="30" height="60" as="geometry" />
        </mxCell>
        <mxCell id="pornnzjDikWWZmQVH5Sh-22" value="" style="shape=image;verticalLabelPosition=bottom;labelBackgroundColor=default;verticalAlign=top;aspect=fixed;imageAspect=0;image=data:image/png,iVBORw0KGgoAAAANSUhEUgAAAOEAAADhCAMAAAAJbSJIAAAAdVBMVEUxeMb///8qdcUYb8Mkc8RmlNCUstwTbcLo7vcgccRpltE/gMnU3/D2+v1Qh8ywxeXJ2e41e8eCqdpYkNCZuODu9Pq+0euivuI/f8nD1ex6pNdVjM50oNaStN7s8vnz9/zX4/Lf6fWiu+AAY7+NrdoAaMCqxOXug1fhAAAGwklEQVR4nO2dbZeqKhSAEegaqeVLWam92Jnp///EqzXTTI0oBiKy9vPpnLVG81kgyGYDyHkmKFdx4kVoikReEq/K4MUIPf0vzCKXUTz2o74NpsyNspBrmOZsunI/YJanjYbHGbHBrwaT2fGvYYrp2A+mEIrTV8MtGfuhFONunw3X7thPpByy/m1oXQnWfJXizTC0rwRr3PDb8DT2owzG6cuwsKkV/Q0t7oZ7G1/COyS8Gea2dPR/wUltGLKxn2NAWFgZZvYWYVWImYMCmwUrAuTb287UEB9dbe0q7tAryiw3zJDFfUUNTpA39jMMjIemGXQSx3Y/AAAAAAAAAAAAAAAAAAAAAAAAAAAAAAAAAAAAAAAAAAAAAAAAAAAAAAAAAAAAAAAAAAAAAJg8GFP2oPonxvbscIUxIy5ZLuL1dbVK03R1vW4v63i2pJ8uGWZvbqyU9p9iDC3jVfizt/NvgjK8FDuqfAvyaDFTyZL/S4zmB/91k/U/lGnmKS1LnHf9ZD9WnM03MdkdSsF7BOeDp04RL3UYYneZdl/7i9NuWoYsD7uvfCJQt7eeBkOKrr1vMylDUjQ3ndYYPjaMt9QQ0/1bt5mOIfXfu81kDD/fFJyMIVm9e5uJGLLi7dtMwxB7p7dvMw1D8l4zemMShlLf9JMwdAW+RU/H4yZoGlBNwbCjCINwW43rd1G085Z5UlzCcnKGrG24lC4oq8by90Egvgdtoiz9aZmUGm7mfJqfr+WK4+VRS/kN6SpqPG6LMne22ig3rAanfP41P+HHJ/+SRyVd8PxOC/7xBpihwldt2AZpfsb/BHbvp7whRbBsP2SEsnw/CUPG+yItOk9RwW4yd8w3RJx3+CxyGhWmB/MNd5ywoeAxMbpOsXjfkNcJBQrDhCqQMEyaL90YdrqBhCGns7Df0FlaU0tnHMMPs47cUv8eOnOzzmtS35aadsDmAP2h4yxMqqcDfNNUxAZV1CG+Sysu5lRUGcO2+aa9MccVy4yeWmOlp4KY4SjzHkbtwdKyYCY4yhh2Rkt9E8pRxpAfxvgpx9gdu+eQMUSfZaeic1pH41ZWKUPaXYgVQVrQER2lDOujX4UoYzpaZZUzxF5nAtQXmwMZyVHOsKNPfCI4aAvNPCFp+DjVXqwcx3gfZQ0R6ZPrNc9c7QEAaUPEes2Snj3dr6O8YfsU1F/Ww+TQclFgiFi/nChfb0BVhSEiWS/FINdZU5UYIuadezl2z92oQ40hwuTQK+8k1qeoyLAqxl2v7Ch9kRxlhgizvE9V1VZR1RnW856LHo6Jpu8blYb1/HUh7DjXNIOj1rBypDPRb5yrnnqq2vCWbLEVa1f19PzqDSsY/igFDFMtYeNBDOvlQYXA8F9LIQ5k+J00085aR3M6mGH9neN1OJY6uv0BDesOsuDPT9XkGqrpoIZ10kzr4FEw9UaKgQ07Rla8hX4qGdwQsYTfO56tMKwUuYalDbW0gnEraqDh21SHIfrk9v7q1pFy0WLIT0yxxRAx3phKQ4aYJkNehENDFq2EoSdexRhvdsNsw1w81MIOzT9jeFvqhgfRAR6vlh6lnl0MCUPiO3vBKUFWNv/MWcPwSc7QCWIm0BpyF0jtzf5qI7e8tjDvnhJ0eRlwB/PL8Mux/a8/LxxBZ2b2dyl5lMy5QPzKSil3iKijoVFj6Diba0KbJDFli5In6KSGRzHI89s1vxaR+1hxiG52rvfRFgMvDI9Ekb/txzy9ZIl3W02JvCRe8Yuv5qQl6K3W8JvGhb9/0BPWH8ZQDOOj+rKGez2TpCMaalo9NJ7hWtMk8GiG/gRmuaUMN0hX2tBIhpudtryocQxLjYlfoxjutVVRNI7hh9ZFUTLrnvruI3gn3enNMJVaFfTRPv/ZhJ/ozhKWiggzXPTbRinNBcI6iiOMsrn6jMZ7wRUJYdY4SH4hQoqjxPJRfUzoYh0eWzU3522BxaqnhxK11RgvGmnZSbfpJozg5SK+huf5i+im9NN1kUdEJOh4u1WCMsUj/zd2Q+bchzJCcbRbzoosy4piMcu9qN45ude+yDRG1/FX9LVTqd54b/9uekW+QcukB4D4KBj7GYYlCpATm15NZaCxg5xw7GWnQ1J9CSLHUdxfmES9mwjSFAsfh3ohXGXozGx9E2m95U1tOLfWcP5lqClBWjvubRruZuisbXwV3XtKyt3QRsUvwW9DZ2tbRX1sXf9tKJzoMQ0oegQLHobOKWvcBHWKYJL95BH/GDpOmBixAYwslCW/o3a/DSvHgrpU89polVRDSfd1dc2zYVVX/WuceIZtVShIVE/1+6957v8DbUxgOH7LQrMAAAAASUVORK5CYII=;" parent="pornnzjDikWWZmQVH5Sh-1" vertex="1">
          <mxGeometry x="230" y="319.63" width="53.75" height="53.75" as="geometry" />
        </mxCell>
        <mxCell id="pornnzjDikWWZmQVH5Sh-23" value="React" style="shape=image;verticalLabelPosition=bottom;labelBackgroundColor=default;verticalAlign=top;aspect=fixed;imageAspect=0;image=data:image/png,iVBORw0KGgoAAAANSUhEUgAAAPEAAADRCAMAAAAquaQNAAAAWlBMVEX///9h2vtR1/ta2ftp3Pvy/P/6/v/p+f7F8P3t+v77/v+97v194PzB7/3g9/7S8/617P2h5/yI4vzZ9f6s6v2S5Py27P2b5vyk6PzN8v5y3fuA4PyL4vyV5fy3bU5tAAAO0UlEQVR4nOVdaZuiMAwWCgKKoCIe6Pz/v7mCSpM2PTlmXN4P++zMYG3aNFeTsFoNRnGuo+CN+2FXDB8RINkd7p/Bo/o87uBeiK8sZCzowVgY1ulmnMHTOhQHZ9dsnLE9EdchmBCY2KMcPHb5QNT2g4d1PMLMPbGn6H3PK9ivB4y82QeasfejUeCGdR4q5vSe2NV3M+KrktwOYT5kNb2RBdpZdTQffGa2PujpbUcOfuE0Z6ZZvWg+OQ98MtLbjTw7ybHNtLrduDmNezNyzmfgueVXZDmx9tDZb0emFw2I4mhC6gj8IIJbJRy2/zBan9iyNin72WvgMBSUFfuZlEIBFdwKFubborM5snJ/p5QoaxKLQZOG+CQL7/uyY5JNsc3RioTVpDRiwEmFd0xOSVklFip0LzP009rAlkxyRw+NSpMWZ0BSuJP/voskosNcL2li6QSzsKGGBo+x80j0mAEJplmrykWaGdMZnqV4Fp5HRTEyJHkEWqyw5bMLlbqnkDYtvCpHvErPKuh94safZduBlNgi4l950DxWihqM5bRPtcnFByMdPxz40zNpqAJsiP7Js8DaLKBkdiIYHUZPAbDCPP7ypZ8gSw2PxkeBXYlTcBMfOZqsqZRPQMdj4wHsiPnhmyCSJGvkhAlmzMIqBY97UeAIztTMxk9dC9sc1ujPtfDXo423te9XcRa2Bl9nZ8xvhV3Mwd8EmRXaCd+YL/ocKvnIqKnrkGGhzaLPPq7FP9j6HP1CsaMHBa7gYsM++IJ59+PPCzEFgd914Hw2w0HO+sm7nCGRs1stlXhxdAdueIXTRwZKfoxdPlZgmf1crQLvO3OSQfwgDw+amsC9iMbpczH2BdkW/9i4hTSa/oPTi67exmP2x+6FI6YR/eAqgOp+FtPbIFxUOwftDqqQTug87dOMwprzk8nElHGmSQ7dOTP1PFs+4HrBQ2akFMmh+9IB+Tm9evJSTj1KmeTQR9pyQe+kMbwwUBMWku/vZRln81HMTVpLq1pEIlBsE+XUTmPqK6jBX7WOEMGR5yhDF94eQyneCKEgFnndrn8RxVIUnnmpl++h+CgS7GlD/A7FHl91kQl+knyZexpOWA/RTsRFSzeSe5YD0E4jZdmowb/KWa+gqCW6M3O7Y34i+RULxNV0QMZHiK4hBow1PcV8kxytQ5RVEG5xWMT1xp/b1dNfMHr7TlAvdVFrGKl21VFz+k7cP3aTN1Avva/3YaKBo47az+gfX/yiD2hD7+9f3sVttwaPxHioNkf4RR9KmoMRp7vIhQGRGGfsfE5QppBSWJo5KHguTYg8gpHBQ8UO0QfoPiBNhDSWw20wDyFPn/6Sedh3D0gwtjagVcIetgPGQyw/Z/Avs11eGNDT3qZaX0tUMxog0ASxPEKFfhsfKo7XgIf358iLODqqpw04qWRqIYoR2PkFXDlZH4QB4OrJ7jYVKl0yYxZm8faqWo98RuWEsjBsHkeHmFa5UFnbRevtM1HGQOEkJxN4iFUbcnI8ytkAl9UHXCE7JanoOBZyvlU6TU+xw7z9we0d8yGqISlFUVXlLd3ttk+c2392u/RWVlVRwIUx31leZ/ScWlxsRdc6w6kBrxxpCe1v4WPhNjMEDfMZ/YgWO5Poyqr0dDk2QWhV8SCjzSBv7pdTWikEBT9X01vVLQpl4Ceudtdj9Mql9yMWkP3KnY+O161IeDGz4IJL3FuFcbW95KqygaGUt1t+OVe9Gb+dWXABydpZPHF5OgZiEcPoaOkOjqeyJbu3Sy3tleEA6nNbBxPsq5psFgaPLf95DourBUhjn41YSHb/3/lqQ6yLkibGTMc4TutB0xS08aCxHrvJK9uSfeMuo15WRve5qGny+/HxqFs8Hsd73jTRu0TMQyA8P9fsJ9RQyUmu6rGZ1jYtiyRe61zfzTpOivK28xk+jE6TEB2fGxty3+oT/MbpGg1dxjW2Cr7d6bHZ+3Y31wS3Vf5NfUqLGPjQrpcG4Ori6fvGRXqqG2ZBNwvvzheUaiRXwze2+9rU7/rCFQw1Pv/mlkqwhq7yZ9+ycv8TmYyc5xyv43B3adjeJ7GXd6XmB2CjnK+GYQEXYo9NsTs0oaGQ/z48+ZgoQcSICmkTS9WkrQCXS5r/poioSQCao2Hu1Nlc8U3E6fV/NQEeCTkeEhutHzYg5fqsOjgM7LtcO3gFm+Sz4KD8lEmljiARnam4z5fmVLG/T2P+WoE4vRgIAbE862oZDFASJDnA4G+r6qpqGsIC96WuGpJ9nprvpe55uaTIuHC+fpdCmXrNQKVTdz+gNIrCxs3LiB8UvdC6qYiwQAcoa32duZNS1oNgwIciFdHhw0GGbIkhnuruAIM8PNiFtwF+xo9e3SDcmIMxtuJAGQzM+uJOLnCnTBqefod4F4otf++1Uggvzu9iFPMmFbUH5lL+z2fl5Xpur2TNALYGKTDwCA65BHvQwmAvMzX/6gMxcRsD6CJtMAtIYc8fABeG0HwYYtvHtBEDzA/qU1tZvYSmiPZaygYOI8VlFudfHsSF3DispdSeOh2gEFjRkyCNpJYTjdawFwvcA6aiF319v47AS9ReZSdlmqal1u4H29lftVyIRRaRSt0LdIUJYtkG0zZjAA0U3r8B1pI6Vyk5Ne/LmKcPclLOHBjnveXGadGt51Y8z+rlqTDBTNPOogUoib2JM1J6ECmOKzwtGhUTQU/59Rt+pWg4MmJDM5XWEHY4zA3eJlAVL5V8MlpblXTMWkFBzyeTTBluzZmkYiIoWHqXE/SQjfrOsUpe6zyADj+KjHK6CxNU7esVscI6CEYUdUG1RpNgjYVJDPIj2k0AJQGMiuLFyp5eLKL2bAPGu6AVsMmFEKp/A1liox4GlsWi4COYCyn+yDRBG0amxGzxKQGPW80OlcLKbHFCBFvmkxyg7HroJamhTR2ZUg60wQPKLcusX1QXKro16BBbF7gn4GRlBs1kaFNHZnpBDZUBqWEbwCvQNuJPQaZn9hFB4MrA/xJP1nqCFekfYFrwv9bzg80Z8LRQPqhDCDSl6KBUAVGFK32M4AypkrWboEMOFyQZeRXApHMrSyEoJo0PI70tiM8RNXBuNdZwzcDBgefFrcnXVZ4Rdcqs7pOoNJZE3mSVE6HAlpQvPIHM1anNpBmR51EfZP6AEl7y+XcNnnE24UkU0Bl1Lb+8izOiJlSZT3H3UeJASUvqnPsB7nV64xTYTs5OrSiSyJwygvcpkPz6I3zWPZYEPJ6PzOODktahHgLDkja+HVMrLJfQ/Iwe3Frt26j2E/JJ+sNCiTSH1nZMrShpxhW8Pll6fEc/yzWsLRD2UagtJrUqSTGlGfEm+7T/kJov+VS3AECLnGaSm90xDhTpy3CTvYL+UuUMCFh5DIf2gF6yrTXFpDFg/gITxETSgRQDp0kR6xlIMdSofjFwMSC4vD1e3jlenqweVR9TI/w9fbw8m+u77Grnk0fY1ZP7TpYHeT7fCfrHjvlXX+ofLzAGguJcTv7nn49zwWAE5CEYy3SpISL37k/FMiFhyL5ZXLwanxfrAK7qToIyFn3uJADr+d1JIKqETy3u3mmBd4tfcH98km0nDTLj/fHycgQG5YG8jJlvywOZJ9fn9pdyfRaYz0Xl7AUT5ezd0ttEOXsyCdrvWVxe5kqRe0spG3I7vy/3drXA/Orn+t5lFcLC/P/NoV+1Mlf+9B+pk+BfC36rqJNweY1bXFPW0X9cC7PS1DtF/2e9UwtNTduh/BM1beVBXdPm17draXWLLb6yNpUu3bHG0uqPu/n/nRrzyxw15i0ymz4C0bR9BGqrPgIjNkhdWK+IDv79QFwUBQo//mo/kA6durfNcADz+dKeL2+i9/mS+vq88Jd6N9Xp5L2bXrDN65gac7XZW2APtuX12ZN6KT7+916KRDCg7ZdprT4dSX31y9z+Yr/Mv9QTdZ43t5v73hb/Wd/b5fU2Xl7/as5TC+lRPnUfegsz2e/N4t5Y3rsGlvc+ieW9M4RPfynvheFSw9ZzgVr5C9/9s7z3O033Di/ykCuguTkfHct7T9sI7+Lje/kV7+Jb3vsWl/dOzeW9N5VPcinvxvV3W3AOP8r3/tPvP+ZftZB3XC/vPebLe1c9+CrXos4WRI2al35Zfw3FKymb2VUvvfBFFG+EghgWeZ3DL6J4tcbpSZHnKL9Csd9XJQJX+93wD154Bwz0xaVWXX4ObvYrFohPqJioynVvDLCa1+bioWKPmaaUCeKU/vQGt6v9OvO4wNt3Wo1pc83pOw2IPhxogu0KVjD8IjF+4NEH8x0gBra38A+u8679IjFeOHvyk9BdmeGGTqxx03X8bA1LpraB3BbICgVOk2AFbsMbMOv2wh2GNV9yg99NppAs0DVnSPAiuHQiqQZaBW7gesFexOJiIha8WDjGhzm0Fwz7GZUTFNa2lS4Z9h5Yb0uvxT/Ympz5jKIa1Q7aSRvM0XihcuxJWXI2qHqaXnChklgbtl4LVZAC7wrFc+HRxjEAiz5LQhfYFvPDYqWr9ja1XUW3dJo5jjHqe2IyNOOjYGYRUcub+MjRdFhAJsr09kcLGHfWP7kXkvboAnexlJ+Z7GywOvNkKcKWCbo1LqW38OR0hGeTiw8GOruC89gsOREtYPcZ5amrpHefaZptnKRnc2WgAJaAubVPGwB4Z0bPrJJKvpnWHizFXF2mohkGUeaRWy3OkGTikp4odgxzvdpZSyxBlyDuIMFzKOM3EC13LI7KWk4yZhapeKKY6z5WY8ZIsHIflSY9UHzuyYDvSs2s3N+p8gHW2JiPiRS974oF7u96yE2xxUdltrqQDj+Cq9dlTiuKBozapgexzZ+yARaKpRgz5Vb3MDSRg1uR2zt0GfFySwVccqFGgaGJHJ9Y4HY3fDNXtb8HnqmajSOzmRlzy+DpcLKqriCzeCdGZtwNFh58rkjWB3Otc/ALBFMqVKD36st4sdhSTIBJuU8HUra+yQ32Q9IVNntVqw8X2T8BYsLa6JTVY3iIsbVkSF1Xzy6zEOIrQxNrmwnUt5GyUdJaHtz7qIyI4lz3/uP9sBu35DvZHe6fwaP6PII//A/ZZr1g8AteZgAAAABJRU5ErkJggg==;" parent="pornnzjDikWWZmQVH5Sh-1" vertex="1">
          <mxGeometry x="297" y="319.63" width="56.21" height="48.75" as="geometry" />
        </mxCell>
        <mxCell id="szmZYFNQuVA8cMRqwnFK-2" value="" style="swimlane;startSize=0;" parent="pornnzjDikWWZmQVH5Sh-1" vertex="1">
          <mxGeometry x="980" y="270" width="260" height="260" as="geometry" />
        </mxCell>
        <mxCell id="szmZYFNQuVA8cMRqwnFK-3" value="" style="image;sketch=0;aspect=fixed;html=1;points=[];align=center;fontSize=12;image=img/lib/mscae/Docker.svg;" parent="szmZYFNQuVA8cMRqwnFK-2" vertex="1">
          <mxGeometry x="12.999999999999943" y="10" width="50" height="41" as="geometry" />
        </mxCell>
        <mxCell id="szmZYFNQuVA8cMRqwnFK-5" value="O/Rマッパー&#xa;マイグレーション" style="shape=image;verticalLabelPosition=bottom;labelBackgroundColor=default;verticalAlign=top;aspect=fixed;imageAspect=0;image=data:image/png,iVBORw0KGgoAAAANSUhEUgAAAHQAAAA0CAYAAABbwhxLAAAAAXNSR0IArs4c6QAAAARnQU1BAACxjwv8YQUAAAAJcEhZcwAADsMAAA7DAcdvqGQAAAh5SURBVHhe7ZoLdE1nFsf/iUQEIaRKjBoNiYg3I0ilMV71ZloiZk21GExmEYmFphHEo+JRxahQIUhihInKmpiKliZSjXhTSj3bofF+xDPTaNM5e5/v3Nzce3Nzkzk3xlnnt9ZZ397fiXvc8z/ftx/nOvwqAR3N4ChGHY2gC6oxdEE1hi6oxtAF1Ri6oBpDF1Rj6IJqDF1QjaELqjF0QTWGLqjG0AXVGJUu6M1bd5CSmo78/IdiRkdNKvX12aNHTzB4xDjcvXcfvj5NsS3xY3FGRy0qdYUuj0tgMYnvzl9CTu5RtnXUo9IE/fbsBaSm7RKeTELSP4SloxaVImhRURFmzf8Iprv7oaMnceHSD8LTUYNKEXSLlAQZC9fKzwetWzZne23CFh511MHugt6+cw8rV2+SHcGwof0QOSWU7d17s3E17zrbz5tjJ07j9JnzwnsxsXuWO21GLItmzLbEVVKW64WRo8M4tga/OQDR0yeKs7azPnEbCgsLhSfj7OQkrX5fdO7UTszYxicJf8eqtUlsxy2bh25df8f2i4ZdBc05eAx/mTxDeMV8kysnR5/tzkTk7MVs78tIQR332mzbSkDPt/D4yVPhlcSn2atYH7cItWu5iRnrxG9Mwco18k7y8dI5eP01f7ZfNOy65c5fvFJYxVD8VOj/xu/xkkcdtpNT0nhUi/MXv8eEMPOHqTTGvRuC2DnTEb8y9oUVk7CboHHxSfgx74bwivHz9RaWzMjhg3ncun0nCgr+w3Z5oVVIq54Oala4u9fi+TPfXcC5C5fZpvHwsW9w6/Zd9qlTlfHFPsODdO36TbxczwOOVRzNulgU4/8l7Sa0xad/theXLv9bnJGh69BnU75AUCxevS6ZDzqnQI2VDVKptm7TVny574CYNefsuYtI37WX/+7Tf+7mmt1W7LLlXrmah4HD/yy8ksyZEYE/DOojPOB+/gME9Q1he3r4BPwpZCjbthDQaxgeP34C99q1kL17q5gFPlwRj8Qtn7L9waypGNS/J8ZNeh8HD5/gz2/m9VvELFjB50n87IytQoDNPLd80Sz0COrK9vSZC1l4U9q19kP8qli4VK2KkHfDWLiQYYNQ1dnZcG2Ffn2644/SgxsROQ937sqNFcKrySvYsGaJIdTcvnMXEyZH46KFUq5n9wAsWzhTeKVjlxU6d5H5Vqvg59tMWDL0ZYYOlAU2vREVpejXImEBVV2chSWTmZ2L2KWrhQd41JW3fEvQqjQWs00rXzT0rM+2q2s1FtMY6lHTd6DvRKtdYdfnWXh73BQWk2K7wuUfrmL9pm3CA+q95GGo1enz6aFRQtLerBze9cpCdUHpBhw6clJ4JaEb0NzbS3jFKKvyxs3b2JnxJdsV5evcI0jb+YXwgLatWghLJu/aDfz0UyEGSPH7ww+isGD2VHHGnHNGW11MVDiS1y1Dxo6N2LR2KSImjhFnStLVvwMneHvSk9G2dfG1a1R3xc7U9UhNjsPieZFiFjhy/JSwZGa/H4bE+KU4mLmDx6T4j8QZWdSyUFXQJ08LsGjZJ8Izx8e7+Ok0hp7aDu1asV2RdmD+g4do06UfH6HhM3kbJqgcalC/HtvGTJk4lhOgPj0D0aJ5yR3DmEa/8RSWJOiC5ZyRUzxr38aPXy5YYvzokcICBvbtISygh7RlNm7UkO2+vYN4BRIUu42hVUkHha2jx0/j2o1b8GzwMp+78uM1Hq2hqqAr4jYYmu+WME2IjFFWKcWP/QeOsF1RqlVz4ebFtPDxYqYkdENtgR6IgC4dhSeXWcGjJiL8vbmlvv7zbtZEWHKypuBZXxZFwa1mDR5//uUXHolL31/hB5IeTMpBRodOw9i/vofrkqgE7SxloZqglBRQDLGGNUF7dX/NsJoSpGyyPNSsUZ1rTjq2bPgbDmWlYVZkmFmMU6jm4iKsslmzfD5vt5TAKFCGGhoRLbyS1HKrKaySKCvSGqHh0RwyCErK6Lr0nZS4bQuqCWptq1Vo2aJ0QYmRUpZIUFw5feYc27bg5OSETh3a8FHWNSrCm4PfQFrKWmyUMtKGYvujDhcdakGrk3IIgsIPZdp0XfpO9HLDVlQT9OJl629NaLUYZ3iWeEvaJl1c5FWVkJTK4/OEYhjVhAo+UkJn3FJ0dnYS1v/Os2c/C0sSxcFBWMC+/QcNQtuCaoKOeTtYWJZp7mOe3ZpC29WQAb3Z3pO5nxOD58merK8x4p1JCOwTjDGhUhI1ZBR2pH/O56gsKesBLQ+NX/FEdVdXtmmH6tZ7OF9z0tQYuLnJ8dYWVBN07KhgNH21sfDMsRY/jRncv5ewgI2btwurFETNZktvpKy/MT6v2B513Xl88PAR32Qle/bv2Jb7veXB9Pqm/x0SMyZqsvCAh48e8zWpWbFkfpSYLRtVO0XHT36LdyZYruvmRkcYGgiWoPZaZvYBLsKNY5PSyLcEXY+yRIqhVEpYg1p/dJMIikumUPmQJ0oIb68mhvYhbXfK67267rW5lFHCggIlhFSyEcaffe9+PsdGolHDBobygzh56iwKnz2DU5UqaN+2pZiVSxP6IR1h/G+otejo4IiO7eXyrjRUb/1RvUb9R1O2b14N76bFKT1BgmR+lYuvcg6b9UcJWgnrVi0Uno4tqC4orYKBw8ZysW8MrbSnBQX8w7A9WTmSiIe4WW2JgM4dEBjQCUOkFU0liY7t2KU5T+27qJglwpOh7seJU2eEV5K6ddzRPbALv7bq6t/epppNxzJ2EZSgDgft+5ZwkNJyqhcDA/wR1M3f5oRJp2zsJig1wYeMGM+Bn6DmNDWuX5cEDOrWudy/TtCxDbsJSlAbi350Ra+dSEwd+2NXQXUqH9UaCzr/H+iCagxdUI2hC6oxdEE1hi6oxtAF1Ri6oBpDF1RTAP8F5Qg6BQ+wH30AAAAASUVORK5CYII=;" parent="szmZYFNQuVA8cMRqwnFK-2" vertex="1">
          <mxGeometry x="133" y="10" width="89.23" height="40" as="geometry" />
        </mxCell>
        <mxCell id="kHaNmRyBjZCl41e9CP9e-0" value="" style="verticalLabelPosition=bottom;html=1;verticalAlign=top;align=center;strokeColor=none;fillColor=#00BEF2;shape=mxgraph.azure.sql_database;" vertex="1" parent="szmZYFNQuVA8cMRqwnFK-2">
          <mxGeometry x="50" y="70" width="37.5" height="50" as="geometry" />
        </mxCell>
        <mxCell id="xhccxDok1Qx8kJmdNA6C-3" style="edgeStyle=orthogonalEdgeStyle;rounded=0;orthogonalLoop=1;jettySize=auto;html=1;" edge="1" parent="pornnzjDikWWZmQVH5Sh-1" source="szmZYFNQuVA8cMRqwnFK-7" target="xhccxDok1Qx8kJmdNA6C-0">
          <mxGeometry relative="1" as="geometry" />
        </mxCell>
        <mxCell id="szmZYFNQuVA8cMRqwnFK-7" value="" style="shape=image;verticalLabelPosition=bottom;labelBackgroundColor=default;verticalAlign=top;aspect=fixed;imageAspect=0;image=data:image/png,iVBORw0KGgoAAAANSUhEUgAAAGUAAAA0CAYAAACTrvadAAAAAXNSR0IArs4c6QAAAARnQU1BAACxjwv8YQUAAAAJcEhZcwAADsMAAA7DAcdvqGQAAAfASURBVHhe7Zl7TFRXHse/wwwyDPJ+aKVBWqUCQ4GFhqIilUCjMWar3VAb0243u2263X9ws2uy1WyrbJe66Us3TVrZTdkuu23QWNe61ILS9YmCtSLCAMOAMMMAg2XkMcCMzGPPOXMGRKVCmYs38X6Sk3PPub9zSc73fn+/cwdZTEysCxKiwof3EiJCEkWESKKIEEkUESKJIkIkUUSIJIoIkUQRIZIoIkQSRYRIoogQSRQRMu8/SCatCMUTycFIf3wh0pP8ceC/Ruz9pJvflaAILsqGnAikJPgjJd4XKStkUCnHAeeY+6bLhY2/HsBVrd09lmDMWRT/5cmwdengtI7ymUlUShmavgpnm8+4rbeMuqB+ZoBde/BVqBAWtBwmcz2fefCYkyiR+dvw0OYCyMmL7uzrhk2vg83YirFuHcZ6dVg4rkN1icwdTIXwiEIh1+VnA/DBgdVEhDiEkxYREIdQv4fZ82o0e3FOu48HP1jM2SnJH34HP2UI2UgZ5OMuKBzuno6jFe3YnbTJHXgXUcou7INOn8tE8DQFaXbrMPZVpvDAB485n76MpYVQjMvgS0qFL+kVpPeMA10WwOGYbE7nlHFbZy7CF3QjJuQyW0vX0LUnG/7Mn+5dIiMjsHbtGsTGxvAZceKVQp/628MIfTiVvOluh3gck6g6h9cSfzXpkGn6dkMOvjpezJxiHmhFcc06Nv9DLFmyGAUFr5GNjkRHRycKC//C70zy8ssvYdWqJ2GxDKOk5N947rlnsXJlBvR6A3buLITBYOSR4sIr3ynXDu2ecMqt/ULX8BRnTNeam/Mn1lRp/8Sf+sN0d/diZGQUjz4ai7S0VLb5t6JSqbBmzUosW/YIuQ5ASwupc2NW8h44ST+G/v4bSE5Wo7T0bzh6tAwvvriFr7z/eEWUQX0d+r79DxQ24pCbvJFrlYucrOy0SEzf9J1ZMOieZmuumU6h7cZZ/tR7U1/fCKvViuDgQKSmPs5n3WRnr0ZUVATJmE40NGgwOjpK3LQHOTkb8eqr29hYoVAQwZSk+WPBggV85f3Ha1/0Lcff47XE3eh1AIbu6oxbm7bpeeYQGl/R9hZ/2syorPwGJlMffHzkUKsT+KyblBQ1/P1VGBwcQm3tJTb39tu78PXXh7B//17mjMLCHQgLC4NcriCp7Wc4fPhfyM3NZrGJifHYs2cXvvyyjK0pKyvBK6/8gjlQaLwmythgF7Sn9k46hWy0dTQYdZ35KL/8Ls5pCiYdQgUhvdGwGobWDSQeuGz8HNetbfxpM4O+7fX1DcwN0dFLJlIY3Ti6qTKZDEZjN6qra9i8n58fE0qpVLLxdKSlpeDNN/9A6s+TzEmk9BLXRWHr1nxs2/Ybd5CAeE0USvPF/XAOD7rdQjZao9+CyivvobljC2JDT99x+tI1bWWxTqsF5frZucTDlSsNpLaMTElhntTlcNiZaHejtLQMb7xRBLPZzOIOHDiEzZtfQFXVaWzcuB6LFkWht7cX27f/EevXP4vPPjtI3qNxInwG8vLW8qcIg1dFcdituHy2CHKPW0ij17RFB5Fa4XEKab1dmTC0bGL3zhiLcdN55y8CM6G6upZs3tQUplavIG7wx9DQMBHtKpubKdRlcXHLyIHARWpRExE3EuvW5ZKTWhe+/76fOE1JjtRLebQweFUUilZ7EOaeK7y2uE9ikX46jN9UkvyfPuGW9qafs/tmSytO9H3IV88emsJoIfeksOzsVUhIiCci+aC9vRMXLnzLI2dGfHwcK/x0fV5eDnbs+D1rr7/+O3IMX0IOB76kDoXwaGHwuiiU7+r/yp1CCjjpLebl+OdBIzSNJB8Tl1w3ZqCrKZ/dP2kq5qt+PLSQ04JOUxgVZfHiKJZqGhs1PGLm0OOy3e4gIjtIgT+OoqJ372hHjx7j0cIgiCgdvf9Da+eRCad4+kXBF5lLrmleYmPdwBnUDh7iq348tJDTgk5TWGZmBgICAkiqMeP8efL3ZohM5t6KpiYt+vqus2dR5505cx4VFVXkO6cVWVmZSE//CcLDw1isUAgiCuVS2yekXridQh1Ba0dEUA36e9Jh1LzAxlX9+3n03KEFnRbswMBAlnroV75G08zv3h2PK2hK2rRpA95/v4ikvsdw4sRJWCwWJCUl4uOPPyBH55145523yMfoamRkpJE1pC4KiGCi9AxdxcWOv09xSnhoDQyaX7Jx7Y0ytFirefTcoQWdFnaKzXYTdXX3LvDUFceOHWent8DAIFJPHmPuOHKkHJ9++jkGBgaxdGkMnnoqi/1uRr+Jiov/Mes6NVsE/SdXiN9DKFhRjkCEQOVrQlbeOpw9WEeKvgVFvT+Fyd7BI+8/mZlPsFNcR4eez7ih3yxUEPp7GRVxPpAHB4fs4tdex+qwwMfpglqZhSClAWP9CbBeT0TFwEe4ZK3gUeKgq6ubOeN2enpMaGu7xo7D84WgTqHIZb7YHv0FYuVqyEnaMtm02G1+BuMuG4+QuB3BaooHh2scp26UsDpC/4FVOVIiCXIPBBeFcn7kCzSOnMJV22mctpbxWYnpEDx9eYhWxLHeaG9lvcT0zJsoEjNnXtKXxOyQRBEhkigiRBJFhEiiiBBJFBEiiSJCJFFEiCSKCJFEESGSKCJEEkWESKKIEEkU0QH8H7MsjjxSoADiAAAAAElFTkSuQmCC;" parent="pornnzjDikWWZmQVH5Sh-1" vertex="1">
          <mxGeometry x="240" y="244" width="101" height="52" as="geometry" />
        </mxCell>
        <mxCell id="szmZYFNQuVA8cMRqwnFK-8" value="" style="shape=image;verticalLabelPosition=bottom;labelBackgroundColor=default;verticalAlign=top;aspect=fixed;imageAspect=0;image=data:image/png,iVBORw0KGgoAAAANSUhEUgAAAH4AAAA4CAYAAAA7Ikz5AAAAAXNSR0IArs4c6QAAAARnQU1BAACxjwv8YQUAAAAJcEhZcwAADsMAAA7DAcdvqGQAAAn6SURBVHhe7ZoJXI9ZF8d/0atSWshkG6EY+/Ix2Rki2xhGQ2RtLKOxTpOxzYzxem1vRIRIkaWQYezLWMdaDYpkzTbGqwhFEkO995zn/vXvP4b4z+TD83z7/D/3nHNvz/8+99x7znmeMnEo45QNDdVRQLYaKkNzvErRHK9SNMerFM3xKkVzvErRHK9SNMerFM3xKkVzvErRHK9SNMerFM3xKkVzvErRHK9SNMerFM3xKkVzvErRHK9SNMerFM3xKsXo/7ItXMAUtgXNYCc/OjmXzdQMxSytUWuhLwqamiJrQBAuPEpDy4vr5VU08hujHL+9QkfUtrCX2ksoVgQIHwbcewh4zGKT05nleJD1B8sa+YtRob66eVEp5YFHwsFjIoCALdIgdp1sNfIfoxz/MPuplAwoK6JAm1riZDcEmlYBrMyB9Ewg7gpw+LwcpPEmMSrUx3/gieKmFlIT0BEe1g5oX0fRdZDTJ/8ExF6WBgVnEerTXxDqa9aoDu8v+qGEgwPrt2/fwY6du/Djug2sv0mcnCqgc8cOLC9YFIr09Acs/1PUqF4VbdxasTxj1hxujcEox8dU7IqyhUTu1tHJBfjSTSoG3L4PeM0H/siJEi9y/ITx4+A9sJ/UcnM89gTad/yM5batW6F6taq4kZSE8JWRbMsP6HvDQhewXMelsfj+ZJb/KXp074qZ06ey7OhcDY8ePWL5dTEq1GcahvoqpaUgOHMd+HYlcFeeBCruKAXkgZauzZ85PSg4FO4ePTHwy2G802/cSELM0WPcR7Rv2xojvx6O3j27S4tGXjDO8VlPpCSxKCQFQXIacEyE9phERX8sxprr9b+Axo0acEuh/d//mYrDR6KxafM2zJg5B3XqNcGsgLnc36hhfdgXVzaTpaUl69WriZrCAEoZtra2UsuBxtPHxsaGdQqn9Pmwbh22O1Uoz3YdpUqVZDv1Z2fnBEqSrYsUQe1aNWFmZiatf4bmQHN5EXkZo6NwYYtn91D5g0rSmjeMcnyG4YlPTJKCoHlVYLjI9/N2iLg4BejoByRck50v5mbyTW6LFSvKJ99wMdPu3WMnrIsMh2vzZmyr6OzE+qSJ41kv+34ZLF8SjKRrifh563qcjT+K/Xu2o4t7J+63tCzM4+nj6fEZog7uwc5tG9HKtQX69OrB9uVhi3isDn+/KWw3jC79P++D86djsX3zOlxNTECA/7Rcc/bo6s7fTXOgudCcloQEoUyZnAjp0aXzn8YsWxyca4w+JiYmCA2ez/NZERbC+qvw9574H6OAG3elIqAib+kQ4fja0pA3VkauxdlzSvVPuZ4WkxZkUVAg726CchxFgpu3brF+Pz2d9fj4BNZXRyyFWytXpKTcxtLlETh2PA6VKjpj7mx/tGrZgsfooO8oWtQOu3bvRXzCaQSHLGZ7hfLl0LBBPZZLly6F5s2asBw4PxjZ4kfHgH59sXL1Guz95QDr3T26YKTPMJapFpgz04+/Oyo6BmHLw3H3biratXHD6hVLeEwbt5aYM2s6j4n+9SjP986du2jt5orV4WE8Ri/A8L2PHeWLFh81Zd1rgDfOnD3Hcl4x8nHOwPEPHwNDxaJtjwOy5EztLIGv2gPuygLmhbS0NHzapQc2b90uLUoI/KRDO97hvl8N4zRAuX/fPmWxL168xPr3Eyaxg8qXc2R7py6eGD1uPD7u1IUXlejby5NbHRs3bUWlqnXQy2sgO/9UwhkcPRbLfbrT3d+rN5+qg4eOIDHxItt0DBoyAj4jx8Kz1+eIWLWGbZ07fcJt3z49uaXr0j2NGfcDevTpzzZ6MmjSuCH69u7B+p69v6CTe3eeb3dxLYLSTdMmjVjWQVFr+FBvlod/PQr7Dxxi+VUw8sQbhPqSIo86lQB2xovVCBY5/pLsEAwUjyKOxaXyclJTUzFg0FBUrFIbXT37wG9GAC5eUh4Hv/EdgfeK//W1HB3LSknZEDri4k5yq99P7BYLbkjI4qXcun/aEXZ2tvDs1pX1hSHKKdXnxIlTUgJOxiuyLkRTyiH0T2Rs3AkpKf2OZd9nWX+M7joE9evXFBS1CNookWvWsfyqGHfiDUP9xG6An9jh/r3FnRcDvlstEvY9pY9SUG3lFOYFWmyCQviBg4cxc/ZcDB0xkm2Es3MFbp/Kzae/MBkZGVJSCiAdtrZKEUf9+jkxOztLSjms37gZSbLWoMc2ms9v137Hzl172KaPtXXOI61OfvjwIbcZGUprZ2fHLWFlJaKghPofyPnqj6EaRIfuGjqORMVw69riI3T4uC3Lr4pxJ94w1KfqvcRoJKrMGuJkFdAvOvJWgFBIj405iOnTJnGetrG2Rv16Lhg32leOAC5cUMJt8k0lxzuL4o6KQSI6RgnpxOiRPmxvIYrAtiKvEoflwr2MZSLXEvVdPuQ2aGEIt4SJ3r0M9h7ALc2T8juxe48SRaJjfuWWHjubNW0Me/ti+G7sKLYRlH6iopUxlPcpTdGYb8d8wzaCxuhv1AHeQ3Hp8hWW5wbMeOWKnjDyxBuE+p+VUMq41VROv708DfTi5mju3PhXVK1SGebm5pxfqTI/l3AcG9aufJbrAuctwK2UFJa379jFbRErKyTExWDfrq18Mqf7z2b7IPFUQPaVyxezYyg/zw4M4r6XsXjpCjx5otwjvZlbJYrO59G8WVOuwmmeVBBSQTl+4mTuCwicj8tXrnLxGCkKzlOx0fCSeX/ytBn8XmLm7Hk8hqLKKlHM0Zh+oqYgpvr54/r1/wnHs8rQXLr18OICkNYpYlnos02fVwpaWRedIOVXpp6lAxpZlpSa4FKy8l6eXtT8y1QaBWkilP13g/JSR485KSfx+Dlh9tDhKGzZtoOrVwqZdOPXfr+O8xcS8cPEKQhbFi5HQoTjZKz9aQOPuyce8yg37t23n8Phvv0HOHzeupXCvx+yZCmGDPfl6xYoUBD1XOqynXLllau/ySvmkJmZyW/MrMWGWRQalqsWIEeWE7UC/f4Xg0fAxsZa1CVpOHkqAYOH+fDmIyhMr4hYzTWLWSEzHk9jhvuMEkWl8gcr+p7QJctEWrv/bMyp02cwQhRu6zds5jHFRU1TskQJ7otYFcn3elCsExV/qaIYdnB4j9ctrxj1ynaIfQ187+AiNT0KikBCYd5ZFHr0eHdcFGVU8Rvwsnf1bxrda9msrCzUbdCMT+e7wt9b1et4Kk4x/SWOnusPiUr1OU5/G/AZMYTbTVu2vVNOJ4xy/J2nmVJ6PV471OQDVA/sFM/e9PcB/1mB0vruYFSop3+76mtXGfamFrAQOdPcxFS0pjAXsoWQqS38zCZaaaM2IfM2Wl/aKK+kkd8Y5XiNtxejQr3G24vmeJWiOV6laI5XKZrjVYrmeJWiOV6laI5XKZrjVYrmeJWiOV6laI5XKZrjVQnwf9iOuUNfDRuQAAAAAElFTkSuQmCC;" parent="pornnzjDikWWZmQVH5Sh-1" vertex="1">
          <mxGeometry x="227.5" y="405" width="126" height="56" as="geometry" />
        </mxCell>
        <mxCell id="szmZYFNQuVA8cMRqwnFK-10" value="localhost:5432" style="shape=callout;whiteSpace=wrap;html=1;perimeter=calloutPerimeter;" parent="pornnzjDikWWZmQVH5Sh-1" vertex="1">
          <mxGeometry x="331" y="140" width="120" height="80" as="geometry" />
        </mxCell>
        <mxCell id="szmZYFNQuVA8cMRqwnFK-16" value="127.0.0.1:1433" style="shape=callout;whiteSpace=wrap;html=1;perimeter=calloutPerimeter;" parent="pornnzjDikWWZmQVH5Sh-1" vertex="1">
          <mxGeometry x="1023" y="230" width="120" height="80" as="geometry" />
        </mxCell>
        <mxCell id="Mv8075cYRxC_W5CkBEGv-1" value="" style="shape=image;verticalLabelPosition=bottom;labelBackgroundColor=default;verticalAlign=top;aspect=fixed;imageAspect=0;image=data:image/png,iVBORw0KGgoAAAANSUhEUgAAAHkAAAAgCAYAAAA2e9d2AAAAAXNSR0IArs4c6QAAAARnQU1BAACxjwv8YQUAAAAJcEhZcwAADsMAAA7DAcdvqGQAAAkrSURBVGhD7Zl7TFTZHce/MzykAyuuNZalPlYU4gOVdQlitZv6Nqy6GiJuqRu3VeIf1hi3sS4xaqwxrqZqW9YqVavU+ARdtZaITypUVNBVi0R8oDX4XBaQIsVhZk7P79xzx3tn7jAza1xR55P8wjlnzp059/zO+f2+52Cy2WwMAV5rzPJvgNeYgJPfAAJOfgMIOPkN4LmFV9k3JnxdA7z7FvDTd4CwoICOa2s8t5Ozyk2Yd1oJCJZgIK0nw+8SHYgOF00B2gDPHa7bMYcsAU02YGulCfG5QcjhfwO0DZ57J99vZDjyH4Yz3wZh7y0Tap8+c+4vYhmyP2CBEP6S+U5OrqmpweXLl3HlyhWEhoaiX79+GDBgACxvRSLzrAlrL/FOJsXZY7sw/CPl2W4P8P3jl5Nv376N2bNno6CgQLbomT59OtauXYvCukikHzOh2a44evVPGObGBxz9svDZyRcuXMC4ceNQW1srW4zp3bs3jhw5gou2H2PiYSXlR4TwBZJuR4d2ouqRvXv3Yt26dbLmH2vWrMGtW7eQlZUlW7g+2LoV3bp1k7VnWK1W8S4qqampYvFu3rwZ27dvl63GtG/fHl27dsWIESMwefJk2aowatQoOBytL+aIiAj06NEDKSkpGDt2rGzVQ5Fy586dKCsrw7Vr10TEpOdobvv06YNhw4aJMVMU9QlysjerqKhgHTp0oMXgk/HBML4YWMZJB8OfmbCFJXbD79ba6tWrDb/PF+MLi/EoomvjKcXwdxobuZDQ9JszZ45oX7Bgga7dm3EnsYaGBuf3ms1mw36ebMqUKYwvOOfzZAcOHGBhYWGG/bUWFxfHqqqqdM96Mp/UdUZGBurr62UNiIqKwsGDB8WKq66uRk5ODiwWi/wUuHr1KlasWIHM9xxcvtOYgG3X2r7a5k6SJd+gtDVt2jRZ85/c3FwRbVT27NkjokNzc7Ns8QztcNrRNP/e8BquSWANGjRI1gC+o0VbdHS0bFG4ePEikpKSnOGKwhotgjH5wSi8pzj4QqodA34oiobQgG/evClrz5g6dar4LoJ+gxaQKwMHDsS2bdswb9482aKMvW/fvrL2DJpECn8qfCcLLbFo0SLdd+/btw+RkZGyptDU1IS5c+eC7yLZAjx69AgdO3YU4VN9/1mzZiEtLU2UtVBf0i6UMggqU5qg+UtOTqbIKtqJmJgYscFI2PKIgUuXLmH9+vXgkUj2ABISEnDmzBkEBwfLFgO029rIVq5cqQsTGzduNOxHxl9e17eoqIh9cdbqDNk7Kr2HbCPjC8r5nTyXGvYhe95wnZmZqWt/8OCB27Nk+fn5un6UKqhdG65p3lyfU41vGmc/mjNqmzRpkrONjC8Qxhej27P37t1jXGfo+vLF6NZPa17jE/9SWVIYPny4LLkzZswYWVKgsB0T7kBEy1NRv9vU9kO2N/ikgedNWVNw3e3E0aNHsXTpUp0tWbJEREUSsQSlPTXykFhVoaiwadMmw93ZuXNnbNiwQdYUPJ12VNycbCr+N+x/+gr/W3cQ9of1bgqOXtITrjmN+lpMDoRbm4XZ7LTwXh0oP5KK1lqnTp2QnZ0tewBdunQRqYLQKutjx45h2bJlOlu+fLlIISq7du0Sz1MKIFMZOnSoTuO4QiqeizNZU/Jza7g7+Xo1Qv+Qi+A/7oPjcpXbEeTkyZOy5A69mBY6KtQ1tCDc9hQR3Lpb7PKTF4PryvckYLQTSnjKZyUlJTh16pTOtPmQoCOb+ry/wo2OUaWlpW4OpbzdGjQGNacT3o5SbqNi70aJv2E2K8wlFRg9erSoqyxcuNBQ0VEI0p5RaaWR+rt0/b9iF1u49RWnsBcH7TItnlZ4ZWWlLClQ2PQXuuGjEDthwgTZoofnZBHJXI0W3sSJE0UfWmwk0AitQDx//nyru3P37t26qEFjaQ33pZfcDyw4SBRD9p9CbNfuujxMlyE0IMovlJso5JA6JWWoXV00+OaWYJRfrRM5OfYHNsR3Vr73RTF48GBZUli1apVQpVpokhcvXixrCkOGDBF/XS8yuPByOod2F50YVEjt0zv7C+16NbwT5eXl4ndJZavQ75Ey1yp4lUOHDgl1r0X7rBGGRyjzb7NhyvunKDt+k4brY+PF0cV1wjxBNzOnT5/G/qPfYv+ZejwJaYePx7yDX/7sbdnDPyhlqAKQbqroRT0xfvx4HD58WNaUG6aRI0ciLi5OXMseP35cd2tHQujcuXOiTFGKdqAKOVkbHeioo+48YubMmToRpD1CUd5UF48Wur2io5kKCSl6N1p8tHnu3LkjP1HCP0XS+Ph4MfcULWmXa5kxY4ZOIxhCTnazG9WMxfycsW5pzNEzndnufsP4RPh068UHyvhAWfnX91nGrGMs/dfFbOrn51nDE/3Njj/m6xGKjH6bq1PdmDwZz4WM7yTns643XkZHKB4tdH24inZ+pj1C+WpcXTufp7Hw1GHYz8j4aYbxkO983pMZKwWel1nGh0r5E56T21vwflOIuEulFeoJOrgXFxejsdqBvKyzTlX9q3FRsLTzT5R8V+iShgQSXRK0Bu0aGitFHX/YsmWLTqhRqFQjnGu49wbdP5PiVqGxVFRUiHBMl06eoBxMlyL8vO7T/bXnG68WG8xbC+CYNgrmT1fCVHoVLPUD2D9Px8OWJhF2KJ+QwOrfv7/44fAwC8pyzqK04IYI0WQ9h3THJ7Nan3Bv0G2UOpGxsbFIT08XZW9QGCaFTCKGQjX9Y4Eu+Cn1GIXSEydOoKioSNaA+fPnGx5l8vLyxPur0D8aKD/TMcmbo8kpNI7ExMRWFxj3i0gthYWFYp5JD9Ac08Lo1auX7OUbnp0sMa3JhfnLr2SN0y4E1glDYUvqi5CRCbA/bcHjszdQd/0Rbv+rCo+59noSEiYc/KOkHpj02TAEBb36lyCvMl6dDAeD+YsdwF/zYeJlleZgHib+8hmsDx7j7pq/o5F2bqji3Ca+o7t+9B7e/3QwzEHfT5gO4BnvTlZ5WAfT3wpg2nEcpsdPRFPLxvmw3q9Fze8PCOc2vx2J8JRERH88BJYo96u+AC8H352sYrOL/Gy6/RCO5D5gjc2wVlYD3aMQmhADU8iLPQsH8B//nRzglSOQMN8AAk5+7QH+D9wTECCcNpgkAAAAAElFTkSuQmCC;" vertex="1" parent="pornnzjDikWWZmQVH5Sh-1">
          <mxGeometry x="227.5" y="208" width="121" height="32" as="geometry" />
        </mxCell>
        <mxCell id="Mv8075cYRxC_W5CkBEGv-2" value="APIテストツール" style="shape=image;verticalLabelPosition=bottom;labelBackgroundColor=default;verticalAlign=top;aspect=fixed;imageAspect=0;image=data:image/png,iVBORw0KGgoAAAANSUhEUgAAAIYAAAAvCAYAAAAmarK3AAAAAXNSR0IArs4c6QAAAARnQU1BAACxjwv8YQUAAAAJcEhZcwAADsMAAA7DAcdvqGQAAAmZSURBVHhe7ZoJUBRXGsc/vEDwBF2zKoKJJIiu8Yq3RIstxWRX3NKNwbWMSbaixYJRU2LlcGvDVsWohKjRoFETDavrFYFoFLwRvFBAI0hAdCGWQIw3yiXqvv9HP2yGHhiGYUxS71f1VT96Xk/39Pd/39GNQ3FxySNSKExoom0VimooYSgMUcJQGKKEoTBECUNhiBKGwhAlDIUhShgKQ5QwFIYoYSgMUcJQGKKEoTBECUNhiBKGwpAn/tr90qVLdODAfrp8+TIVFxfTw4cPqaKigh48eMBb2P3796u2sPLy8qotrKysrGorrbS0lOcA8Rt5q7CcJyaM/Px82rJlM926dYtFAEFgKwWhF4ZeFBjXJgxsIQopjqZNm9KdO0XaWRWW8kRSSXx8PK1bt1Y47A45ODhYZE2aNGGTY/0+cwZRtGvXTjuroj7YXRgxMdGUknK6ynl65xs5G841+lu/ldasWbOqrRz37z9AO7OiPthVGIcOHaTMzEweP3r0OINBEKZbaaZ/6w3CkFvTsbSQkBD+DkX9sJswkDaSk5NrONX0b/1+6VxpiAByazo2Mk9PT/Lz89OuQFEf7FZ8fvnlOrp69SqPES1gKDixlcWnvgCVpi9ApaHAlNvaupOvvlpPo0eP5nNaAsR78OBhOnbsBJWUlFKvXj3J338MeXh0Y6E+aR4+fEQZGefpyJEk+uGHLGrbti29+OJIGj58MDk7u2iziNLTz1Nqaho988zT4rOh2t760fT99z/4lzZuNO7evUsJCQk8ru0G69OLRIrInElBybHcBgRMoBkzZmjfUjdpaWdp/vwPKDHxKBUW/kTXr18XaS+L9uzZSx07duCbjGuHQz788CP+Tb16+WhHNz4lJSW0cmWksNWUlZXN13flSr4Q8XE6fvwUPffcs9ShgxvPTU09Q6tXr6Wnnuokaqy+vK++2CWVJCYmssOAdKgRetHIMba1mUwz+vHIkSMpPDycj7eE4uJ7tG3bDioqKqLg4Jn03XfRFBe3kyIiFvPN3bJlOxUUFPLc8vL77BjMtReInN98E8MihQCWLl1CsbHbaNOm9TRp0l+EQK7QF1+so5s3b2pHNBy7RAwUnQjtAA60BL14pJj0Zm7/2LH+wqER/LmlFBT8RNHRsdSlS2d6443XRFh25utEpMAqRMhGOomP3yecsZlu375D+fkFHNJbtXLhzyq/p5A2bvwvbdiwkQ4fTuDI1bVrF+6QAOaHhy/lY5Dyli//nL79dic/gOve3bNqnil5eXm0atUacnNzpffem0deXj2oefPmfJ19+vyBrl27xumvZ09vvpacnEsiipyk3r19ftkRA2EXTqsNvWAwNjUZFUzH0tzc3GjJknAKCwvTvsVy4Hjc9Jyci0LECdVEPGLEMJo27W/k7t6V95nj++/TafbsebRr1x6uf27cuEGffLKMPvvsc04DAAJAtEGoX7QonMWVl3eZna6fZ8rFi/8TqeMGDR06mLp1qxShBAIJCppJ27dvon79ntf2Nhy7CAM3ytSRRiZTgX5saug25Lhly5bk7d2TFixYIFLBdnHjrCu02rRpTRMmjCcnJyfO4RMnBoqV+U+OEChIJa+8MpFmzQrm8ZgxfsKZEeTrO4IdGhMTK67JgRYu/DdFRi4XOX4lTZ0aSPv2HaSTJ0/xMZKUlFR69935tGbNSlq7NlKs+t487/TpVG1GdZAqgLu7O98bU5ycHMVvaCMiUSttT8OxuTDQkoaGzqNx4/xp8OBB1Lfv87R161basWOHyIuxtHv3btq7d69YmYcoKSlJ3LSTovBLE5V0OmVnZ1Nubq4IyQVcXCGPo+uQInB1dRXhvgutX79BhOxNFBX1H7HyFtGwYcO1s1sHbvaoUb7CocsoMPCv4jzt2UlY8dOnvyXSwpFaIx66raysC+K39qHOnX/PYrp3754I4/04El24kFPt+CFDBotWunLl41wBAX/mMQpbo/NUVDzQRvbDZsJITU0Vqy6AXn11slg9MZwXsZLk6raVOTo6ame0PZ06daLXX3+Nvv56nSj2NovoEMT7UeFDsOa4fbuIfv75Gh04cFgIa5ooCKewzZ0byikAIi8rK9dm4zy/48gnQSoDpvMkEBuwZXFZFzYRxuLFi4Xqx/PKl2nByOBYo7E5M5qPkGlr4FTk/dzcPG0PUevWrejll8eJyDeGnZuVlaN9UpMWLSoLQX//saKDieJ8r7eQkCAh6BbabAjptjaqBF0HcHR0qiYYCaIkClO01EVFd7W9lSDCoHAOCZnL6chWNFgYoaGh9OmnlV0AnNfY5unZnc9lS7BSw8I+ohUrIkXR+HhV4u0sRANcXau/jJPPTEDHjh1F99FZpIwLHPYhXhicePbsOf4OiFqSnp7BYgMQxYkTyTzu0eNpUUzW7Ex69OhOgwYNpDNnzoqUHM3pFeD8eNayc+du7kwwz1Y0qF39+OOFoqJexQ6Tj6FrMzlPOtn0c1MznY9VExg4RazQx6vPFri4uFBhYSG3eEgHaDvT0s6wUM6fz+Q6SRanCOcJCUn044+X2eF4zoHUgGuLj9/PTsfKx3ErVqyiuLh9otZ6QaSDzlVtJGqnc+fS+UFaXFw87d9/kAvLKVMmi0jVWruqxzRv3kK0sx4cMY4ePc7PM9D6xsTsEhFph+j67tHMmX+nAQP6swBt0a5aLYyUlBQKDv5HDWfWZbiBRvvNmX4+bt6QIdZ1HrWBlg/OR0rIyMhk52IlopvCI/GgoLe4SATt27dngSQnn+LH097ez/JTUTyHgEASE48JRx/gTgTdzpw5IWK1v1DNYePH/4l8fHxEAb2ZW1EcP2fOLHa+OfDvAyhaS0vR8l7gghf/y4L29Z13Zom2eoRYPJVRyRbCsPpdyUsvjROV++kqx+HmSkfWZdbMR9H59tuzqwq1xgLvI9BRAGfnlnxuI5AC8JAK3ZIeeTycJB+USRA9IiKW0eTJk+jNN6cLJ5eJ76moMa8ucG48E8E9RKvaGFhVY6ADQVsqQ7w9zNfXt9FFAeBQFJ4wc6IA+MxUFEAej/RUl7PhVEvmmYJz4xyNJQpglTCioqKqfgy2pmNzpp+jH5szOWfgwIE0apTlb0kVDceqVIKXVNnZWazcxkwhSB94be7n90ftzL9ukDrKy8v4tyF9/JKxShgolpBHpQMtdbQ0S+Z7eHjS1KlT+R2Iwv5YJQzZnlkaAWqbJz9DvoYIvLy8OELgKaTiyWG3/+BS/Lqw2bsSxW8LJQyFIUoYCkOUMBSGKGEoDFHCUBiihKEwgOj/JmXUuvH/Z7QAAAAASUVORK5CYII=;" vertex="1" parent="pornnzjDikWWZmQVH5Sh-1">
          <mxGeometry x="540" y="440" width="134" height="47" as="geometry" />
        </mxCell>
        <mxCell id="xhccxDok1Qx8kJmdNA6C-0" value="API" style="image;aspect=fixed;html=1;points=[];align=center;fontSize=12;image=img/lib/azure2/compute/Function_Apps.svg;" vertex="1" parent="pornnzjDikWWZmQVH5Sh-1">
          <mxGeometry x="580" y="259.63" width="68" height="60" as="geometry" />
        </mxCell>
        <mxCell id="xhccxDok1Qx8kJmdNA6C-1" style="edgeStyle=orthogonalEdgeStyle;rounded=0;orthogonalLoop=1;jettySize=auto;html=1;entryX=0;entryY=0.5;entryDx=0;entryDy=0;entryPerimeter=0;" edge="1" parent="pornnzjDikWWZmQVH5Sh-1" source="xhccxDok1Qx8kJmdNA6C-0" target="kHaNmRyBjZCl41e9CP9e-0">
          <mxGeometry relative="1" as="geometry" />
        </mxCell>
        <mxCell id="xhccxDok1Qx8kJmdNA6C-2" value="localhost:7071" style="shape=callout;whiteSpace=wrap;html=1;perimeter=calloutPerimeter;" vertex="1" parent="pornnzjDikWWZmQVH5Sh-1">
          <mxGeometry x="600" y="140" width="120" height="80" as="geometry" />
        </mxCell>
        <mxCell id="pornnzjDikWWZmQVH5Sh-28" value="枠" parent="pornnzjDikWWZmQVH5Sh-0" />
        <mxCell id="szmZYFNQuVA8cMRqwnFK-11" value="コメント" parent="pornnzjDikWWZmQVH5Sh-0" />
        <mxCell id="szmZYFNQuVA8cMRqwnFK-19" value="REST ドキュメント" style="shape=image;verticalLabelPosition=bottom;labelBackgroundColor=default;verticalAlign=top;aspect=fixed;imageAspect=0;image=data:image/png,iVBORw0KGgoAAAANSUhEUgAAAc4AAACoCAYAAABpPA5DAAAAAXNSR0IArs4c6QAAAARnQU1BAACxjwv8YQUAAAAJcEhZcwAADsMAAA7DAcdvqGQAAEgbSURBVHhe7Z0HfFzF1cWPeu/NsmXLXe69997AuGMbMMa0kFACgZAvQGgJLQkJgYRA6AYXmis27hiDe++9F/Xe+zdntAuyLGnfyrsrydw/vJ+0b9faV+bNmXvn3jtOpQoIgiAIgmAIZ9NPQRAEQRAMIMIpCIIgCFYgwikIgiAIViDCKQiCIAhWIMIpCIIgCFYgwikIgiAIViDCKQiCIAhWIMIpCIIgCFYgwikIgiAIViDCKQiCIAhWIMIpCIIgCFYgwikIgiAIViDCKQiCIAhWIMIpCIIgCFYgwikIgiAIViDCKQiCIAhWIMIpCIIgCFYgwikIgiAIViDCKQiCIAhWIMIpCIIgCFYgwikIgiAIViDCKQiCIAhWIMIpCIIgCFYgwikIgiAIViDCKQiCIAhWIMIpCIIgCFYgwikIgiAIVuBUqjD9LtRDePsyMzORkJCA7OxsFBYWwt3dHb6+vggJCUVAgL/pk4IgCIItEOGsp+Tl5WHPnj2Ij49HYkIizl+4gIz0DOTn58PTyxOBgYFo1LAhGqqtUVQUWrVqCT8/P9O/FgRBEGqKCGc9g7dr69atOHr0GDZv3ozYK7HayqwUJ8DTwwPR0U3RtWtX9OzVAzExMfD09DR9QBAEQbAWEc56BK3M5cuWY82aNTh37gJKSopN71jGQwloq9atMWrkCPTr3w9BQUGmdwRBEARrEOGsJ6SkpOKrr77CyhUr9ZxmTXByctKu2+HDhmHsuLEIjwg3vSMIgiAYRaJq6wGct5w/bz6WLV1WY9EkHCNdvnwZ36xYgTVr1yA1NdX0jiAIgmAUEc56wFdffY1169YhNzfXtOf6SElJwcqV32Lv3r1alAVBEATjiHDWcY4cPoJ1a9chKyvLtMc2xMfFY8nipbhy+YppjyAIgmAEEc46zrJly5XIxWk3q605ceKEtjqZ/ykIgiAYQ4SzDnPmzBktbvkFBaY9toVpLGvWrkVSUpJpjyAIgmAJEc46zMaN3yM5Odn0yj6cP38eWVnZdrFoBUEQbkREOOsw586eRV6ebQKCqqIgvwD79+1HTk6OaY8gCIJQHSKcdRhagkVFxosc1JRTp0/ZLGJXEAThRucXWQChpLQEyVlXcD75MC6nnUFaThJyCzKRX5iFgqJ8xDToiaFtbsWePduxcfNKuLq4IigoFA0bNEGHNt0Q3bgl3Nw8TH/NPnD+8fHHn8DhQ4dNe+xHp04d8Yf/+wMaNGhg2iMIgiBUxS9COHML0rDl9Eoci92JxMyL6nUWikuL9VZaUoISqEugL0PZpegUNQgTu/4GG9atxOdL3ldCWwon/ufsBBcloq4ubvD28kFEWEO0bN4WIwZNQFSjpnBysp0Bn56ejqf++DSOHTtm2mM/mrdogeeffw6NGjU07REEQRCq4oYVzospJ7HxxOc4GbsH6XmskFOsBZDiaOmUKZyTuj6ohXPh4v+hWIlrRVi+jv/xf2dnF3h6eqF5dBuMHjYZ/XuNUPuuT0R5jI89+hgOHjxk2mM/unTtjCeffBIRERGmPYIgCEJV3BBznKWlJSgqKURaTgKW7n0bzy6ZitfX3I8dZ1YjJSdeCV+B2pR1qT5nq3EC/w5dviVKVIuKCpGVlYGDR3bhH/95GrfdPwTP/fUhHDy6GwWF+fq7rYXCTOuWP+1NcHAIXF1dTa8EQRCE6qjXwllSWoz8ohycTNiLj358Fn/5ZhbWHV2AlOxYFBUXaKF0JPw+imRObhb2H9yG5199EI89fTtWrvsCmVnpWkStwT8gAC4OELTOnTrBx8fH9EoQBEGojnopnBTMnIJMnIjfg7lbX8J7m57CgUs/Iq8wy+FiWRW0RAuLCnDpyll8+Nk/8fizs7BkxadITklEQYExAeXamT7e3qZX9oFrc7Zo2ULW6BQEQTBIvRNOumQvp5zCol3/woebnsHBi5t0sE9dEcyK0KVbXFyEuPhLWLj4Pbz4t4fx3Y8rkJqWpKziItOnKmfUqBEICQk2vbIPrVu2gp+vn+mVIAiCYIl6I5zFpfkoLMlCWnY8Nh7/EjvOrUGOsjA5z1hf4FzouYsn8cFnr+PtD17GoSO7tQu3Mii4LEqgg5DsNM/p7u6O8RPGy7qcgiAIVlAPhLMU+cUpuJC9CqcyPoeHZymiQ9vB271+WkkUxLz8XOzctwlvvf8CNm1ZhYLCq2vR8jMXL17EW2++hfPnL+jXtoZi3KVLF7Rs1VILqCAIgmCMOi2cJaVFyCw8h0Np72Jj7EPYnvgczmR+hZgGXdCuYW+4ONffSNCyaNwiZVVmIV8JqRmKJOvHvvPOu9h/4ID+jK2hAdukSWNMu3UqGjVqZNorCIIgGKHOCmdxaR4S83Zid9Jr2JH4Z2QXXkZ20RWcz1oFuCWjY9QAhPvV304/ODAUo4ZMxPBB4+Hn66/3UTTPnj2L99//AHv37EVhQaHeb1OUakY2bIgZM2egbdu2cHFxMb0hCIIgGKFOCmdRSS4uZK3F9oTncCTtAxSr13TZUliu5GzGqYwv0Cy8BTo06g9PN/tGndoDiubIwRMxdvhUBAeHqT1O+txOnz6Njz/+BHt270GBHZYSo0g2b94c06dPR+/eveHl5WV6RxAEQTBKnRPOktJCxOdtU1bmC7iYvV67a8tTVJKtrM6VSC7YpYUzKqi13YJn7IFZNMeMuFo0T548iU8//Qy7du5Cfr7ldBVrzpmfDQoK0mI5Z85sDB8+DAEBAaZ3BUEQBGuoU8JJASkuKURecSJyi+KUjVl5xGxq/nGczVqGkEBvdG4yGP5eoaZ36jZBFM0hZaIZUk40T5w4ifnzF2Dnjp2GRNPVzRVjxozGoEEDER4eBje3a4N7KJYe7u5oGBmJ/v37Ydqt03DvffegT58+YmkKgiBcB3WmVi2DYH7Yuoo9Pnr36okjGe/iUOo7yCq8YvrE1Xi7RqBn2J8Q5joG3+z7CIcu/aCsUdsE0hipVWstgQEhGD10MsYMn4LgoDAtbGWieQILFizEju07DIvmhAm3YNasWcjKysLu3buRmJCEvPw8vTRYfl4ePDw94e3lDS/1s0FkA7Rr3w6RkQ3h4uJslaUqCIIgXEudEE4ewrqNS7Fw0f/gooRh+sR70LtPTxzL+NAknpdNnyyPE6J8h6JP2EuIT8rHN/v/h9j0c6b3rg9bC2eAfxDGDp+G0RRNZXWaRZPuWVqaO3Yo0cyzLJpubm6YOGkC7rjjjp9K5DE61/yTeZ8UXw8PD3h7e8OZq7UonWTBeRFMQRAE21AnXLU792zCF0s/QGJKPBISr+DLpR9iy+atiPGbjQ5Bv4avW2XRs6WIy9mKc5nLEB0WrdfQ9HSre/VW/X0DMW7ErWWW5lWiecpq0Zw8ZRJmzpypRZN/hxsDfrjxfc5bhoWFwd/fX792cS17T0RTEATBdtS6cB49vk9bmglJdMmWasspLuEyFn3zqRLPHUo87zSJZ1TZPygHo29PZXyNjKIj6NV8NBr4N1UGVt0RCV9vP9w0aoYWTc5vmkWT0bPz588vc88aFM2pU6dg2rRpWhSrE0KzoAqCIAj2oVaFMyUtCfO//i9Onz+mBcWMWTyXfDsPmzdvQyvfO5R4PlCpeKYXnMLx9Hnw83FG7+Zj4O8VYnqndvHy9MaEsXdo0eT8plk0z5w5o6Nnjc5puru76UIFkyZPQmBgoIiiIAhCLVNrwsmi7PO+/A8OH997lWiaKSkpRmzcRSz9dr6yPLeXE8+r3baMvGVRhNjcH9E+qicaB7eu9YpCHu4emDJ+jp7TDAwI/kk0z507h08+/sRw9GyZaE7DhAkTEBxc9ncEQRCE2qXWhHPxyrnYsmN9tSXlysTzEpatWoBtW3aVc9teLZ55xak4kvY+ip2TMKzNDAT71F7Rci4+PX3i/Rg9bLIOCjKLJmvPfvDBh9i1a7dh0bz11lsxfvz4q0QzOztD/T3rF8YWBEEQbEOtCOexE/uxZsMS5ORmm/ZUDcUzTonn0m/nYeuWnYjxZ8DQA/BxbWj6BClFYu4enMr4EpHBDdAmsg88XB2fq8go1lnTHsSoYZOuEs0rV67o2rOsCGSNpXnz+JsREhKio2JJVlYG3nzvRSz6Zq5+LQiCIDgehwtncXExvlz2kQ4GqsxFWxnFJrftkhWfacuzjf/dSjx/pcQz0vQJ1rYtwPH0ucgqOoNhbacjxLehQwOFKJp3zfgtRg6dBH+/QNNeID4+Hm+++ZauPWtYNKdN05bmtaL5Anbv34zlqxcgNv6S3i8IgiA4FofncS5XluPCJe9XuQ5ldTg7uyAivCGmjr8Lffv1xtH093Aw9R3kFMXp9ymUzfwmYECDN3Dk4mEs2v0mcgoy9XvWYG0epxbNmY9ixOBb4Gsq2E6SkpLw6quv4fChw4ZqzzJ6loFAt9xyy7Wi+b/nsffgVuQX5GtLtmeXgXjmiTf0+3UNNqnU1FRcuHBRWduxSE5MREZWpi7QUFRYqO+jh4c7PL28ERYWgvCwcEQ1jkLjxo11+ow94IDNyMDFWni8XJbNVvPPvHY8Vgc/ltfAtlfZvTB6Hc0pUuY2bCv4/YWqDZnzl6vC1velIjwGTjMZvU+8DjweW14PfjefKXvAPHBbwvtm6Z6RqtpdXcOhwpmSmoiX//E7nDp7tMYLUPPChoVGYsake3X5uMPpb+NQ6rtKPOP1+65O3hje8D009BqD9zc9h9MJ+9V3WTcnaI1wUjTnKNEcpkTTz5drhJY9qGlpaXjhhRdx9MhR/ZBZwpxyMnHSRD2naX7AfhbNbUo08/Q+4u3pgwfvewYD+4w27ald2IlcunRZ19o9cGA/YmNjdUGGgoKyDoYbHxxzc+P5ObNzdXXV504h9fcPQJs2MejZqyc6duxo09KAnFv+79v/Nb2yLTwXdoqhoSGIjIzUa5y2a9cODRuWn04wRnJSsp4LP3HiuGlP7TBm7FjdHstTVFiEPXv24N13/2faUzW8d7ffcRt69uwJV3WPbcVudR8XLVqMuLiywXJVNG/RHI8++ih8fGy/CATb8Btv/AtHjhxBSbGxfozP9M3jb8LgwYNNe64f9jG/f+JJQ4JkLWzTrq4uCAoKRkREuF4cok3bNvpnTYTtbfXs7d+/H8XVxLR4qYH02HFjMG7cONOeuotDhfO9uX/Fuu+XITcvx7SnZmjxDInErFt/ozrZXjiQ8oYWz9ziRP1+sEcb3Nx4JTJzivHm+keQnWeddWtUOMuLpq+P30+j2+zsbPzxj0/h+LHj1QY/maFwTJ48CVNUR1U+ECgjKw3/fv/P2HtAWZr5P4sm4WeaNGqGf7600KYdk7VwxHvw4EGsXbMOR48e1WUAWfavqJzVZKmJmc+XP81Vj8LDwzFw0AAMGTJEPbgR+v3rYdOmH/CiGsjYCx672cqiiPIcWrduhVGjR6F79+6G71F8XDz++tpf9Vqstcn0GdNx3333ml6VwWXufvzxR7z00sumPVXD69G5Uyc88OsH9EDCVvyg7uOHamBx8VL1UxVt2rbFK6+8BD8/2y94f+rUKbz0l5d1wJ9R2CaGDx+ORx/7rc0squTkZMyccZtdhNMM2y2PlwNbCltUVBSGDR+K/v37w9fX1/Qpy7zwwgvYunWbHnxVBQu7sN3ddttM0566i239KNVwJeECDh/fh7xyizbXFDaUhKRYfLzwTezcuQOdg36H9kH3wdOlLIczNf8EDqe9i1C/UHSPHq4Ezvamv9k9W1E06ZL9/e+fxLFjxwyL5sSJE3QwUHnRzMxWovnBX7Bn/5ZrRJNQjOISruDr5Z+Y9jgWWtEHDhzEKy+/ildfeQ0//PCDtgIyMzNRYHKl8RiNjMvMn+O/oRCzQzh+/Dg++3Qenn7qGXzx+Rd6dH09mL/DXhuPndeEVjaPlRb35s1b8Pe/vY6XX35Fl1c0Cq9YZd/hyK0y1DtlPyv5fMWN1+PgoUNYtXq1nrKwJUaujz3Ztm0bUtNSK/3eqjb2C0xHY8UwW1PZ99lqY5vOUwPh9PQMHa+xb98+vPPfd/H8c89j65at+j4bQf0pfeMq+47yW33BYcK5dOU8XIk7b7OLwzzQ5JQEfPDZP7B77y50C/6jEs974eESpO5PCfan/BtZhRcwocuv4esVZPpXtsEcCMQ5TbpnzWJHoXzwwYdwSj0cxUWW3cNubq4Yf8vNmKlGWOWLG2Rmp+M/H7yE3ft+VA9c1fNJBYX5+H7LCkMCbUtSUlIw95O5eOH5F7B9+3b1UKXrB8yWDZ8PJEWInc3cuZ/iL3/+C3bt2lVvHi4eJ68J53o3/7hZDzBWKxGpT53D9cJ2+e3Kb7XQ2GsuztHwPPbt3YfsLMsZAeXhfedgar8SnvoKz4H3NCMjA/v3H8C/3nwT8+bN1x62XxoOEU5aRqfPHFMjF9s+PLyRaekp+N8nf8P+A3vQI+Q5tA+keAbqdTs3xT8MOBVgWo/HfhKlyuB7FEMWTnBz9dSLY7u6uqmr46z+d9Hvmf+9q4srZk9XojlkgikQqGw/R5S//vVvcO7sOT0RbglGz9500016lRPWmDX//YysVPz3o1ewc88PKLQQUMTzT05NxLLV80177AvFjG6qV5UIfPHFl1ow7S3aPEd2VnxQ3/jnG1j09aJ69aCaO5sLFy6owcanWLxosaH2caNAa2X+vAW63Ri1Tuoye3btQVxcfI3OhZ6II0ePXrf3pC7A809KTMJXX36lPUMZyiL9JeEQ4Vy3aQmuxJ83vbItZeKZjLc+eBF79m1D96A//WR5XsnejAs5K9Epqh+ahnU0/QtKnRNcnd3g7e6HJsExGNhqEuYMeBHPT/gKr0xejpm9n0Sgdzgm3zwL/3xpPu6f/Qf06T4EDRs0wazpj2D4kKujZzmv9+ijj+H8ufOGHihPTw+MGTMGd86+U9eeJTyPlPQkvPfZ69i+e6OyVixH4ZK8vBz8uHW13Ttjdv6HDh7Sbtm9atTM1zxmR8Hryg6L5Qrnq1Eu3X+O/P7rhcdKV9fSpcuwbt26G0JEjJKQkKA618+0K78+3bOK8J5t37FdexFqAs/90qVLOHTosGlP/Ybnw0EsPSnLli9Hbs6N4VUwgt2FMzcvG2eUtZmdbX1aiFF4A9PTU/GfD1/G/kO70S3wWbQLvBvuLv7YHPcECorTcFff5+Dl7qutyXD/xhjSdhqeHPshHh31NiZ3fxidGw9CkHeoft/NxUOLq5urBxo3ao7Rwybh8YdexhsvL8D4MTPg7xdg+uayUeRTTz2N06dOGxIvRhuOGDkCd8256yrRTE5LwNzP38LW7estWprl4b9NSUvE7v0/mvbYHorkgQMH8Nprf9Wu09rq9HmunENdtmw5vv5qUb0UTxbDWL1qjQ6kqk/Hfj3wPPfu3YcVK1ZqN199hV6DU+o5pxVdU+Ji43D48CG7e2ocBe8t7+n6teu0S/6XMiC0u3Bu37URl2LP2b2T4N9PT0/B2x++gsNH9yvL8zktnoUl+diZ9GcE+4ZhdLvZuKnTvfjDuI9wc6f7EeITqcTVU1mf7qYAomvduXShsoyeu5sHPD28tKvWTGJiEl588c+Go2cZacmItDlz5vy0ygnnahNT4jD/63eV5bim2jnNqsjMTMd3P66wyzXmg8DAln+98S9tMVn7HTxHN7eyKFNGOPK8+dPX10dZ3p46QtpaOPe5YsUKrPhmRb1ze/F6Hj16DBvWf/eLmhvioHLJ4iW6TrORnOa6Bts9U3GuN9CJonv69BmcP28fD1xtwGvDKOcffvjRqkjj+ozL8wrT7zaHorBq/dc4cmKvw+Z1GLW77/AONI1qhS7RM1CEVFzIWov2gfejWVhHRIe0UxZlmVCa5xWthQ2FIvL3v/9dFzcwIprMJxsydDDuueeen+Y0mcvK6OAvl32I7zevrJFoEnbGnIvt12u4EiPblhrU5/m313H2rHWDHw8likGBgTqXsUPHDujdpw/69umtfvZCl86d0aZNG0Q2iISbO5Pky+4Fg2mMws9evnJZ506ycIKldA92VN9//73pVdVQ4EPDQhHgH6BFvrqNAwB+nqkGvAdG2zg/xzbTsGGkPvbyMOhk8+bN+rpXB69XaGgogoIC1bFwQGLbjXm0HTq0N31bGTzuixcu6tSemsBzPnfuLDp16qSOu6wkpbVcOH9BWa97LVquXJd2xIjhOr3JFnCwtmTxUj2ItHbwWBEGDjaIbIDWrVvXuA8inPv/+quvLR4Pr0FwSLB6HoPUva28LZs3tmmmhejrpg6tuvSRiqSnp+nnnTm0FQfEGzd+r93U1VmkfI7YV7Dt1XXsmsfJggdvvfeiLhPnSNgYuSrJw/c9i44duiIpfxca+QwxvXt98HLR3fbvf/9HP8DMbbMEG+LgwYNw9z13/xQ9S9GMT7yMRSs+xXc/fIOCSlJOrCHAPxgzJt2Pm0bdatpz/fDB/M9/3sbqVaurbfDl4QPHDr19hw7o27cP2rdvp/O9+CDxvLnxGpqbHTtjusC4zNqWLVv1taU71igU4HvuvQedO3eqNj/u++83Gcrj7Nu3L+6cPUvfM0uwgg6tRh7//n37tSVJwTMioMyLmzJlCmbdOUt3GGaYx0mXOJPFq4PBZY8//jhax7Q27bEtHNxxKw8tRUYI/+UvL5n2WA/vfx/VLn77yCMICw8z7TUO8zhZIMKSZdO2XTub5nFywfn//e89nD1z1rSnclzdXC2KDZ+F0aNH4d777tX9QU0x53Faam/t1QBo6tSpaKEEzRI89pzcHMTGxuHIkcM6gvjKlbhKU+IqY8yY0bpNN2jQwLSnjOeffwHbtm6rdnDMZ27GzBn1Io/Trhbntt0bsXXnBmRlO35egzeawj2g12gE+7RQg6fKXYIUBAb3sMNj8AJ/MpiBGxsmO/Hi4hKdb8kGzweWBduNi6Y3Bg8ZfLVoqu+kaC759jNssIFokhL18Li7e6B/7xGmPdcPLR9GghoRAp6Xf4A/unfrhhkzZuCmm2/SDyotMnMSNa+feeNrbnyP1kc7JbAsFODs7ITUlFQtSEbGdEyNofC0aNGi2oRsoxYnrYDhw4Zp8WenW93G46Zlw++mGEQ3bYq4+Dhd/cfSsfOaBioLoHVMjBKonwPNjFqcLuq6TZw4Ea1atfpJ5Gy5cQDEe1oeHvP1WJxmYq/E6nsW0yZGP1fWUBsWJy3lVatWaRGx5GbmQIbWaXUCwbbBth8dHY2GjayvLmXGqMXZOKoxBvTvj2bNm1XajstvAYEButwnj62bepY7duqorzX7RiOeNU5rxag2TYu6PDeaxWnXOc5zF08hNd22yc9G4eLRQwfcBDclJk641hJhJ0Bx5LwF58reeuvf+POLf8EzT/8JT/3xaTz91NN47tnntJty4YKFyhraogu1v6dGnfxZkG95noaiMWToENx7b9nIsrxoLls1Hxs2LbeJaJKiokKd18ooW1uQlpqGBfMWGHKf8rz4sDFSmAOEXr176TlMdg4VO9/KoJCyA6XrcubMmepvzNGCwH9vCV5PWkGHDxurB2wJHq6TEm8et5GNx07xZwfdvXs3PPzwQ2jWrJnpr1VPbFysGs1fNr2yDvXtlR6PLTd7wWdvyZIl2LZtu6HBUW3D/MuTJ05ZnJPmNRs//hbt/bAERYRFPhwx38tbWfHeVreZB7bmASkt4959euv3LEGPEQd91QnkjYDdhJMdOC0+oya+LXF3c8fooZPRt8cwuDEfswKcoGft0gXzF+ryZh9//IkeTXJUxdEVH5AsNfJPUZYP5zSWL1+O1//+D7z80iuG19Nk9OzQYUP1nCbnDtjotGgmXMbyVQuw7vulNr02peo/5oCyDrAtWL9+PU6fOWN6VT0cFIwaNQqTJk3SJbmMCmZF+G/ormEN4tl33YmWLY2VamN6AAMTEhPLSi7WFjzvpsrqZKF+S3OuJCkxWQ3eaveYawtaZZ/O/RRnThtrY7XJoUOH9Hy6JZEPVoPHPn166Xq0FJ/qYB/DvoV9Tl2GzyTjCFgSNCQ01LS3auihS1DP4fVEHtcH7CacF6+cQ1Ky4/O2eKO7d+6HUUMnqk74WtcdhXHN6jX4z7//jZUrV2pxpFVFUat4rHzN/XRRsKGnpacZGiF6eHpg+IjhSjTvvko04xIvYfnq+Vj7/RK7DCgyMtNw8Ohu06uaw2u0apWxKjccIPTu3Rujx4xCWFioxQ7DCIy2ZQDJ5CmTdM1aI3DgwwAmIxayPaF49ujRQ7sKLZGTk23RirlRYdvitAerQnFKpK7CaRwu1JCSnGLaUzUc8NHNTfcmXf2WYHQtC0M4uo+0FrZpBv107tzZtKd6MlX/IcJZQy5cOq1dh44mNCgCt4y5HUGB7LiutnrYSS1bukwHF3C5KwqiNY3WyGcZJTpm9GjMMeVpUjQZXWx2z661saVZHlZmuhJ7/WHurEd58eIF06uqcXFx1i5VFjJv1LCRPldbQUHu2rUrhg0fpoXUEhR7zn1ZE1hkL+i2bRodbXpVNRR5djA3ulurKvg8Mfdv2bJv6mxHy/xsDsgsDZgpLsOHDdXPAMWzpxo8WYJTRSdOnKwTbdYSbNNGpyDoTXCEC7o2sZtwJibFagvIkbDRDuw7GlGNKl/65pvl32DBgoV6FGmPUR5rz3JJnLvuuks/PGbRTEiMxbJv52H998vs6rouKi7SgVjX0xHzuny/8Xs9D2WJgIBAnV7Srl1bPS9oa1j0fsCA/oZdtrQ6U1NrP6+T991TCb8leK05eDNyrW9UeP58Lrds3mKXZ/J64LFx6bDLly3PQzdp0kQvu0U4N9ivfz+LgU/8+5znZMBTXcfJyVlXPDNCUVGx4eXW6it2E87snMyr1o90BMHKyuzVfRD8fK8OoyeM6lq48HO7jWz5kNwy4RbMZhm9ALOlWarzNBetnIt1m+wrmoQinZObhdS0ms+bsf7s4cNHlPhW34nRJcvOolevXlZHRhqF15BzpgxMYGdkCXZwDLapbXct73tauuWybLyG7uraVTbIq+9w0MPgOCNkZKTjyy+/0iJSl+D884mTxizCIUMG/9RGeT9btGyhI1MtwdrWp0+frvU2awlG7RutR8tUKyNz/PUZuwhncUmxMtXzVefr2JF0l0599CLXFefZ2PA/+WSudufZAzYSLkB9++23a/esGQ4elq78TEfP2ls0zWRmZeDcxdOmV9bDlV1okVuCnSIXna6YwG9rmGLStm1bJaCNTHuqhp0PAy5q2+3HYKXz5yxbEexoWbDCFvPCdQ16IThP7W0gH5YeEpZyZMFwWy9Bdj1wMfGzZ89a9OBwWoHrU3KgZ6YsyK236VXVsG86pgYMtR3YZok81X8dP37M9Kp6dFEQJZ43MnZ5YtMzUpGZneFQ1wtHeZ3b90Kgf7Bpz8+sXLESl+xYCorCOUkJp3lO0wzFcu/BbQ4TTcLawPEJ1S/yWx3HT5ww5DpkDiMFzV7WphleT65A37JVK9Oe6mGUZl5u7Qkn3W8b1m8wVAiceXP0TtQEduZ0IzKlwx7b9T67DOriav4xMa0NWR+cE2PEOlPDjESt2xvGQxw/fgIJ8ZbjNNq2bXdNPmZZelJ3+PpVv9gzrzODj86fv+DQ/tIaOCBluhcLfFiCg0BG2XMwcSNjF+FMTk1w+PxmgF8QwkIaqI786pEOG+O3366yOGq8HthZVpawTlGJbtzC9Mox0NJPz7AcAVgVLBRg5FpxDpc5Xo6AIs1gGyOW2ZXLsbUWmMDrtmHDd7q9GekEKS4NGkSYXlkH29zqVat0Soc9tuudd+WAh4Fj48aN1VVkyg8oq4KejvVq0MG83NpGF3Q/ecqQiA8dOuSaASQH8pENI9EmpmzeszqYksLo2roYYc12QNH8+utFhlzWfFbZro1MrdRn7CKcWVkZyM11bCOICIuCt9e1o7vjx0/a3Q2irYwN31/TWXp4eKFLe8vuGlvCQghZOZZdrVURFxtrUTjZKQQHB+maro6AUbUsz8aiCpZITEpyuHCyczl54qROrWDwmaWqP2YiIyPRqJFlF3RlsK1dvHgJJ06csMtmi4EmLc2ePXvqfObyUxhVwXNipCmtTi6cUFvw3ClkrKtriSD1HHTp2rnSgQGnGRg8ZwladEeUONWlnE7eCxYzYA47p7mMrubDmITwiHBDA6X6jF2Ek+5CRwcGNWoYDR+fa+tSbt68BYVK2OzN/v17r+lsWIihaXTMTwXlHbGxcRcZXMuzIvy3jEq11GlydO0fEGh3N60Znpe3t0+lebkVyc3NUe0v19BDXhkUIy5/tWTJUosby53NVZ3KP//xhi7DyFQnTgkY+W4KCUugcYReU3if7LXZCooH67J27dZVuy8tQRHhdMHSpUtrLb+T86wnjp/QgXKW6Natu76HbKMV4flyOsNITi/dwlzPl4NwW8MgJ5abrKwNV9wWf70Y8+bNw5v/egtvvfmWDtriQhYsTG8JeoRatWypU9NudOxS5P27H1di4aJ3ERvvuCVm7pj2EMaNnAbfCuL5pz89h21bt9q0M6gMTogvXrLomvmcHGX97Tu0Q/1m3+83w5VGwkMj0bypZRdRRfjQ3n7bHRYDNNgZ3jx+PO677x7THvvDHM3/vv2OjkC0xN/+/ledrF0+WtVokXdat35K1Iy4hUtVm+Laqdk5OdrqZBsz+jjx+O5V169du3amPWUYLfJub75dtfIadxsteaNF3qdMmYzpM6brUoy8Jpwf49J0Z86csfgsUoQClRhNmHALZqi/UX6A5ogi79u3b8cH739osa3xOF948Xld+KB8WytPUmKSLg7PSlzVwb91y4QJmDlzuiGhJUaLvPM+8pl1M+I+VfeKgxdzvV1r2jRr4s65+y4MGDjgmutxoxV5t4vFybQIloBjY3DUFhgQBA/3a0e0XK/RDmODa6jKPcioyQ4du6Jt+84O2dq064jIhjWLdOU5GLlWfCi8vR07+c/SiUYKIZD8vPwa3/O8vDzV2SUigcX+LWycAkhTVgmvGzsvo99JC6VHzx5o3tzyahU3Anw+W7VqiWnTpunAEUvwOqar55b5xMzvdCS8/1ysmrVkLdG4SROdY1yVaBJ6Fnr16lntZwjPmYMlrkpia9g+GaxWWRu+ZktI0J/ldbCmTXNw071Hd70qkqVzvRGwi8WZmpaE+MQrKCh0XHRck0bNEOAfoh/S8vzmNw/jxPFjNe5IjcLGsvLbFddYnMnZsZi37VUUFjnGde3i7Io2kT0xpsNdpj3G4cNy56zZFl1k7AwmTpqE2bNnmfbYnwMHDuLdd97FsWOWI/teVpYGIxrL3wujFqe9YQfDog5333OPLmpfkRvR4jTD+s9z587VBQ+MBN3wWnXr2hV333v3T0Uw7G1xMir7o48/NiTY0269FXfeeYf2NlUF+52TJ0/htVdf0yk31cHzfeCBX2H0mNGGolKNWpyOoEuXLph912y9hmtl3hqxOA3gH+CH6GYN0LxlpMM2Xz8vJZqmAyiHj7KMKoqpPajKtVdYlI9ziQdxLvmIQ7bzyUeRlFWzFTfYURqpAMQHNTfHscFf7LRzDeZncm7JiKvV0fCY6JqdNHmyTrH5pcEl9qZOnaJzPI3cH3ayBw8d0sFCXK3H3lDkGFVuJDCJIsc8TUvztux7QkKC0bmL5TqvPN+9+/bVqVxWI9BzcvPNN+nUo7r43NkDu5zlpez1WH9lDpZdGOWwbW/y68gpujaakdGYjhBOjpYqo1j9V1hKFyjnChywaRd5zVwlbPTeXt4WrxfnQh0dOs+5RK4/aAmeA0frjrjn1kCPRIcOHXDXnNlo3drYkmk3GrwnnL/jMlXlLdHq4D3fsnUr1q5bZ5fAmfLQRcnqRZzesQQXUG8YGWnoPjJ1i3PaRoKjDuw/oN219o7JsBWsXzt9+q26upeR87tRsItwliihyCq6hNSCYw7bruR+j7zia0dqgwcPckgn1UyNuip21kUlhYhLP4dSC+XrbImLEk0PF2NzgZURHmY5lJzWH91EdO06AloCGZmZyuqwXFQgMChQz4XWJeGkkA8ZPBi//e0jNisawQECV/bv26+fXTZ7WQ68L8zvpFvPyHPJe8+VSTZs2ICdO3ea9tqHy5cu4+DBQ4Zcn1y43FJxAzOcMmjUqKEeMFmCuZKclrBXlTNbwXNipPSvf/NrHQxktLzijYJdng43lwC4Ovto68dR/6UVnEZ+ybWNjStsOCIZd+yY0dd0NnTTnk08ZHrlGDjH6eFac+GMbNTAYqfJziwtLV2nbjgCdiKXL1+qdn7ETGhomBKmupF87eLqgtYxrfHIb3+Lhx55CE2im9hENAk7rttuuw2///3jdtkqztXbEgrm8OHDMGLkCNOe6qH1xbnH1avXWJwnrClsW3TTssSeJehd6tKls1XVcWhpd+7SxfSqavhs7d61EykpNS9iYk/YN3AQwMXmn3zy9+jUqaPhoL0bCbsIp7drA2X11Dw/rSbkFMYqCy/H9OpnKJodO3QwvbIPPt6+OkqyopWTX5SL43H2HSVXxNXZHT7u1xa5N0rz5tVHCZphweezZyx3MraALrRzZ8/rTsUSTRo3BotM1yZByuodMXI4/vSnZ/Daa69i2LAhOqDKllYc2xo7cLoB7bHZGz6XDISJVoMJI9BNu3PHTqxduw5Z2TUv8FEVLFpx4MABQ0FL3ZSlRVezNV4N3n+6d/0NXFuu08lni56duoC5rfXq3Ru/+91jeP311/Wi9RwM2GogWN+wS1RtYWkWNsU9gqOpH5n2OIZuIb9H15An4OV6deAF0wbunHWnaoi2X4GAjWrmbTMxa9YdFSzbUiRknMfLK2YpQXfcfEWYXxQmdHkAXZoMNe2xDlZMeezR3+k8rurguY4YMUJZUw/b9eFh89y6dSv+8fo/tYBagq4jlnmr6DoyGlXLFV+6deum11U1grO6/xxxcxkxLuQd1TBKWe1lc1+8RtZOExiNquV80mt/fQ0dO9p3UFie642qrQjvLSvS/OHJ/7PY3sxw8MF/Z6nbsiaqln+LbuB//OOfSEywXGWMAtKhfTt1f62b00tMTNAFWYxUCBqprPF77r2n2pxOo1G14RERen6dQUpG8VJtmgvyBwcF69KBXMyB7ZnPOr0R1gwayI0WVWsX4aRoUDgPprytfnOcaAS6t8KYqM8R6tnVtKcMnuIbb7yJlStW2HzSnSXT/v7633R9xvIUFOVhzZFPsergx6Y9jiE6uC1m9X0GDQKbmvZYB0f2995zr0U3LB8czlXd/6v7tDvcXnDQs3DBQixdusxiZ0kxeenll9C5c6drrDujwjlkyBAlvg9YlcZg7kT4neatpvyShJPweVy8eCn+9+67Ng3+sUY4ORWwdMlSXVrOSHdI4bB2QET4t3mORvqgwMAAdZ3/otf4rEqkjAqnThWZfSdi2sSY9hiD38u2XP5nTZF0FEM4wc3ZFy7OjouycnFy1yLN+c6K8IbTLaQXXL6Om1+RAP8APPjQQwgOvrZzyMpPw+ZTy02vHIenuw9C/Wte8oqdQv8B/S12/uwEmCS+VT0M9goSYodAlxUruRjp0MrKm4Vel3C5uDhrUbJm40icG6/d9Xz3LxFer7FjR2OwGrDU1rVj0j8rUxlpY4TiR5eutRsHHkYH7unpGWrwdEBZ4pYjyS3BNs32WVnbrW4zt2kOEmzZb94I2K2lertGwN3Z/nMlTL3wdgtHtN8YjGj0CTydmmhrr6KAenl54qmnn0J002jdGK4HNiJWf7n3/nvRqVMH9feuHn0WFRdi+5lvkZXn2Al+ltvzdPOBq/P1uU4HDRpkaMKfqQKcd/ph04+GAneswSzM365ahXgDSzux0+3WvRsCAixXphHqFgyyYSGByiLT7Q1FkN4V1oqtS7D9c4qCi3wLdQ+7CSfdpj6uDUyv7IETPFwCEeHVA/0i/oq+oW+gND8CKw9+gl3n1iC/8NqRGt2pf37xRe3Kq2n4NEWX7tlf/ep+nepSWWRdXMY5bDz+peERrK1wc/FAoPf1J9azSkunzpYTts3itmbNal3Rx1auNv5dzmeyMDXdO0ZG6Q0iI3Wko5EVVIS6BcWSS4/NmTNbB1Y5Ekav7t2zR1uEdQ0ucM1IX1u6sAXbYDfhDPfsAX831uK0/QjS1dkTgR6t0T7wVxgY/l8EOw3CgQt78OnWl7Dt1Ap8c+A9nE0+hOKSqxscH1BOdD/5hycxdswYnbxrNOePgknhpVXz2O8exSAlmpWJb6ayMr/e9QZy8h2fh+Xl5ouo4NamVzWHrhkW2DZidVLUDh8+giWLl+j1C683EpB/j53Zdxu+0/NORv4e782A/v31Ml2OtlgE28B72KljJ9XuJliV5nE9cIBGN+2+vfscPsg1QlFhoS79Z6Twh+BY7Cacnq5h8HaLgIuT7SIuneECP7coNPMbjwERf0dr3weQkJqFpfvew4r97+Ny6ikUFucr8UrFyv3vqdcnUVJ6tbXCjpUBC3fdfRcef+J3Ohikfft2utPlCgL07bu6uWn/vpcSRn6WBap79uqpK/8/8cTj6Nixo/5cxU46tyAL3x//CmcSD1Y612pv/DyDEBPRzfTq+mDIPZO8jQgRR+vbtm3HvHnzsWf3Hh1sUZOOiO7ec+fOY/nyb7BgwQI9z2MEut/79O1tqIC4UHfx9vHGqFGj0KtXrxoF31gLBYnLh8XWoXUwK7Jz5y4kJ6fUSWH/JWM34XRSf9rPrZmN8jnplg1CpPcAdA35A7oH/RmleU3w44kVWLT7LRy+vAU5BRk/iSQb2fnk4/jx1BItpBWhGNBajImJwUMPP6jnPu+6azbGjh2jF90dOHCAtihHjhyJqdOmKgvzMfzf//0BQ4cORXBwcJUP9enEfdhw9HMUlzq+6DLX/PT3DEGQDVy1hBbAzJkztQvNCAwQ2rFjBz788CMtfFxGimt7GqnCkpebh4sXLmLLlq34SP37r778ShdYMNJZcLDDZHp6D35JgTm8NhywsPO3x2brOWsj6EFtaAimTJ2MFi1amPbaD04HsM0aDdipDRhVzgjr2rgfQtW4PK8w/W5zSlGM+NxtyC66YtpjPXTLBnm0RauAW9Eh6CF4lXbA8SsH8J2y7A5e2qyjV0tKru2cvdz90Cy0I1pFdEVCQiz8fK8NVOKDyrwkhkEzf4/1JLkEUF9laXHr0aP7TwvR0sKsKrosMTlOveeMxOxLuJByDNn5jp/Q93L3RZfGA9G6QQ/TnuuHifDu6vocOXLYkMuUHRAX/2W9z9NnzujC3FlZWTphPTs7Rwlkrs7X4yoZrAcaFxevK8Hs27MPa9as0QtBs3KLUXcvvQL9+vfTeZt0o1dnHXOuiHOmlmjevBl69669upvZ6tps3rxZJ+RXB8+V87kMnOIyWLbeSMUUKw6COMDZtOkH056qYQQ7cwetjSXg4IcpJHTXMmDHaH5nRfjMjhgxvMr7yHlDWpuLFi021N44bcF+gsel83avc+PAlM+LEdHOV8fXX7Vz/rvycIDDxdQtDTC5Cg9TxkLDQk17HM/Gjd/reIjqzpfPc4eOHbRHr65jpzzOMgpLMvFd7H04lfG1sgatm+CmxerjFokon2Fo6jseIa69lRV5Gvsv/oBjsTu0hVlciWASHw9/9Go2FiPb3Y5TJ45j07Y16NN9MLp06K0an+1rKn617EP1QPlgUL9ROJ64E6sPzUVsumOq6pgJ92uMOQNeQONg63K1LMFi7rQiV69arR9Uo3CQwc6BnU1EgwiEhoTq6imubuwwSrWIpqgRf1xsrM5HY6fMzsxoc+Tfb9++PWbdeQc6deqkv6s6jOZx0np9+JGHrV6OylZYs6wYOxpnNWCzB9OmTcVdd129NB0FxtZ5nFWRlJSMRV8vwvLly2sknpbyODnAm/fZPHytvsMSHKT07t0LrVq3hquNXMhs+3v37MWFCxdMe6qGgvnqa6/o9l7eq2I0j7N79264++67dU5obXGj5XHa1eJkbmVawSkk5e9HUYnx1TTcXXzRyGcw2gbORoz/PcjL8cW+Cz/ix5PLcCpxP/ILc66ZuzTj4xGA3s3HYVjbGXodzrmf/xuHju7G4WO71QPgrIUzKKBmD/PPlCI1/xji87bBx7URTp0+hkXL5yrrzB292g1DoG844jPOa2vYEdBNGxXUGsPaTVe/27YjpUUeHR2tOxqG7RtxvRIKID9LFy6DfTjaPKusUFYmOq02WpqsoML5UAqmNe4ydh4svjB5yiSd3G3EOrzRLE5iHmzYY+PyZ+xwy8Pvs7fFaYZiERwSjISERFy+fNnwgMpMdRYn/1asGrAtnL9Qt2tLBAUH6RVARo8erS0iCtj1bmxnXD6Mz4Olc+P98Pb20XEH5aeJxOKsPew8KeSk8ysD3JqZXlePs5Mrgj3ao1PwI+gR+idEuN2Cg+f3KwtuHjYc+0JZcWdQVFxQZeCNr0cg+ijRHBJzK04cO4r5X/0XFy+fUaOcfCSnJOKLJe/jwOGdSnQLkZJ/GHnF1S/YXJGi0lzE527H0bSPsCvpZWxN+CMuZq/F0EFj0SC8Eb5cqiyz9YvRKqQbRra/A42CLK+GYAuYu9muUR81ULF9YW6Otumyu1V1HEOHDrE63cMsoHz4C9Rok1YLN448uc/aDpGWZWs18p80aSJ69OjhsAhMwbFwcBQVFYVx48bYfL6T7Y9rbl5SgmyEGNXeOHjkIIBCbIuNz1Sr1q0Mp9/QWjOy3JngGOweTRHs0QEhnh3g6lx9B+fpEoJ2QXcrwXwG7fweQlxiLjYc+RxrD8/D8bhdyCvMrtLKJFo0W4zDoNZTcOLoES2SFy6dVp12mYuYa1WyA2/RNEYJZooSvpewJ+lVHEj5N05mfK7nYrMKL6KwOFN/luLKZcqS8w/iXNYKHE79H/Ym/Q07El/EtoRncCrjSyW+x7Av5Q24ehZg4k13KlEvwqJv5mL1ukVl4tnudjS2QXpIdTip/wK8QtGlyWDTHttj7sToRhkzZgxCa+h+u15ohXAe+tZbp5Ut6+TrW+28plC/oQVCy3fkqJEICbWdtcT5dlr17A8sQY9LO2UhRkREmPbYBlqOXAC6aVNjpTHj4uOwb99+qweagn2wu3A6ww3N/G6Bn1tj056rYeWfJr6j0TPsWXQN/gOcC2Kw8dgSrFGCuePsGqTnJl2Tj1mRMtG8CQNaTdKW5lfLP8K58yeURXO1P71RgyZo3aotLmStwpmMRTiQ+jZ2Jr6gthe1IPLnziT1Oomvub9s4+871L49yX/TFmZOcRyKS/NVIy5GXM5WnEj/FF0798TAvqORlZuJZasWKPFcjOZBnTCs7UxE2dHydHVxR6uILgjytu2DXRE+6Cz8MGnyJEyZOkVHJJd3G9kTiiPddsOGDdMF9Xv17iWi+QuB97lPnz4YMKC/HjhdL3QV0vV76NBh057qYVR5S2Xxcv7N1rBwOouNuBtYzYfHvW7tekNiL9gfuwsnaeg9WLtgOedphp1ekEcr9A57Xonmn9DEcxp2ntqC1Qc/w6YTi3Al7Yyy/qp2y5r5STRbTlCW5lFt8Z1VollYQTTJ6GGT1RkX40jaeyhSwsdlyHKLk5FacFwJ4jocUwJ4IOVtLZD7Uv6prMz3cTZzORLz9iKn8AoKS7K0JVp+1MfXB1PeRUbRMUwcdztCAsORmZ2OlWu/xOq1i9EssKOeb20cYp+JeR9Pf33+tDztDS1PuphGjxmNO2bdoX9GGExXqSnsLLnm34zp0zF12hRd1JzuWRHNXwa8zxER4Xq+srLi/dbCFB6uhMIFo43ApcCilMDZo71RjFu2aqkXjzfC0aNH7LYeqWAdDhFOd2d/tPKfCW/XSNNrP3QIegB9wl5Cx+CHcTk+E9/s/wDfHfsSJ+LplmXwj+WRlVk0+yvRPK5Ec8mKT3Hm3DEUFl4bXu7vG4i+vYYjJe+wFsKfUdKsvosCSCuS85gUVL2V5ql9SrxLi6oV8Kyii9id9Fc0bBCFaRPnaBFLz0zFqg2LsIbiScuzzXQ0CbateLImbfvIPg6bSyXsuBgdy1Sd6UrMZt85C6NGjdQFJK63UysPBZNBAnTLzp49WyfGc4RuKXpWuPEwuzVHjBip5xqvBwZfbdm82ZDLk8IWE9MaoaH2mZqgGLdq1RpNmzU1JMyMLt64caPplVCbOEQ4VRNBY58RaOgzAM38bkb/iL+ha/ATcCmMwfK9H2HN4fnYfX4dMnKTLbplzZQXTVqaS7/9DKerEE0yoO9IHZp+OPVdZTnatoQVV2U5n70SZzIXYVDf0egQ000/mGkZKVizcakSzyVoGtgBQ9tOt+mcJ3NVB8dMU5a8Y1ymZviQc/6J0XosFEH36X3336dE7lZ07dJF53/WZIRujuClSN533724++45GH/LeB1p5+vna1NhFuoXHEgxqnTokCEIDqpZURW6OQ8fPoxLl4wFBXGR7WbNm+lgHntBa9qoK5h9CtOqmCIm1C52zeO8mlJl6e3Rv6kuF9tOrcHx+N04n3QUhcV5yuIzno6gRbP5OPRvNfEn0Txz9hgKqhBNNxc3vPHqQoSF++Gz02110I/tcUKoVydMjt6IY0dP4sW/P4KCgnwlIM4IDgzBiMG3YNTIiTiXdkhZ1l/gQvIx07+rGUxBGaqs2Aldf23zFBRr4fwLI2SZWsL0gaSkRMTFxum5pMSkJF2hJSszG/n56j6bwtG5CLCnpwcCgwLLFsuNbICoxlE63zMsPAwh6iffp1jawk2mV/jff9D0qmoaqONo0yZGi3htwBSDQwcPISXVsSvrVIQWHlN+ysN7x9quBw8cMu2pmiZKdJo2jbap6LCrYp7r6dOnLS63FRDor1Mwyt9HHv8lK1ZCCQ0L0RG99LDYkwsXLpYV/si3XIjB2cUJAwcO1ANXup11apCFHpzxAS1bttAD2tpi3759um8wP/+V4ebmqtpdCzRTFnhdx4HCyYZfjMTsy1hz8BMci92NzPxUwxamGRY3oGgObDVFBwItrsY9a6ZD2+74y1PvYF/q37El/o9qj31Omek0nUMfQw//F7Fg0Tt6vrVsvzOCAkOVeI7H6JGTcDbtML47ulBXGaopIb4N8ciwfyHEr6FpT+3DpsQHgxvzNzmPRPcSfy8oKFQjflP6ifqf7jcXVxcljmWVWPx8fbVVSVcshdLW1iWPyUhgBb/XUUFPlcHrw+N04GNZKVVdh9q+jqUl6vqUWL4+bEOVufWNHj/hOXCzxcCtOszPjNF7bn5G+PGKAZCVwc/yXtj7PKrDnHpW3Tmaj5PXvK7jUOEknL/817qHKi3Abgld3KDZWAyOoWgeU8L0iRLN49WKJpvKs0++ie6dB+CzU610QQZ74uUagVsar0BeciD+/PqjiEsocwuViSctzwkYPWoSzqQcwPqj83VhemthA7uz37PoET1C/V43G5m5WVX2sPC1+SEu/9P8uyAIQl3G4b2up5sXhrWZoZP2rcHb3Q+9mo7CkDbTcOr4CXy9/GOLoknCQxsipmUnXMhehYwC+0ek5RUlYmviU2gQ0Qi3TX1AjZ7KRt0cJKSmJWPt92Vzni2COmF42xloFNRSv28NbSP7oGPUgDormsQshGbLo/zGEbP5d0eN6gVBEGxFLfS8TrrTb8tKNyZRsYQWzWZjlNDchtMnTuKLpR8YEk0yevgUeHl666jXEljnFq4JDBSKy92Gk1lz0bFtD3Tt1Mf0zs/iuea7xVizfilaBHfFsLbT0TCQ65Yaw88jEFO7/xaerravuSsIgiBYplZMFk83b0zq8hsE+VjOAeTizD2VpTmy/Sxd43T+ondx9vxxQ759zp8N6DMSeSUJujKQoygszsL+1Lfg6QdMvnk2vL1+tq5ZlSg1PRmr1n+NdeuXoVVId4xof4cST8tlxZRthln9nkGYX5RpjyAIguBoas3XF+Adhtl9n4Wrc9VVMyiwPZqOwNiOc3D29Cl8+sW/cU6LpjHLsVvnAQjwC8Ku5JdRVJJn2mt/aHWm55/CzqTn0axJa9wy9jbTO2Vwjo+pKt+s/RzrNyxHay2etyMyoJqavqXKeu40By3Du4pbUxAEoRapNeFkkYDo0La4tdfjcHK+Vgg8XL3QI3o4xnf+Fc6ePYMP5/0T5y6ctCoibtK423U4PMvraeVxIKxMdD5rJTKxD727D0HDBlcnblM8MzLTsOTbeVj/3XLEhPbEyA6zEOFfeYJ3p8YDMbDVBLi7Xn/ZMUEQBKHm1Gp0CXMR6YYd3mamFlIzHkocujUZhgldH1IW5hm8N/dvuHDpFCpbsLoqoqNaIDw0EkczPkJ+cW3kxJXqBbx3Jf8ZjRtFY+aU++HscnV4PMUzMysdX3/zCTZs/AZtwnphdMc7Ee7XxPSJMlhxaFLXB+HnGWzaIwiCINQWdl2P0wgMEGoa2h6puYmISzurLapujYdhUvdHcF6J5jsfv4qLl0/rPCej0JU5a9qDaNmiHX5IeAhZhZdM7zgWumwLSrLUOfmisf9AJCbH4/KVayN7CwrzcfrsUfh4+aBHmyHw9wlEXPo55BZmIdQnErP6P6PduHU5ilYQBOGXQq0LJ+EKHy3COiItJwFRgS0xsdvDuHjxHP778Su4qJcGM25pksCAUEyffC+KPS/iYOpbKCyxfgV5W1Fckou8kmS0DZ+CYJ9G2Hd4O/Lyr616UlhUgJOnj8DXxx/dYwbDzycIeUU5mNrjt4gOaautc0EQBKH2cXgBhKpgEXWuucnKIPHxcfjnO88q0TxltWiSm0fNwIzJ92NbxoM4lfEVSkotp63YExa1bxN0Jzp4Po2VaxbpHNTKzouWMoXz9qm/Rv++I+Dq5gIvNx84O0thc0EQhLpCnfH9cY6TqSfOcMWRY3uRnBxXI9FkzuagvqPg4pGrU1C46kltQ3ftxazvkOG8F1079UWzJjFq77UBURzD5OXlYO+hbcjMSNeVkkQ0BUEQ6hZ1btLMw90TvXsMxvDBExAYyFXfrUu9aBvTBcFB4Tia8QFyixLVnrpgUJciveAUjqZ/iKgm4Rg9dDJ8vH1N7/0MRb9dTFdMGHMHIiMqX/hbEARBqF3qnHDSXRmihI+LQk8ZPxsNI5soq8vY/B5LuQ3tPw4+fu44n7UChaW1N7dZEbqL43O341zuV2gT0wHdOvfVKTOE1nZgQDD69RyOWdMfQpvWneBSIQJXEARBqBvUyTBNimdQQChGDLwFd01/WFlhneHna3lJnEaR0Wgc1QJx+ZuQUXABXI2lLpFdFIuzmcvhGZyF/r1GIiK8oa7XGtmgMW4eNR23TroXLZq2hauIpiAIQp2lTkTVVgbF083dHQ0iotCyWTv1GsjMTEN2TpaeC6wIPz9mxFR07tADBzL+isS8vShF3RJOumzzilPg4uyGVmGj4erkCTc3d4wbOQ1D+o3TS49RSAVBEIS6S52Jqq0OFj5IS0/BngOb8d2PK3WB9+ycTNO7ZQQGhOCJB19CZHNXrL1yB1LyudZlXTw1J0R69UPfiFfhmdda53AGB4fDzdVdi78gCIJQt6mTrtqKcI6T1tjAPmNw+9Tf6MChZtExcFfWmhmuQhIR3ginMhciq+iK2lP3RJO5mH5uTRDi2VFHDwcFhSI8rJE6Dw8RTUEQhHpCvbA4y1NcXISs7AwcPr4X+w5sxbGTB5Q1moz77nwCHbu0wYb4OxGbs0XJpnWLZNsTJ7jAx60BGnj1RSOfwYj2HQcf1yi4OFVd4F4QBEGom9Q74SQ8ZC4rlpGZiiPH9yExKRZ9egxFmtc67Eh8AVmFF02frF1oYfq6NkFD734I8+qJxj4j4O/WDC7OnkpM64WxLwiCIFSgXgqnGR56oRJQzoHSbXsh91scS5uL2OzNyC2OR0ktRdW6O/kiyLOdEsyBCPJog0beg5WF2UgJpoe2PgVBEIT6S70WzooUl+YiOf8wEnJ3K+GMRVLufiTk70V24WUlosbW8KwZTnBz9kOgews09BmkrMwoLZh0zbo6eZsEUyxMQRCEG4EbSjgJBbIEygotLUR6wQklpEeRUxSPzIKz6veDyCy8gLziJBSV5NZoHpQhPM5ObkoofeHl2gAhHu0Q4tkJHs7B8HNrjHCvnur3ADg5uZrmMCXoRxAE4UbihhPO8lBES6GEtLRYWaAJyFDiyZ/5xel61ZKcYgrqOfVT7Ssp20fBLUExXOCm5yJduSmr0cslTAljtBLL8LL9Tl7wdKFYRiPAvbkSU3fthi37KWIpCIJwo3JDC2d5aF2WaiFV/5Wq39XrgpIMXc+WP4tKc5RoFqj3ivV7zkoEnZzd1E93bTl6OPvD0zUU7uqnnqd0ojw6m8RSKv0IgiD8UvjFCGdllIkpT58uW0qqGf5WZjWarUc9R2kSS0EQBOGXyy9aOAVBEATBWsR8EgRBEAQrEOEUBEEQBCsQ4RQEQRAEKxDhFARBEAQrEOEUBEEQBCsQ4RQEQRAEKxDhFARBEAQrEOEUBEEQBCsQ4RQEQRAEKxDhFARBEAQrEOEUBEEQBCsQ4RQEQRAEKxDhFARBEAQrEOEUBEEQBCsQ4RQEQRAEKxDhFARBEAQrEOEUBEEQBCsQ4RQEQRAEKxDhFARBEAQrEOEUBEEQBCsQ4RQEQRAEKxDhFARBEAQrEOEUBEEQBCsQ4RQEQRAEKxDhFARBEAQrEOEUBEEQBCsQ4RQEQRAEKxDhFARBEATDAP8Pj3lWxVoYiRMAAAAASUVORK5CYII=;" parent="szmZYFNQuVA8cMRqwnFK-11" vertex="1">
          <mxGeometry x="440" y="510.00000000000006" width="182" height="66.18" as="geometry" />
        </mxCell>
        <mxCell id="szmZYFNQuVA8cMRqwnFK-20" value="" style="shape=image;verticalLabelPosition=bottom;labelBackgroundColor=default;verticalAlign=top;aspect=fixed;imageAspect=0;image=data:image/png,iVBORw0KGgoAAAANSUhEUgAAAToAAABzCAYAAAAIYs5MAAAAAXNSR0IArs4c6QAAAARnQU1BAACxjwv8YQUAAAAJcEhZcwAADsMAAA7DAcdvqGQAACqiSURBVHhe7Z0HdNTXmeg/ugAhiui99256LwKMwRjjgnviOM7am7Kbsi3JvvVJXjYnJ3vWfi+JvX7u3WAbDNg0U2zAgCiSEb1XCVFEF2Bs8Lu/TzMw+s9/imZGo9Ho/s6Zg2aQZu7c8t2v3e9W+s4gFovFksRU9vxrsVgsSYsVdBaLJemxgs5isSQ9VtBZLJakxwo6i8WS9FhBZ7FYkh4r6CwWS9JjBZ3FYkl6rKCzWCxJjxV0Fosl6bGCzmKxJD1W0FkslqQnIQ71X79+Q86evyAFBWfl/MVCuXLlqnx3o5zVGqgkUrVqValevZrUrFFDatVKkdTUWlK3TqrUqFFdKlUyv2CxWMqEMhV033z7reTmnpDtu/bLvgNH5GhuvpwuOCcXLxXKjRs3PL9VfqhevbrUrFlDUmvVlLS0VGlQr640alhfGjdKl+ZNG0mL5o0lvUE9K/QsljhTZoLu/IWLsmZdtmRuypEDh45J4eUrnv9JPmoZwdcovb40aZwubVs3l+5dO0in9q31dYvFUvqUiaA7eeqMzJqzWLK27FCBV5Eq4qUYM7ahEXptWjWXgbf1lH69u0landqe/7VYLKVB3AXdhQuX5Nnn35Qduw7ItW++8bxa8ahSpYr68NoagTcpY7jc1qe7+vcsFkvsiaugw+/2+z+/KDnbdpufK5AaFwT8ddWrVTOaXVf5/sPT1by1WCyxJW6Cjo+ZPXeJvP/RIs8rt2CxV6tWVXp07SDDh/STbp07SFpabalcufw47S9fuSqXL1+VM2fOy7G8fDlyNF/27D8sJ0+fkW+//dY8rmsfBAOz9ntG2I0fNVj7w2KxxIa4CbqDh47Jv//hL1JohIEvpGTgoL9v+kTp16ebVDPPkwW01hMnT8uO3ftl/aatRvjlyaVLl+XK1a8DCr3KlSvL8MF9ZeaMydK0SbqauBaLJTriIujIk3vx1dmyYlWmXPdJG2ER9+jWUR667w7p3KFN0qddHDl6XDI350jWll2Sd/ykptG4dX+VKpVNf7SV+2dMMtpte83Ds1gskVPlGYPn51Ij/8Rp+XD+UrlwsdDzShGtWjRVTa5n905SuQLkltWtW0fN8l49OmoiMebsRdMn/OsLwq/gzDk5bDTAOnVqS6OGDawpa7FEQVyOgGG6FRYWz5NDS+nTq4v0NBpdRRByXvA7Nm3cUO6YNEoef3i6TL19jDRr2sjPH4mwO3g4Vz78eKms37hFzV2LxRIZcRF0aCZXv77meVZEPaPdEHxISanheaViUdWY7e3atpS7poxVgdejqxH4LsEXTovMmb9MNm7eJteuVdx0HIslGuIi6DjWReTRlzRjurVu2czzrOJSu1ZNua1vd/nR9++VieOGu/opc4+flFlzF8vO3QfkRum7VC2WpCMugu5ro8058+ZqVK8mddNSPc8qNkRaW7ZoKg/fP0UefeBOfe7keP4peeWtOVr4wGKxlIy4CDoRfy0EHxTRWMstUmvXkqmTRsvjj0z3E3b0F2bscy+8XS4LHlgsZUmcBJ0/+OwozWQpDtHVjNFDVLurVs3/SNiOXftl9pwlVthZLCWgzATdufMXtTSTxR8CNONGDZZJ44a5nn+dv3il7Nh9wPPMYrGEokwF3dbte+X8hUueVyy+EJXOGDtUevfo4nc64urVa5p2QuUXi8USmjITdNevX5ftO/fJ+g1bzMK1OWJukFA9KWOYFuz0BX/d/oNHZfW6LFscwWIJgzITdHCq4KwsWrZG1m3M0fLpluKQV9erWyc9+0qgwhcKlbJJHD9xyvOKxWIJRJkKOjhy7Lh88PES+WDeUjl0OFe1FcstOEEyatgAad+2ZbFILP105Fi+bMrebvvMYglBXA71/+5PL0h2zi7PM3dq1kzRcuPNmzWSNq2bS1oql8qEV4iyRvXqesqAexmSsTAAQ7Ri1QZ58735cuHiLZ8m33VAvx7yxKMzbB27cg5jfOr0Wdl74LDnlVu0bN5Ek+uTvehFaZIwgs4LWgspFlXMv+EOLL9HefKZMybJwP49k7K00ZUrX2s/7t53qJgGx4F/koxHDu3vecVSHiFd6MvMbPl/r3/oeeUW5FbeM22CVK1qS3ZFSpmbrk4YcE5SUMgSP1Q4j0uFl+XQkVx5+c05smUr1YuTL8eM28UmjBvqN9lPnT4je/cflqtfxzagc9Fojrw393tE80AD/aYCl8wvCd98c13rFTof165xTty6J6KhzDQ6fE+c8+QOiW+vFy9TFA1cJ/iTJx+UXj06a123ZIIKJj/51R/kzNnznleK4LtSGKBdmxaeV6Ln/774jnyxZlPMNo169dK0wGqv7p30QqCmxtRmDrgdd6uI0M+fm/7+i+l3JzPuHC8P3nuHFqm1REaZzbIO7VrJPzz1sAwb0lfLFlFGPBY+COq4/e2l9yRn++6kO2JWM6WGDBvc1/PsFseO5WvNvzjsWRFz7twF+cpsdm+9v0D+4z//Jq+8NVd27jmo2rvFUtqUmaDDj9alc3t5+gcz5ekfzpTJE0bKgL7dpXPHttK6VTNp0byJ1mkL9sABz434Tk6rsHtfI5LOopblnVHDbvPbEM5duKiH/suLiUhl5eVfrJf/eXW2rFq7Wd0UFktpEpcKw198uUk1Dl8QUixaNDl+pghn395d9XJnyqv3NuYYj769ugZ88P/10urIcfPeTs2AvDwc9w3qp0nzpo2Txoyl4ssyIyQITviSnl5PunRqJ7Vq+gv+SMjcvFUOH8krVS0R/x3HAGkzUfOKbMbSz4dMf28w/e6kW5f2avJbMz9yEqrn6qTWVj8TAowabYMH9Ar6wIy7a8o4mTh2mGvJp9MFZ/XWsTXrsoy2U7weXnkFPw1FOp3k55/WwEx546wxaecsWK5BJIultChzjY5Ku9GA34qjUhyFOpZ3Qr7WCNUtWPyUNyLwQc23ZNDsEA5ZW3Z4nhWBRsDN/6TZxIJAGl3H9q1lzIiBqn2jZYR6dDK/n16/no5DoHLwaN+M0bBBfTRAURGxGl3pUu4FHSDs2rRqrv64o8fy5ZqPr4p1Wnj5sllIJ1RjbNmiSbmfMAjzlas2eJ4VgX9u6MC+0qxJQ88r0RFI0BExpfw7C69Lx7YhH107t9OoMPmNJHbznpxzdkJxh5QaNdRtURGxgq50SZqew3SdMS1Dxo8e7HcPBdoeznrM2MyNW8t9gKJFsyZ+AQm+06VLhaUeaSaPj42FkyzhPDijm96grkbZub6R5Gb8sk5Y6IuXr9GcSIsl1iTVFoFT+9EHpmktN2diLQvpxKkCefWduZrmUJ5TTxDkbkGHi5cuu2pLiQJCb6TR4kl8dgMhtyFrm+eZxRI7kk4Xxgf3g0fulokBilaSbPs/r82Wr7Yi7MqnZocu53Z7GiZtol+ek1antgzo21P9qk7YfHJsUMJSCiSl0V8k7GbI7RkjNAjhhKTiF16ZJdlbyqmwM2Yr/iwnRJadPrVEhKAQQQ0nnA44fPS4vdbREnOS1ruJsHvo3ikq7NAinKiwe3WWZG7CZ1f+Uk/cDpHgt4v+bEnpU69uqjRv1liquRxpoggrY2OxxJKkFXRAmScihAi7uml1PK/eAjP2tXc+ljXrsstXnp3R2nwjy164QrKSyyXYiQbRQ0rF13LRtjn3fOFioeeZxRIbkiK9JBikNHj9Qbl5J/T2MV/I7Tp0NE8XHb9XHvLsvvn2unz48Wfm3+LCeciAXtK+bauYfIdgeXQkdNOv0UDO47ad+/yOfxGppcYe8yMcaB+Ckbbu2X9Ib0njom9+PnDomM47cviqVauiPttYnKcOBKY3N9sdOJQru/ccNG05ILv2FLXl6LHjcrrgvI4Z/lW3YFlppJegIXMB+r79h/VsMf2ze+8hrXvHGBScOa+bS40a/m2KNbiJCoxywbjs3mPGyoyTt3/47idPFkjhFcaqqhmr2Jx991Jm1UvIrfrNr36kWkg84DKexcvW6MN5IQ8dSv7Z9KnjNRmWjk5kMO2e/NkzfkLon372uAwZ2Dsm+VaBqpdMGj9cr2IkJzEaVpnN761ZC8ziL26mUn2GYg/Mj2Dgx9t74Ihsytqmi4TxJfGYgIw3ol7ZCPzq1apphBr3BQVdyefjZEksNzS0awTIpqztctgINI620ZZr17692X8IEfyqtWvX1AKzHHXkdA8J3sy/WFYv4b3y8k+p0KSEF32MsOeY5E3LxcgQ5nmKESi0qWGD+tK5U1ttE0U2YilkiKaz/nO27dZ2cdaZI4zkfnrvPGE8EG61ataQtLRUadu6hfTv002FPGMYLUmv0XlhFyWpmF3lCA5vh+lXWHhFjuTmawpEq5ZNEzo5k5Lzy7/I9DwrgskwfsxgI7AbeV6JjtLW6PaYBZi9dZffGeVUo1mPHjFABZ4btOew0cCpgvLJ4s9luxEweUZjOWc0KRYzGjtCkIfWNTSvcVsatfH4Pl9t3S279h5Q7R3zOVrQTl55a44sWfal0ZgOaL4mG+nly0bo+rQFzYoFj7uExY4WQ1uYZ5SvQrDEQqPjsz/8eInM+mixCheCO2yM1LXDevG2hwfChpQkb5sQihs2b9O+bN+mhQqeaEDgrl6bpZVqOIbJ+58wWhul2dDki/WP+ZnxY8Pid+iLLWZ+7Nl3SOd0g/p1Pe8aGYm7mkuBOmZXnzFtgkwYO9Q/qdgsIDqYpOK1mVsSOqn4wKGjnp9uUa9eHdeUk0SEBXDmLIvP3xdXxWg+bv5UL8s+Xy/P/PEFWbM+S0uPs1jCNUq+NguK888sZkpFfbZybdh/64Tv8MniL+Tf//BXfT8q5rBgw4G/RfAgJF9+8yN5/uVZMZlvW7fvkX955lmZv+gLNVcRHHxWOPB7bPZsGh9/ulL+9ZnnJMe8X6RgEv/puVfl+VfeV2GF8HS6WoLBuKKJ0rf/y4zVnAXLwv4ubiSkoEPrYuCJhkb+uO7aMWTlP3z/VBV2ThOVSc/NZOzQ6zduSdgAxZ59/vcKNG6ULrVdkogTERbBsbyTZnz8hQxmptt5XTRwxuX5l99XDS2ahG/mBZrPa+/Mk1lzFpd4nBGYVLN+/d2PVWOMdAEy3xCOK1ZlyrPPv6nzNhLoi8WfrZHf//lFOWEsp0jfxwt/j6D8r7+8LkuWf6nrMVz4Tmjrv/vT87Ixa2uJNiI36Fv6+J3Zn8pfX3ov4HnpUCSU6eo9mL/YmAGr1m5S82lj1raIHlTDwFeCCeTMOeMaQS6GZgfDSezcTfHz4HPBV4HanEgBCtrKgnfehYs52b9Pd3Xmx4LSMl2ZuNznu+zzTNU4fKGfB/XvqX40X/g9TFUWXaBFU3Q0rejIWWrtmhpcokAA8+vGdzd0bjlhQTP+wC1r4fjAmDNvz/5EhVMoAYmpyWZatUpVnXNGDJj2F/2fE0zHs+fOG033gueVWwQzXREkny5dpQI71P3Ivu3hThaaEkwIIYS5P5g0INw+oYIVCMStO/bpvRfc7hcMTHXelwdjRO8ES3annWeNic3xQ2pWlpSECkZwIP+Pz76sfo5YwGCOGTlQfvjYPa5mHTshE4QF5Hu7lhfOzz5h/nbIgN4JE6Agovjr3/0fz7Mi+J6PPThNi5fGqp2lEYxgqjG273lKZzlBeP7yp98rJujw3SxY9Lkxp1bozu6EcW3csIG0a9tCK6Xge6tthB0L6eLFQr33Fg344OFj+tloY07YdGfOmCwjhvQL2n/cy7HIaE7zTFucAS0vCMv69epIg/r1pGGDulK/fl0jwKsYoWFMMaPJsljxmTHfwtVKAwUjELSr127W/sQkdwNBglsDHxebfv16afo+/C2Clbbgo8M3Fsh8btqkoTxwz2QZNqhvwP5hI8EH98Z782TXnoOuApQx0bPP6UXtaGjaQ+FcfpXIeYH5DkSt0fid9zwToBg9fIBeEuRWki0UCaXRIXDQxtx230igs3EA9zS7oZtzm12W6hpmn5VjuSf8dkR2y+079+t9B1w5lwi3i+GroFilL0zi0Uagt27pf6wqUmKt0TGmXGDEheUIuesu5l6bVs10QXkXE5/NueS5nyxXAeELi4boJXOIYg4Txw+Tbp3bm3nVUPuDhcQCpb3UNuzQrrWOt9ev5wtaGlojtRADOb1py9bte2XewhUa2HBCe/hbSmXdbjaD6VPGybhRQ/SzKRJ7W98eMnRgH7PBd5ImjdJ1LuGUd8uHdBJIoyOg8dH8z4wVlO955RZ8V1wAA2/rpe2ZdsdYLXhBO4ra012GDOqjP5O8TTDrvBE2zr4B1hCCiKAJ35Hv6gR/2semb7JzdvptjoAm1q1rB9Mng+TOyaNlyoRRMsT0B5/fr3dXGWzaiUJB8Qci5GxwfC7vxThOmzxG7jYC3+2kUzgklKDLMROJyFWsBB3UqllThpoBDVSnDXOJAeRf/EbOnQQzFp9DbbPzoC2Udq5RMKhD9+b78zWi50vXTm2NNtJf6sYgiuglkKBrYRZFa2PGoBEgHEI92KEPHc7Tw/psZOs35bg6pVnEjz0wTTp2uHU0DE1j/sKVsmtv8SseWWiNGzXQiT85Y4S0aE4F6cDjwns3NFoEJg8aIJqH0+xEo6lXN80Iu5auWssZ0/eLP1utc9TZJ5VNe+iXu6aOkykTR92s9OwUCLSDRYyZ3LlDWw2OEQBD0AbDTdAhJOnPzdk7/DRD5jL5lHdPzTD9M1y/N6a8X3vMc1JLmP9dzByqb+YP7SH9wwn9g5Bp366l3yZHX2ZuztH2OCtfQ1qdVJkwbphMN/2Dtk59Qud40bZqRtjia+5q+o+1duXqVaMRpxmNNkPGjR6i2mmkJJSgw5fGjsACiQVMDOqnsYu4HfD3QgdTp4624CP0E3ZG0zt09Lh5j/B8FaXFytUbZP2GnGI7Jm1mZxw0oFdM2xVI0BUaIUu0kHHa/NWOkA80dI7ZZRoBdyw333W3B/L/7jGama95lmX+fvmqDbqz+5KaWstoTOPN5B+sCzVcWKBtNcXohqal+MJraPQ9unVQgecLfYBfEW2UaKmTxmYuPzJzqgwf3E9Ns1CwqGk3GmQTI7AxrYPNeTdBh3m4cOlq3Uh84b2Zo7gyBvbrqQI3HNC4EHhoxLv2HfQTvowbQSDy/7COfIXmyVMFGoE+eDjX88ot2FjQ0m83AhdNFuEaCoQg8oGx6t2zi9YoLPJxRk5CCTrOQLLbYbdzYz8dH81jpNFyJk8cGTAnyxcWQZGwq6y+Qmd0h+cU76xudvuyEHb4m96Z9YlGhX2hHxHkJFjGkkCCjvwndn38XeE8KI1V5P8J7LhvZ9r+5PfvLTZOLHySinO27SnWBhY75s7MGbdHZMYgSJkbpE6gIfuCJoM2wcVMvkKF7/zl+q9UcDv7A+2PKD5CLthm6gZzn0ueGjWsbzTdrX7v7cUp6PAVsnGs25jj9zcpKdXlR9+/T/uopK4W3h8zEZ/nepf3ZpPDzG1vtF7v/EcAkj4yf9HnrmOMVnnHpFFhbQBO0ATJdXRqopGQUIKOjubmeSZbke3eLapHVzNB8NWEC8KO7Hl2HZJSnf4KND2iSexSCLuSTqRo4EKctZlfaSTMF3w+k8aP0DbFkkCCLtYgVBBy+GZ8J3Re3kk9KZB/svi8QbBwh23rls08r5QcorGMnTM5l0WLqYSvz1donTp1Rj5buc5vDkNv0/+PGEFXUiHnhTlPZB8fFwETN5yCjt8lYRwN2Qmb3pRJoyOem4xB0wDtYS4Q+KKMvje6z5rgJjf8l05QWv7+hw+ErVWWJre2rQSBjkatx5cR7cOtkm0oGBQct/hanAPEQDMBZs1dooPr9POUFifMYl+zNsvPhCP61NMsgFhk+McbxrmPMUt++ePHpHuXDn4mzZlz51UbdFK/Xl0NhkQLR53ctAz8iVevFt/gOD3AnRZuTJs8Nup7LtCO8F95BVko0DyP5rqnb2DSR2tteNvjpkntO3i0WNDuiumrfQfdBTRtSQQhBwkn6BIBzJt7p0+UOyeP8cvBg/PGFHvr/fmydoO/hhVrEKZLlq/ViKUvTEK0Gi6USXRoKw5ytDE0gfZGe3v6iZnyq5897rnm0H9BEeXj0msnHc3fEpHDnIzmQSoFUV4naJC+9+OyubHBOM1cwHTu3TN6oQtEkDt3bON5FhyCUadP+6eToEFhCscCbU8H//YQBDl37uJNTf/aN9ck7/gJ/dkXNpH+fbt5npU9FeZQfyTQNeTZ4Wh1cxaT2/PEo3drMCAWB4+dkICJM//t2Z9q5RVf8F/gAOeER2kQKI8ObZsjWk4NDOFBlNQNtLC+vbpo+gsRSczUYKYeqSdLlq2Rl974yPPKLQhEpKWWPI/KCSlF589fMO0u7otFID/7n/8srTymMRFi+uFvL72nz33pY4TcM//2Y8+z6OBzXnt7rubpOfHNoyNosnZDtvz3X9/0/O8tyHF86gf3e55FBxvsq2/P0eR9J//49KMyclh/1UBx5fzyN3/2y8Hr2b2j/Paf/s4vQltWJJxGx8I6dfqM+h8ICpT2g6MugeqfoYng9CYnyu38JbvbK2/OVd9ZrM1YssQ5kL1kxVo/IefN/+Ne23gzqH8v+fUvnpT//duf3nz87jc/UYEfyIQmNec+oyFTHQZ/Uyh/1nWzaJzmoxeinnn5J6N+EChxCjlAkPjmtn134zu//EovsbpaEphrpF2EgvVx1aXdQFAjVlDXkKRnNy5fuWKUgKKfsWjcEo2phlK5UuKIl4QKRrCrfbkuSxaZXWTdxi0a5eL+0tJ8bNm2Wyc9mf5uyaJMwE5GhUeDQfg6o7F6XGz3fvUJelNUogVNEmE/b+FK2bSZBOriWlW6mUSPPzJdmjdt7Hkl9gQKRpBvNbB/D9VmCYDwIDWBiCl18vYfOKqaqC9sJOcvXpLe3TuH5bSnPtqevYeiOlQeDeRsIXRQWlnE5FG6XbDd2Win1M6LBfTzgcO5mrbjxDcYcf3GdU3vYW04uc20hfGJBbSH419UWHFCoI9EbNbG6TNntdCCE3L3OJKIhpwIJJRGx/GmN99foJnzpBVs3bG31B/ZW3bKp0tWyfxFK1VDcwPf0qSM4eqzI/HUCakf7364UJatXOeaWV5SEAqfLl5lNMVsv+RaomkES4hMJxIkpHJEB58VC8DJhk1bNXLsTG51A00gnhFtJ0QWvV+B7xJo83LmW0YD+0k478eG65tr6MuVGOWfgrYngCZLhRmgjwL1Da4M3AOJQkIJOoRbIGFTmiBMDh85Lsdd0ge8ED0ab3b6O293F3YEKOZ+skKzw6MRdvgC58z7TFaszjQT33+ijR05UDLGDHEVJmUNWjpt47icExz8S40ZjgYdCrQANEW370j6Dze8lebDNyUJLSpQUjKWQKzwavGhoD0ULXAj3yVKHSlF7XE/P4v14h0afHBuUWdScjD7E4WEEnQaii6j9cviCpUmgCOcbPypk0a7mrk44xcs/kKWrIhM2BHde/mNj4zmk+l6LAht6b7pk9RUTETY3TGxRg69zS+ZlylPBj3ac7ANBbzCxe174gd88N7JpfrwPRnBvMA/66Zh4ogPdXwrXAjA7N1f/AyzG9o3pm/dqtRQvt3paogUbc8B/3JgbD743yp5/G9YO26+Re2bGGqY0ZJQgm6UMX1iVSG3JLCg8CfgYwsFYfOJ440Ze/tovyoKTDKqQcz7dKX6LUqSekLBwz/+98uyZn22qwlD1WPOgsbS4VwasACpGEN+n1Mjw2zdsWufLA1D661bJ1UauJxooTp0SkqKCqPSevj6lfgOjLlb4IHvsCHLvyJwJFA12u1wvhtUZ0F7dnLCaFFutQojgWRh5qQTzqJyRtc7tPhcW7msG8zezI05nmdlT0IFIzj6NXr4QC3jQr4UZ9xK+8GCvGvKeGNyDXbdtd3gcDHOVooP7Dt4xC/iyiBznwEpIOS6BXPIIhzJx3vu+bfNLpjnF3gA7rN46omZ+pnOtI7SIlAwIpzqJWgcfHcOzzsj2gQaqMbboEFdPYoVCNwJ+00fUqfNF4Rls6YNY37kLRjXzPgSAHBb+LnHT8mEMUODjnE4PP/qbNf3B+fJCII9CHxO7/jCWFGBZOTQ/p5XIufFVz/QjAQnpAlRacR7EofZyHi6nYwg95OUl3gfl3QjoQQdoAoT5WRg4/FA0HG+r6Q+L36fCXjDLDyiU86gAdrc7n2H1MRt3rSR32AjHElOJU/vg48/0wPTTpjYnC383oN36eFmnOTxIhpBB1QXIbEVAeHcCDRp1/wfx+gCnWVEy2ahOSuX8DOVRAax2KI4kUBqEXXuUuvU0lzOSqZvvYLECTeInTGLmZJdzv4g1YLWd+ncLqLxQWhRrGG+sQIC4RR03OVAafItjnPAQCIx8xktq6RzGthIVq/dpKWxnPD5+Kg7dWxz87sSGKGw6abs7X4WDBs+Gx0nYCIJLvHVYrWvJ5ygK08wkajmwEAfNLuXc6B5znVuaKiU8WGwyeqnGCS5d5RcIk3ANxPfC4KRxNqH7r1DUxii1RhKSrSCjr4hcMAlJzjtne9DcQI2tQ5tW93UDnyhrxCQ3I/h1Arx/Vz7+hvTllYh2+EG9eS4bWv1us16eQttRODoyQ1jFjv7msVMW0gzIcLuC1o9x8Pw4yFgeI9wIT8va8tOeen1D1RrDIRT0PEv/cn44CrxBd8aVUSwJNhkSyJgmK8Ei158bbZrgVKsrEkZIyTd4Z+mPacKzqmW6QStk/5D8JbkqByWDesEvzfBF+93jxQr6KJEhV2XDrqrHzFagl/xTjNhuL8SzYUkWOqxzVmwXA9lU9XDDfweFDW4765JeoA62kGOhGgFHXBaBI2US1s4L+oL73s8/7RWysA36rYg66TW0t/Bse1r0pPbln+yQKN6lEhCOIWjvXgFJ2XZvTl6ej9C3gm9qpC0HtwDblFWfI9c6IM55nQv4KtDc61SuYpGbGlPsLJCaE2nTheokH33g08DViv24hR0QDoPVYr3m891Vg1hIzh4KPfmKRY032D9w1ggUKhY8vasBeZn/+NufH9KLfUx89JZF66G2ah4D6qYoK37UuTeOaraXYP6adruUMKX99i996D2Db5ugoD4BkuyiTixgi4GMIkoGMl3waHsHGx2Su6gyNmxV3ME2YWdAsQLAnHsyEFaNRcTPpwFXBrEQtCBLnyzSLjTE/+cL/QLml0H855oCc7vymcQiUeIODcFhMvhY3nGpDyvGhh+QTQGt/7icyixlblpi8yZv8yvFh3gH8a3hYbuVuARYcElz/SJ27lXAki4MHBHsLnRb2jlLE7ahMaIZnrUCNWvtu7SNCSi624l/J24CTraSJI7Wg8aqnOccIXgI6WtuFVoAxuoNweP36fcE+uSfFIEChfsuB3jQzD1793NCDqjzTXwzzbAb0zKCRFoNiXnSQkEMVozJ31QBNgo6Jdqpj1enzN/w2cjFL9cn615rXv2H9FNgFqAgMYcaZGAhDvrSqfsO3BUKzTEstJwtDAemFiYoIHq2zHZ0dSozRVOTpQvTMTuZkKPHzNETVUmcVkSyzsj0KTeeHeeXuLiBiXGKefDzu2E+cBFNO9+sMjVj4mQ4xIjCgWQv8cGitDDh8RRLhY66SxENRGYhYWX/dJYWXTch0CBSBZTIHi/L1Zv1Oo1TpPRl3pGi6L8FBFyvhOLGZMSrZZ5kZt3Uue3c+khyJz9DYHujOB3MX25CByfo9tS5j25mwGtmcixmoFGcHHMjnQm7prA9EaLc/ts5iUulIfvm6LpTcGsCzaBdz9YKFk5O3Xc3GBDYQ1RCop+qpFSXdtNzihFHPR4nhkvZ1QeIT3SKEZUFaJgaUlJKEGH/wp1FQnOz3FoWtiw77Ag8H1QzJOaZW5gNqz6crOWAHfWUgtEU7M40eIG9O+pkchgkylexPpyHLSO5154S0+/OKFfufSEc8VucCkOxwJnz12s2lkg0OjSTLtYFPQhGiRBj8LLl1VjcAMtHA31wfvu0PLjoSrZIhyWLl8rcz5ZrkIzVlDlmrsT3C6wDnZTP8KXUycIO7e7LJzoqQ/zHVEi3ASbLwi5ls0bm8+eondM0K/B4P3IBeSWtJ2796uJHgzen42KZe48NugG6Vzfe2i6Js2XlIQyXXHQfzhvqQ4YOx4HuBPlwW6MGo1jnQnHLufmRMcvxeRIMSr2UaOqB0uaxKxDg7t/+iS9xIRIJYOfCMTKdPVS0+zkmD2Ybc7dmgWCaUOZITeNCiFASSUOmW/buTfgouB13AbMHUxCxo3PCmQZYFqipTw8c6qmq4QT8GGxU9kE/yFCO5AALQmMOZVo0LrczrC6ma5eMCvpszamTbv2+pdAd8J40h+hlAjaRO7mDx6+W6OmoYQc8DcULiVowRqmEnWozwmnLYCpPmXSKD1mGEm0vexVBx/ISUOTS2TwdyC0g/lW8EmNMxradLMTu52gABYZ1UfuuTNDD2JH6nsoL2C+dTVaMOkJbsIcTYmyTG7+L8Ac5Rar3xorgAUYLQiIOyaMlJ/86CE1hcIRcl4w/yaOGyr/9osndcOOBsYds52buiKJIANCqE+vLkLJKG4hiwVUqfnXn/9QepmNIBwh5wWNsbXZlP7hqUfkXqOlhwo8hAMm7k+fejjiqw4hoTQ6fBdEw0Kp1GVNl45tVZUnghQIBpidraoxy1DnnSYXOxnVUBi4NkabcObZlTWZm7fJkaOx0+iAXRnBf+L0GdfkWLTfgrPnZPCA3q7CEGFE9A1fTVHg50RQU9YJ74lpypV/P//7R/U4H/l6bp8VCsaXOZwxZqgeXie1Ilztjo9DOyP59hc/eUyrgfDd0GrdTFeuCezVPbh/jO/ACQ7urmA+ERQj+BHuV+P3eA805x8/+aC6EdBaI0lQ531wI1Dmn80cvySnNkqC9z0yRg+Rf/7Hx7UIaDRrJKF8dJgd//WX12WfEQyJKOzofMyE++82pqbjNvlA0L2c75w9d4maVE7Y0blchWNTiaTV4WMk2915ezoCHh8JWmsk8HYcA+NGLbeiBSzWOyaODFluiPfBkb5+4xbZmL3dbKSnVOjhF/JOaXxRaBgIxfT0+kZAm4U3qK+0NRocYxkr+DyCExzfI3GW0vcEYHzbgpBCOKIN8t047kgFGq+2xMZHGg6BLCfDjbAYPWKgCsNwITDG1YzrNn6l9wBzsQ0BiJvryiNs6Ru0ZaobDzV9wyZWEg0uHHApkE+3el22bNuxV6OrbAq05eZYmfHg++mVhw3rS78+3VRocytZKL9pOCRc1JXJSk0uTJlEAy0GPxK5YSWBLuZqOvyPbrlzKuxmTtWARKIe2E9k6F9MXgRMgVlE6gM0CyfFjBd18zhChz80FmZUKFi8LGQsGK4ivHatKPqIgOPiJyLERB7jCQoE/jI2BnzNJLhXqVRZz6wSiUUzjde8Q8BRw4724PNmQwD8bpwzbtokXccqmPYaCQkn6JIVupncKW7adyt/g7AjskaZI7cgh8ViiZyECkYkM6jmGWOHyj3TJrpGFtl13/twoSz8bLVfwrHFYokOK+jiCP6Q0SMGyIw7M1xva0LAzTUaH4fN8alYLJbYYAVdnMEXMWJIP7l76njX2nuXCq/IIqPVzV+4wgo7iyVGWEFXBhCx5Fzl3XeO13QJJ+To4c9bsGilNWMtlhhgBV0ZQcCBlJJ7pmX4JRUTHiIiRVrKQvMIdEmJxWIJjzIWdKUe8E1oSKDlAup775romvFNig1RWkqPW2FnsUROnASdf8LfdzduaAJjRYdoLHW+7p9xu6uwQ8CRbMwBe7diiBaLJTRxEXQc5XBmN7NoQxUcrCgg7CZnjNAyQW5nY/HTkWzMHQpxSHu0WJKOuAg67kF1lpjB4U6RPksRCDtKIHHG0C1AwRGjpSvXxaRahsVS0YiLoOMSFGdpFY5CUenVWXq8IoOwo0LHfdMn6rElJ5uzt7uel7VYLMGJi6DjTgVnHX7OI27Zulu27dznd3C8IsN5zBFD+2vZaqcWTHDC7Qo6i8USnLgIOg4N9+zaSStJ+MKi5WZ7attb39Mt0H4ph0SZHCfWr2mxlJy4CDrKr0yeMEJSUoqbr5Rv4dKYl9/4SDZmbfO7G7Wiwv0C54xAc6vgkkilnCyW8kJcCm8Ct1vhSMdU9YWyNpTYoXQ3V5xR5z+lRg0tWOl2G1OyQ5kqTPq3Zy+Qc+eKl3SidM2jM6daYWexlJC4lGnyglD7/Z9f1KvvAtXxtwSGooi/rkClrSyWWBEX09ULGsnPn360qIppNbtYSwKFEQlQVEuwkusWS3kgroIOqPj69BMPaGQRc7ZS7CpaJy2cix07apD07N4x5pVXLZaKQFxNV1+4jHjNumzJ3JRTdLFwkGsBKzKUlx48oJdMnzJOo9fk2lkslpJRZoIOiLLm5p7QxGEu8ODG8NMF5zQp9uYlHhUQLnROr19XL3Hp07OrDOzfQ7jT1Mo4iyUyylTQeeG2JC4SKSg4K+cvFuoNRt9V1GCFEWYkDZND16RRul5eguCzWCyRkxCCzmKxWEoT69m2WCxJjxV0Fosl6bGCzmKxJD1W0FkslqTHCjqLxZL0WEFnsViSHivoLBZL0mMFncViSXqsoLNYLEmPFXQWiyXJEfn/1xoLGLO0jMQAAAAASUVORK5CYII=;" parent="szmZYFNQuVA8cMRqwnFK-11" vertex="1">
          <mxGeometry x="622" y="520.5899999999999" width="122.87" height="45" as="geometry" />
        </mxCell>
        <mxCell id="szmZYFNQuVA8cMRqwnFK-22" value="Jest テストツール" style="shape=image;verticalLabelPosition=bottom;labelBackgroundColor=default;verticalAlign=top;aspect=fixed;imageAspect=0;image=data:image/png,iVBORw0KGgoAAAANSUhEUgAAAHgAAACKCAYAAABhPo7AAAAAAXNSR0IArs4c6QAAAARnQU1BAACxjwv8YQUAAAAJcEhZcwAADsMAAA7DAcdvqGQAABPVSURBVHhe7Z0HeFRVGoYPLQkEAqlASGgJJQFDFQTEAkiRKoiIShN1VxBdF8GCoqsCUoxlV1RsCyzoUsTE7uIiIhJC76AQAgQISSCEGhLKznfzz94p58zcuXMmzFzvy8PD+S9ikvnmlL+dqXDNAjMxLBXpTxODYgpscEyBDY4psMExBTY4psAGxxTY4JgCGxxTYINjCmxwTIENjimwwTEFNjimwAbHFNjgmAIbHFNgg2MKbHBMgQ2OKbDBMQU2OKbABscU2OCYAhscU2CDYwpscEyBDY4psMExBTY4psAGxxTY4JgCGxxTYINjCmxwTIENTsDd0TH/+Hw2af9EsozNC42msglxj5Olj4CbwQOjB7JKFSqRZWwGRw+hkX4CTuBalWuxrrVuIcu4tK3RltULrkeWfgJyDx4UPYhGxmVAlJyfMSDvyTp35Rxrsi6BXbl2hZ4Yj10d97DooGiy9BOwF6Hdv2s4+8+p/5Clck/MMNYgpAFZ/s2Jkly2IHcBWSodwjqyr1p9TZZ3BKzAS/L+zR7bN54slb/Wn8ieafAsWf7N3Jx32EsHXyRLZVrCdPZw7CNkeUfA+sF3RvZlVSpUIUtlRf7nNPJ/0gq+oJFKBcuvQVF3keU9AStw9UrVWfeIHmSpHLx4kO08v5Ms/+XopaNsy9ktZKncVPMmKXuvlYAVGAyK5r/Tv8hfQSP/5fP85TSyR/Qz6SWgBb4z8k4WUjGELJXlecto5L+k5fOX57uiB5Mlh4AWGOLeEdGTLBUsf1vPbSXL/8D3t/3cdrJUbq7VVQnkyCSgBQaioAdvhvgLS/OW0Mge2cszCHiBMYN5y7Q/78Np+Wk0UkF8vX9Uf7LkEfACQ1zsxY5gGdx8dhNZ3rHj3A628tRKsrwDp/xdnFP+LbVulb48g4AXGIhP03KW6dcOTWczDk0jyzvEp2ffxNcNITD8YfjFjsg4TWP2IiSKP38+vZqe6ietwHl5RsCmf9QAsuRiCIHxAiGy5Uh+aT7LPLOeLH3MPDSDRpjJr9FIH1ie957fQ5bK7eG3c9+gMjCEwEC0TPMONFrBrP3h1A9kMbbxzAa2tmgtWZ6zLG8pjewZ6MP0p2EEFs0CnKavWX7pYRZnxqYenkMjz1mW7ywwVp8+nEOiLAwjMNyMAVEDyVLBMp1RlEGWdjB7vz/1PVkqa06vUWayp2BpxhLtSI+IO3y2PAPDCAxEJ1E9PjFv9lqZfXg2jbTzBSdzBHwR3LDFUAKjVovnSyKF6MkyLZq9VlYV/lf5bzyBl8aED98nsg9ZvsFQAmOZRtWlI6cvn2a/nP6FLPfMPjyTRmJsT9fuQGCDtzyLonAyMZTAYKAgWZ4uWCIdwcz87uR3ZInB6VrrLBYFXMqjeNBwAnep1YVFV3FOmMNd0lKkN/vwLBq5Z47GvZjnHokyYbIxnMDIqfL8yrJleg1ZfMpm77dkqQRXDGYRVSLJUvn25DfcwIUtSAsiLu6IKJctG8MJDHj7MBCdZK28LvBxx8aOZY/We5Qse+a48YtFaUtfn56tBGxVpStwYm6Zkaz4wLbghL3npn3c1pd9F/axWzbd7HTaDqoQxLZ33GGZxSGsdWYKK7pcRH9TBlaMjPaZrFHVRvTEnjaZrZxmMPzefZ1+5xYNysaQMxgv+pCYu8lSwTL90+lVZNkzPXuak7hgRN2RyvIcWimUPRT7MD1Vwb+ZdZjvM6Oojrc8I3JVHuICQwoMxJUezrFpzF7e3ovZ+5f4J8li7M+WZZq3b67IW8F1g3hlsaC8lmdgWIHb1mjHbd76quBLVnqtlKwyZmRP587e4XWGs9pBtclirGblmpb9+CGyVK5afqUeeZ0sFd7+i+X5tvDbyPI9hhUY8GYK+ppWFarLNGYvTsOOVK5QmT1hM3utTIiboMxsR5B7zrmUQxZjm85u5C7PiJeX1/IM/nACA9vY9GuHZnBn79CYe1hccBxZKtiPsS87cvnaZZZ6WJ3FojSl6ITvKwx5irbF1Sk262IW9+Rc0fJrY4fNXIHBiZITyv8XotqCWZ9540Zla/D0FO8ryk3g3JJc9mVBulK8dqg4W3mR8MJij4sPrs96RPRQZlydoDr0L7zj4tWLbMmJJewNy9547NIxeqpSP6SB8vWPFB+mJyqYve80m0sWn4m/P8kW5i4kS+VWy/6KSBovehVpmf04tN1be7iyn5cHPhe48HIhe+Xgy2xx7iLlMOIKuDe9InsrHYKtq7emp56Br7Hw+EI249B0dqr0JD3VDmbvuvbrhX6tlZxLR1j7zHZufyYe1SpVY49Z9vLxcY+xqhWr0lPf4FOBEbSf8Nt4p+CAFp5v+AJ7PP4JsrSBr/PgnjFszemf6YnnYBWZ1/wDslwzbt+jwjIcLeBNtDB5EWtarSk9kY/PDllvHEllI3c/oEtc8Gr2K2z2Ie2Bf8zW3lt7eiUuiA2OpZF7eBUkngDfGd+zjGpNET6ZwaLGZj3MTJzFxtR9kCw+xVeL2YBt/aT1I73b7H02JMb1DTfYerpv7qYs1TJY2nKZsn/LRrrAOETdt+tespzBu75F9RasRWhLdrK0gO0+v5utK/qV24xlZfkNn7u8WWfy/knsn8c/IcsZ3FjzpGVft9Y+ZRStY99btg/RGwLRqlVtV7OEqgn0xJmRu0dwo18Ap+9+Uf2VrxsdFKM8O2Y5yS/MXSCsD6sbVJf92j5DCYnKRLrAbTNb2zn8VtCa8WbTt4Sux+ITi9iUA8+x81fO0xOVxKqJyg/PA+0pvbf2Isse/LuZibMtb46u9MQeBDkGbx/k5M6AjmE3sS9bfUWWPfAGxu7hryoPxo5lryWIK0I+PvaRsv0g4OLIxPpPsacbPEOWHKTuwe8encsVF+G9ZTcsF4oL7qt9P/uh9UpuTdX+i/u5Lgn4yPKC8WgfdiP7rvUPQnFBs2rN2I9tV3FdlvVnMtiGM5lk2QOBeEAcV+ICvAE+TOJ/z65WIb1IFfirAud3PJapGQnaOgKaVGvC3m76d7LsQQzZkQtXLnBbMaOqRLHFLT5lYZXD6IkY+N1vNnmLLHt4byociHiJBWSIMAO10C28O3uk3p/IUjlpOShqKRfyBGkC49DBe8dPbvA0jbTRO7IPSwpNJksFlYwIXtgiOn0+VX+SR516faP6seahSWSpfHPya6WTwfb3Zyc+pb+1B1/TEybGT+T6wL8Uua468RRpAu8859wSGV4lQnm3espgwTUGu8/volEZey/spZE999QeRiPtjKgzgkYqZy6fYXdtH2j3exmnoQ1+7A3VbyBLG3htbq51M1kqm87IaXm1Ik3gvJI8GqnEu9hzXdGsWnMa2ZN98RCNykAC3xGEIPV0CjStqj/YIPp+3ZEc2oJGKrLcLivSBL50rZhGKgg96kEUpy1yEBRhRVlEBUXRyHPCPdgObAmvHEEjFd6b1hukvUIxVdTEuBUkGPRwvOQ4jezBsmYLL6GfV3KCRp6h93sFSJzoAVcZOiI7CSFN4NjgujRSwQ8OF8dTVhf+RCN7HO+gjAuJp5EKolp6msNWF+oPF+ptKf2x0PlaiMZVG9NIDtIExn4SXjmcLJWPjn1II23AVeD18SADA5fLlpahLWlkz8fH+X6miLNXzrJPTywmSwX//xUpaXa/eV4Bghb/PvEZWdpAl+JvF34jS6VdjfY0koO8TcxCP4u74QgE9iRG/NT+icosdITXBYAlmhfCxEnXk14kRNB4SRGcxrvU7GL3+5FYZ/8VeJKehP8+Jes5suyRccu7LVIFHi1ICty38163yxh83PH7xrGvOcES8Gi9cTSyBxEwHqP3jNR0Mw7i2DzfFvFoJP4dQfCE9xxFBUN2DGHZxdn0hA/OF0N33s3tiLgxrIPH7pY7pAqMb653ZG+yVApKCxQfEi8m4r+2IECCgEKXjZ2FF4T1iujltDxbQdaH56bAh0XSA1cO7zm/m56Wgb+D+J02dhSGB5+s/1elAoPHsw35sw9dhF03dWH/yPm7U6UIyobwtfD3ohDoUxojYZ4gPdlw4OIB1nNLD2VfcwUqNvJK87jlNLZgJv3Sbq3i34pAJqrHlm5kiUmpnmJZRgvd+pq48TU9hb+SWEEYE2U7roA/jiDI7xd+d/t6gFcbT+OGML3BJ/lg7H+Dd8hpjVzYYpEyg93xTs4/2N8OvkSWfnCKRZJCS6jzhazn2ftH3yPLe1Dhsb695x6AK6Qu0VYSqyXSyDvmNntXk7gA9U1akxoi8AKnpXypOY79SuNX2cg6ziW0ekESw9trnxzxicALjs+nkT6wHH/d6ht2d8xQeqINpCX/VO/PZHkG/h3SlbadDFqY0yRVqcDktZfqwRt/nIf0JRoJe9QM6wm5oaoBexBmox5wmOq59Q526eoleuIa7I99I/ux0bFjlK/tDXDtcE3h4tzFbmchMmaoHB24rb9Thqxzzc7si5R0srxHusBI+r+YNZUsFeRLn2s4Rekq4PXh4jSMWii94DTeY0t3bp0zVoRhMcOU7FNMUAzrVLOT5YXsouSNfQH8XJyU11uE3npuixLGTaiWwJpXS2Idwzr+P099z86h7CebNhqAgE52Z+efQS/SBU5Z35Ib18WpFKdT0QHsk6R/KnlZPWDGDrK4YegH4vFjm1XS/UsZIMDywbF5ZKnkdS2gkfdI3YPTC9K44qK+CeICXv0TiPXiY9xQACcSd3biHL8UF9QJ5ndxeJP4cESqwKK486QGarVDkOTOuof2jFWqPXhg2R9VdzRZ/gd6mXiUaDxDaEGawAi9rStaR5YKAvaoqLQSJkiHHS62T+a7o7D0FOu3ra+yavBoU6MNS23yJln+iagpQNaJHEgTeIkgzDg+bgKNykAlI49MQfiOx7Zz21h3y4FKdFpFsOLTFp/5vO/HW/Zf4KdS9VSkiJAmMC+OjHeiY4cATrG8gvLlgpvQHcEJ/A6LuKJwI1KWS1oulToLfAVva3FVbK8HKQLjZMyrarhL0IDNa8xGqu35rClkOYOUIwrcZ7q4JBTifp6ywmXc2l9ADxUvPo2MkkykCLz6NL8CQ1QdKTr4zDv6vpPbgCwMuviQwHD1IRvxIfWVGDJaYgKBt3PeppE9t0j+8GspAvP2QqTaRO9GFJuPrjuGLHvgG07LflXJwCA/jKiYuxZNiPptq+/c9vT6C+hP4pUloS8JPU0ykRLoiF9bzyk8iHDcgmR+uwnAKbjthjbcXiRPQLx6VuJsqQcTX4Io153b+jjVeANc0/RyY35bjF68nsH4pE9e7LeDm70EFZLvNtOfasN+i+gXMk6BIi4YvWcUV1zch6k3Bu8KrwXOKXZuNgNIrrsDs/ylRi+TpR3s7WvardUd2rweoDAPDfGOsWcrUxu96HEmSwteC3yU000ItJZ/josbx1KbvEGWa3CLLIR9r/k8xd0KFFCnhU5+UWMZivlkfeK3IxIEdr7sC8QFO9csi3igzgjLCfh7YQsIbqVZ3fZn9kHzD4WBEn8E8XF4AB02tOeWyAJsL+9Ythlf4fUh69kDzzjFoPFNZ3V2XV0oAq4SitYQqBhqOUBB/PK6ckgGSFvi1rsFuQvc3iWNtCHaXDuEdaQn8vFa4GcOPK10rdsCFwkXfhkV7KcQD8EdVIyi8W6X5eC078JepehQC/DbF7dYrLtxTSteC/z0/snsk+Mfk1UG3pn7O2WRFdjAnctQuv03KEsullp0X3gDivXR5c/rBJGN1wK/dHAqm5vjfCuczKR1eYNqDHwgJXqHPP34HHdMqj+ZTWowmSzf47XAKBtF+agjmztsdXknh7+Bei6cJdIL0qW3cAJrrZm3tV+e4rXA6EoYvXsUWSq+uvdJNuhjwhYj6jbwBhye+kb1ZUOi775ubp3XAiNm3GVTJ7JUnoj/C5vS0Hlm+wPoD8LBcFHuv5RDkregUA7dlY1CGikXyaC4rkPYjX6RsvRaYJCc0dzphUIka2UbfinN9QINcHDDeBeAawFVmEmhSRYRmypXPjS1+OQQ1BcRKFlIEfjhvQ9xr6/3l2pGfErZ20fe8rhrAPvlgOiBrGdET8vPkeLRzT3+ghSBUc2B1J4jWu5d9iU4CaMCxFUe2RGkMpGhwkeuo64r0JEicMnVEpaU0cypQgGXpKS1SlfKZssTLMG4Xh+1W1rAZzD0jOzFhte+j3UL71auN7L7GikCA1GnHU6Pa9ut83m4Ebe3p+ensdQjqU79wCKQshxTd4wS6Bf1Agc60gTOL8lXTtM8HzIpNFkphPPFYQRhw+V5y9m8Y+8pJ3otNAxpqFR7Dqs9rFw+P/B6Ik1ggNIaZE94QFz0+uq9qt8RhA3nH5+vXNiitdkMl33jwlAsxX8UpAoMHtn7sMuPVMdtq7iuX08VBjr4llreRJ9YfFhUkmgFH5KBbj7eh1oZHekCQ4Q+W3sr91WIqFGphlKNgVM2SntQrsIDMxPdeZvObGZbzm1mP55ayb1nWQSKDibEPc7ur/MAPfnjIV1ggCKAAdv7c1s5eWDZRi1zXEhZ7PpI8RHlo3dc3QLvCgQkXmg09Q+1FIvwicAAMw2+sd6okR6QYx1VZ5QS2Df64UkrPhPYCm6jmZE9TUrMVwSuAkZZj+yuACPgc4EB9mWU4eDTWDzZQ12BVCQiTvBho4OcP7PfpIxyEdgKhEYGZ96x97nX4rsCVf+oPrwt/HZ2a63blCC/iXvKVWBbcOPdr7gm//RadrA4i50qPaWUwuCOaUS/4LMmVE1kyaHJrFX1Vubyq5PrJrBJ+SCl+czEfzEFNjimwAbHFNjgmAIbGsb+B98gCzrm23RhAAAAAElFTkSuQmCC;" parent="szmZYFNQuVA8cMRqwnFK-11" vertex="1">
          <mxGeometry x="210" y="490" width="50" height="57.5" as="geometry" />
        </mxCell>
        <mxCell id="szmZYFNQuVA8cMRqwnFK-24" value="dwai.io 図作成" style="shape=image;verticalLabelPosition=bottom;labelBackgroundColor=default;verticalAlign=top;aspect=fixed;imageAspect=0;image=data:image/png,iVBORw0KGgoAAAANSUhEUgAAACwAAAAwCAYAAABqkJjhAAAAAXNSR0IArs4c6QAAAARnQU1BAACxjwv8YQUAAAAJcEhZcwAADsMAAA7DAcdvqGQAAAK2SURBVGhD7ZlNaBNBFMfffiaVIKKHtqhoe2iRKNSaSsGLgij01IP4ASIIooLeFbwJHrwV1EOlehBPIggevFg8iAdp2oooil+0B22rBas0ts1+Ojt9YZtkNrtmOonR/cEy//cIvD+TmTezifRzPudCAyHj2DDEhkUTGxZNYJdwR64CTDwCMBcwIxhtDUBbH0i7L2CCDXOGqdn392tn1sOrRWrS2hVgLwlvZutFSG224VrObCkhteMuIRpml3Dv9qCKgKqDvuMkqJt6SSAt51Zgz4yB8WIIXGsRM+FIx7OoyuE2rKWPQXLPJYzY5LPXiOlBjMKpZJh7SchN61EFI6eaUfETbzrR/H+GXdtCVQHHRMEPt2H781NwjRxG5XjtzJoYxogffsOzb8F4OUR1PjsA8ze302fp2WWaM1/dAWsquE39KdyG5VQLJDLnwZ77RA+IAuabe+TQGAd95xmQ17Vjlh9uwzoxC5IKxuh1zPgUconMOTquBlyG1Y29oHX0gzU5TNbpY8z6WFMjYL57AGr7QVC37sMsH1yG6ewSjNEbdGRBZ9kxQN+1/FleqjaspY+A0txFNtwtsL9/wGw5zq+vkB8fBGVDJ1nPp0Eir0KFpxoiXX7ktZshufcKKC3dmCnGns7C0pOL1FwpTQcGyHLYj1ExTm4aFh+eoONKuC8/Wmd/oFkPpbUHVLKWS9HSRwPNesipVtC7z2IUjWhLQg3/+iQ9hcpHUhKogpHUJKpocG26ehAbFk0kw+7CN1TBOLkZVD7Oj0lUwdhzH1FFI1Jb8zaG3nWKdIMMZoqxvjwn/fg2qW5gxkfbdhi0LexTzp59Dfmx8kNH6EuoCIS+hNaa2LBo/hHDVd6kVoWQ2mzDbX0o6kBIbaZh+rN9x6HazrRXi9QM+8uA2Yf/ZuIuIZrYsGgazDDAb35B3bWpc7ehAAAAAElFTkSuQmCC;" parent="szmZYFNQuVA8cMRqwnFK-11" vertex="1">
          <mxGeometry x="20" y="430.00000000000006" width="44" height="48" as="geometry" />
        </mxCell>
      </root>
    </mxGraphModel>
  </diagram>
  <diagram id="HPjXM9vqT5QPLIhtHx7z" name="処理概要">
    <mxGraphModel dx="1126" dy="1020" grid="1" gridSize="10" guides="1" tooltips="1" connect="1" arrows="1" fold="1" page="1" pageScale="1" pageWidth="800" pageHeight="200" math="0" shadow="0">
      <root>
        <mxCell id="0" />
        <mxCell id="1" style="" parent="0" />
        <mxCell id="3gESz4msgAZsS9GfxSjs-1" value="Cosense" style="shape=image;verticalLabelPosition=bottom;labelBackgroundColor=default;verticalAlign=top;aspect=fixed;imageAspect=0;image=data:image/png,iVBORw0KGgoAAAANSUhEUgAAADsAAAAqCAYAAAANryONAAAAAXNSR0IArs4c6QAAAARnQU1BAACxjwv8YQUAAAAJcEhZcwAADsMAAA7DAcdvqGQAAAdOSURBVGhD7Vnbb1RFHP7t7Wx3t+XSG71sgVIqLQQNDVeDGohR33wSE6+J8q+Y+Gjiiy+YSBATfOYFDREwCvZCa1FEoBcKLe1ud9tC2909e/H7fnMWGi0mW842BPhO58ycOTNz5pvfZX6z9RQAeUbgdfJnAp6e3t5nRrKe7p6B52r8NOI52acVz5Y3LpeDymaz8lt3nySSszJxd1LrGhs3SE31Ojmwb48+rzbKQvav6zekr3dApmLT4vVCeTz6J/oh3JqbGmTv3i5paW5izarBdbLdvf1y8VKveLweEPWIx4PEF8gFwVqeReZIb75+SLa2tfLtqsBVm+0bGJRL3b0SCPiQ/OL3Ifcj9wdQZu4XC8nnlH84e15u3Bx2epcfrpHtH7iiEg1YlvhJNBAA4aAhSpKo92kZ9Rbf+XUhzv70s9wcGnFGKS9cUeOx8Qk58+M5ydm2+CBVLy6fz6sq7IN0mxo2SKQyIuFQhdbncjkk0fz+wrycPn1Gjn76oWzdstkZsTx4bLKJ5Iz09PXL2Ngd2KlX1RWmKl6/T8IVIWlt3SQhkFTgS8ZqCQ/KWqF5PJ6Uuroa6Whvc967j8dS43g8IaO3xmRkZAwjgajXB8l5VG2rKiuls/MFCVUE1TFpAim6K3MZR6UFoLZmvWpG/+AfpqIMWDHZqVhcJqemZHZ2DvbpE4tOBznV1u/3SlvrRqPGWARuP0sTPbNeHp8hzWckL/pasOeR0dvmIy5jRWSnpuISB1nqa3JmFhOFfXKbAREfpNocjYK4pYNTnkUyuGl/L5+p6/hDT0iYjZyE8kJqXuLTCTZ1FSWTnZ29J7HpaZ0YCdDJBGCffk2QLiRcYQVVgiTPNhaILyymsEgxmZiYgvcd1jw5MyPZfB5tSJlwFgGg5sxAa9xESWTzmFgsHof5waVggsyzdlYJFROlZllGPfmeey09dKiiQknnCjnUBWQxk5IEpEfiqVQK7YuE2c84L0qX33QLJZGlQ0qn0zopTSCWLeRB0NiiDzZIm7VAjAhHwrJpU4tuPVvbNkvXrp1SV1tt9mG2hSZQqkPDo466q2wfjJ3GIkwnlldnLgIDknvz806NARd4dHRM7k5OOTUPURJZEjVWyDsuFENQWWd2SPC2GJHtrKAlDfV12rYILsiOzg6pBWFV8SX1yZmkDs1xdSzmSKkUv/lfcOFPfPe9HPv6W93+CBIdvHJVvvzqmJy/8CsOI9jMl6AksvOLi7g7K88LhepqTBwFln3Yeoz9FaC2IeN5l0FLtElCkaD20+ADdjp+Z1KJUUvMIuCO8RYfQZZ78pF33pbb4+Ny/MQpJUyix0+eks3QprfeOKx+ZClKIqurjtUza24kW1kZ1mdPwdgwK2OxpG4/j4Jt52RNVZUZh32cEefu3eeoehXr9CPLgAu1fds2OfrJB0r4s8+/kGPfnFSiH713RNasqXJaPkRJZCtDEX5FV74o2Qjsks6n4IEjYQWQyaTl7+vLx7u0tTScE0cojgWzR39R70x+xS/gaIToK8Ruj0RH+1YlbFl+2Y4g5uP3312WKFFSuMj9NRaPYT6YTtHmMOFsxpZrN24+PNnAAdH5bN4YlS0IF5eqMx0Ot688iAwND+shPwPbsrO2jrdje4e+88D+C7mC1NfVQmVrTef/AU1At75/qe5SlBwbD43cksXFBUwGBOiQ1MZIHk4jlpBEYgZEvXqi8Xr9sm5tFex6vUTCYd1rCxAjpZsBOYaZOSWaBWlbwuGQtOF8q9sNZhWGVKmWbqEkNSbq66rVjArOhAqQgl4o19bWSCsmx7g4DWlToimodNpOIypaVEI59OPq5hGMMDGo0DLGsXAsZM7BeNEJuYmSyVZGKmVjtJnai+ngRt3j7JlwsxD4c8vZhtNLS7RRNtTXSwBBRC7HSEkVX5G185JFXQ5SzeUN8aDuzxgIzVqam1Ub3ETJZAk6gAhIY4Z4olTNzyxFiWvM49RRJVlXTKzP2BmYw6hKmiQZcmaRQkFDNtrUDG+N8V3GisgSm+B8fHBEuSwIqMBUtCgbUReM6DXI52Koujv50NDoA4KUKu2W6s1zb7mIEismS3S0t0sFgodYDAcDMOOEVSVVqpAknRGTvkVQspCSwavXZH5+AWpsa1xtI7exYM1NjbKxJVo2ooQrP8swRv3lYjc871qpXr8OtheUIM6lfiRKbQ6nl5m5ORM0UJ3RhxKmHdMh8Qe6w4cOIoZuMAOWCa6QJf68dk3OXbgofnhg/oTKUA8lLRu/RLWGGqNEabOQo9Shyvv37ZYXd3SyUVnxWGq8FAzdXsakGSQwAM8jz+ehqnBCttonVDZv9lNKm+1I9NVXDqwKUcI1ssRLO3fI7q5daocZkOFey9zGKUhtM53RAILREp8Pv3ZQw73VgmtqvBT898flvt9x+E5ChTG86rFRYxYbYZv890cUTmk1URayBNW05/KAemr+xEKSdbUmzt2/p8tptbooG9knEa7a7JOO52SfToj8A0ryjeyV27vrAAAAAElFTkSuQmCC;" vertex="1" parent="1">
          <mxGeometry x="540" y="480" width="59" height="42" as="geometry" />
        </mxCell>
        <mxCell id="fFXZfUQmoID53mIOKjFg-1" value="ルールを記載（外部サイト）" style="shape=callout;whiteSpace=wrap;html=1;perimeter=calloutPerimeter;position2=0.32;" vertex="1" parent="1">
          <mxGeometry x="530" y="410" width="190" height="80" as="geometry" />
        </mxCell>
        <mxCell id="3abQlPlt1evsIBsOfNHi-1" value="Google Drive" style="dashed=0;outlineConnect=0;html=1;align=center;labelPosition=center;verticalLabelPosition=bottom;verticalAlign=top;shape=mxgraph.webicons.google_drive;gradientColor=#DFDEDE" vertex="1" parent="1">
          <mxGeometry x="290" y="532" width="50" height="50" as="geometry" />
        </mxCell>
        <mxCell id="3abQlPlt1evsIBsOfNHi-2" value="GCP" style="shape=image;verticalLabelPosition=bottom;labelBackgroundColor=default;verticalAlign=top;aspect=fixed;imageAspect=0;image=data:image/png,iVBORw0KGgoAAAANSUhEUgAAADoAAAAxCAYAAACLfLrrAAAAAXNSR0IArs4c6QAAAARnQU1BAACxjwv8YQUAAAAJcEhZcwAADsMAAA7DAcdvqGQAAAXkSURBVGhD7Zh5bBRVHMe/szPTPdqFFmnowR1aAQuFFiJEiIpBAyEeeHIFjZIiYPmDEEkkVhI8QYLEEqMoEIlIApgY4kErFeQwEkSbKota2lJaaaEH3e52r5nnm/URju4cO7M1UvpJ2r7fr+3O+87vze9933CEgtsAG/vZ6+kT2tu4bYT2eDMiwSBCJ08g4qlC5OwZSM0XIbdcBkQBfNYQ8BmZ4AcPhf2e+yDkjmH/lXh6TKjc2oKuL/ag68B+EG8Hy2rDDxsBx4Nz4Jg5G7YBd7BsYki4UNLpRWfpuwgc+haQJJaNE84G19OL4Fq8BJyYxJLWSKhQqb4OV9YUQ2r6m2WswWdmw71qLcQJhSxjnoQJDR4/DO+bJSBdfpZJDB1iKn5d/iHmzhnOMuZISNcNlH+NjldX94jIdYXvobQyHUc8EZY1h+WKSudr0Va0ECQcYpnE0Cm4UTLpfTS4hkZjkQc2LXRibLa52lgSSoIBtC1dFH02DSGISMovgDAmD8Tvg1RTjUhdDe3QdLu5Dr+QjJLCLahPHsky/+J2cPjgeScy+nMsYxxLQjteX4tgxUEWqSOOnwjnE/ORVHg3OLuDZa8R/q0S3o3r6Q2rRYB3Yl3BZtS4c9lvb2RqDo/1T3b/DD1MC1Um177yBRap43x8HlKKVtJuoLPkIhH4d+/A6pop8AgjWDI2u5a5kJkaX1VNC/W+/RoCZV9Fx7aUMGypIfBpQXDuMF3S9IGSU2CftRT2Gcuif2OUH/+SULI3gIjMEjGYO1nE8pnx7a+mhBKvFy3PzII4qgnOaY3Uxag3Ii55NLis52DLXkI3RjfLalNWFcFbXwZZ1B2XncPeYhfsIksYwFQLky/sQ//iOiQ/XKspUoH4PJD/fBmRE+NAWstYVpuZeQIKhtNVoYI/SLD7RHxdPm6hcsNHII3UmgkXWcYgwQZIp2dD/mMVS2izaJp2uT49GsauY2EW6ROXUPnCVsie+J65m5Hrt0A+u4JF6owbysPt1G442w+HsLXcWGUNCyXtx+gEafdMAHLTXlphbT+sSMwbrD+9fT+FUfG7vmsyKJTQShaxsUXEgeAnHQHsmSyhTrrb2PS2fR+CrNNSDX2S3PAxbSpnWWSBqMjD4FyxzcDNpBj0BRfbCQ6c1n5e9bcXuQuRo9SKhW+0aTcgDgCfsxFInQ7OQb1p+BLk2ncgN26jZpgZ/aR08AWHotuNUZSJNV0h8DRIKC0LodWnPtVUF4c9L7kgqDRrXaGk/SikU/ezKAZCfwhTKulSzGKJa5DOSkgnp0b3T76wgoo0/6rEGyBYvj2AhjZ1J1H6rBOjs2IvUt2lSzqr2Cg2tpwNMUUqcCnjwY/dblmkgmLoX3nUzqLYnGtWvwn6z6hPQyitpo26Hi24QU9ZFnmVOzNtyNDwuNVWhBIvXZZqCP3Y4L9jRLr6lGssVZQT2CAGsuJHdfp6gmnxql+P0/AXukI590Q2ikGoGaTlGxb0PG2062otT2Vpq6EvtJ+GUIp8fgsb9Txv0BONpK4TuRlWhKY9QL+pnyRIazmkqgW0unGa/Di41EGw5vMAfq5Rf08sUCX5w9Tnaeg8Kp8popv/JyzqToBLxkrvvXS7zMf4gblIsmkfin30mDXA/xiL1FGqV3VBRlW9pFlJhUcKRRQ/pH5dQ0JJoA7ScWrbSPer+eBEUdsUVEvxdeB+1TvZyDo22oQ+W+Gi3li9G+kuXQXOMYzuh/NYdA2zIhPN7AmCpkgFQ0IV+NxN1Onksej/I1J5z1s0Q//9kWGhUeNe8F1UbBd9Jq2I5KKnTeuMG8Jj4wJn9B2SHsaFKkTFlmOH40VLlbRqMRRjMCtfwIb5Dtg1/Mz1mHoLqPBD4yls/mUnznsbWSY+zDQjReCMuwQsni4iOy2+GpkWqhCRJeyvPghP2zk0+prp1yU0+S/T0772XqAsXXf1Dhapo5wtFW+bQ43AqEE2TB7JIytOgVexJPRWwtztuQXpE9rb6BPa2+gT2tu4TYQC/wARXiXhMvyrqwAAAABJRU5ErkJggg==;" vertex="1" parent="1">
          <mxGeometry x="230" y="403" width="58" height="49" as="geometry" />
        </mxCell>
        <mxCell id="3abQlPlt1evsIBsOfNHi-3" value="Sread sheet" style="shape=image;verticalLabelPosition=bottom;labelBackgroundColor=default;verticalAlign=top;aspect=fixed;imageAspect=0;image=data:image/png,iVBORw0KGgoAAAANSUhEUgAAADAAAAAwCAYAAABXAvmHAAAAAXNSR0IArs4c6QAAAARnQU1BAACxjwv8YQUAAAAJcEhZcwAADsMAAA7DAcdvqGQAAAIgSURBVGhDY/z5++9/hiEMmKD0kAWjHhhoMOqBgQZD3gNkFaP/gbD++iKGWQ+2Mrz/9QUqShrQ+SrAcDZqGZRHPiArBhY92sPQeWsl2Y4HgStPbjAYLYuC8sgHZHng9PsbUBZl4OqjaxR7giwP/PtPvcob5Am9peFQHulgUGTim49vku2JQVMKkeuJQeMBECDHE4PKAyBAqicGzgMiPAwMYnxY8c2fzxkCthVDFeIHA+cBYaAH8GBpKQWoQvxg0CUhUsGoBwYakNWYy7owiWHuwx1QHgMDDwsnQ7FqMJRHHui9vZbhy5/vUB4DQ6qCJ8MU/VwoDzegigckOIQYnntT1rKU3BrJ8OLHeyiPgSFF3pNhqgGNPJB9YTLDnIfboTyg5RzCDM+8lzIcf3udofLKPKgoAqyzrAM3wYOPN0NFEKBdJ4nBUliTQXprNMOzH2+hosTHAFl5AOQYZADjv/n1keHgm8sY+Oe/32CMTe7tr09gvf+AEBkQ214cmZkYVxIChebljw+goghgJawFpo+9vQamkYEuvwKDMBvf4EhCIIc4iOphYDYmFjDGJgfSAwLkJqHRTAwCo5mYAjCaiUFgyGVi9KYELQCxTYkhnwdGPTDQYNQDAw3I8gATIyOURTvAzEic08jygDK3FJRFO6DGKwNl4QdkeSBVwYvBXFADyqM+sBPWBdcDxACyKrLBBEZmJh5MYNQDAw1GPTCwgIEBAAYFTlrBaGNdAAAAAElFTkSuQmCC;" vertex="1" parent="1">
          <mxGeometry x="376" y="541" width="48" height="48" as="geometry" />
        </mxCell>
        <mxCell id="3abQlPlt1evsIBsOfNHi-4" value="データを管理" style="shape=callout;whiteSpace=wrap;html=1;perimeter=calloutPerimeter;position2=0.32;direction=west;" vertex="1" parent="1">
          <mxGeometry x="270" y="620" width="110" height="80" as="geometry" />
        </mxCell>
        <mxCell id="3abQlPlt1evsIBsOfNHi-5" value="トークン発行&lt;div&gt;アクセス可能ドメイン制御&lt;/div&gt;" style="shape=callout;whiteSpace=wrap;html=1;perimeter=calloutPerimeter;position2=0.44;direction=west;" vertex="1" parent="1">
          <mxGeometry x="150" y="450" width="160" height="82" as="geometry" />
        </mxCell>
        <mxCell id="FE-DTu5zrDRGLD5Htq22-1" value="website" style="sketch=0;html=1;aspect=fixed;strokeColor=none;shadow=0;fillColor=#3B8DF1;verticalAlign=top;labelPosition=center;verticalLabelPosition=bottom;shape=mxgraph.gcp2.website" vertex="1" parent="1">
          <mxGeometry x="130" y="120" width="53.61" height="52" as="geometry" />
        </mxCell>
        <mxCell id="FE-DTu5zrDRGLD5Htq22-4" style="edgeStyle=orthogonalEdgeStyle;rounded=0;orthogonalLoop=1;jettySize=auto;html=1;" edge="1" parent="1" source="FE-DTu5zrDRGLD5Htq22-3" target="3abQlPlt1evsIBsOfNHi-3">
          <mxGeometry relative="1" as="geometry" />
        </mxCell>
        <mxCell id="FE-DTu5zrDRGLD5Htq22-3" value="魔法カード表示" style="rounded=0;whiteSpace=wrap;html=1;" vertex="1" parent="1">
          <mxGeometry x="300" y="200" width="120" height="60" as="geometry" />
        </mxCell>
        <mxCell id="FE-DTu5zrDRGLD5Htq22-9" value="" style="sketch=0;points=[[0.5,0,0],[1,0.5,0],[0.5,1,0],[0,0.5,0],[0.145,0.145,0],[0.8555,0.145,0],[0.855,0.8555,0],[0.145,0.855,0]];verticalLabelPosition=bottom;html=1;verticalAlign=top;aspect=fixed;align=center;pointerEvents=1;shape=mxgraph.cisco19.lock;fillColor=#005073;strokeColor=none;" vertex="1" parent="1">
          <mxGeometry x="335" y="300" width="50" height="50" as="geometry" />
        </mxCell>
        <mxCell id="FE-DTu5zrDRGLD5Htq22-10" value="GCPで発行したトークンを使ってスプレッドシートのデータを取得" style="shape=callout;whiteSpace=wrap;html=1;perimeter=calloutPerimeter;position2=0.44;direction=north;" vertex="1" parent="1">
          <mxGeometry x="150" y="274.5" width="180" height="101" as="geometry" />
        </mxCell>
        <mxCell id="FE-DTu5zrDRGLD5Htq22-11" value="Local Storage" style="strokeWidth=2;html=1;shape=mxgraph.flowchart.database;whiteSpace=wrap;" vertex="1" parent="1">
          <mxGeometry x="515" y="60" width="120" height="50" as="geometry" />
        </mxCell>
        <mxCell id="FE-DTu5zrDRGLD5Htq22-13" style="edgeStyle=orthogonalEdgeStyle;rounded=0;orthogonalLoop=1;jettySize=auto;html=1;" edge="1" parent="1" source="FE-DTu5zrDRGLD5Htq22-12" target="FE-DTu5zrDRGLD5Htq22-11">
          <mxGeometry relative="1" as="geometry" />
        </mxCell>
        <mxCell id="FE-DTu5zrDRGLD5Htq22-12" value="&lt;div&gt;キャラクターデータ作成&lt;/div&gt;魔法カード選択" style="rounded=0;whiteSpace=wrap;html=1;" vertex="1" parent="1">
          <mxGeometry x="490" y="200" width="170" height="60" as="geometry" />
        </mxCell>
        <mxCell id="FE-DTu5zrDRGLD5Htq22-14" value="ブラウザのローカルストレージに&lt;div&gt;キャラクターデータを自動保存&lt;/div&gt;" style="shape=callout;whiteSpace=wrap;html=1;perimeter=calloutPerimeter;position2=0.32;" vertex="1" parent="1">
          <mxGeometry x="580" y="-20" width="190" height="80" as="geometry" />
        </mxCell>
        <mxCell id="FE-DTu5zrDRGLD5Htq22-15" value="ユドナリウム用ZIP作成&lt;div&gt;&lt;/div&gt;" style="rounded=0;whiteSpace=wrap;html=1;" vertex="1" parent="1">
          <mxGeometry x="740" y="200" width="170" height="60" as="geometry" />
        </mxCell>
        <mxCell id="FE-DTu5zrDRGLD5Htq22-16" value="魔法カードを画像として保存し&lt;div&gt;ZIPにまとめる&lt;/div&gt;" style="shape=callout;whiteSpace=wrap;html=1;perimeter=calloutPerimeter;position2=0.32;" vertex="1" parent="1">
          <mxGeometry x="740" y="110" width="190" height="80" as="geometry" />
        </mxCell>
        <mxCell id="7OQiE5cQJ0veY1LdrL_h-3" style="edgeStyle=orthogonalEdgeStyle;rounded=0;orthogonalLoop=1;jettySize=auto;html=1;" edge="1" parent="1" source="FE-DTu5zrDRGLD5Htq22-17" target="7OQiE5cQJ0veY1LdrL_h-1">
          <mxGeometry relative="1" as="geometry" />
        </mxCell>
        <mxCell id="mgLfZYP_qs_p1kkLk9ck-8" style="edgeStyle=orthogonalEdgeStyle;rounded=0;orthogonalLoop=1;jettySize=auto;html=1;" edge="1" parent="1" source="FE-DTu5zrDRGLD5Htq22-17" target="mgLfZYP_qs_p1kkLk9ck-7">
          <mxGeometry relative="1" as="geometry" />
        </mxCell>
        <mxCell id="FE-DTu5zrDRGLD5Htq22-17" value="キャラクターデータ保存&lt;div&gt;&lt;/div&gt;" style="rounded=0;whiteSpace=wrap;html=1;" vertex="1" parent="1">
          <mxGeometry x="1000" y="200" width="170" height="60" as="geometry" />
        </mxCell>
        <mxCell id="7OQiE5cQJ0veY1LdrL_h-1" value="API" style="image;aspect=fixed;html=1;points=[];align=center;fontSize=12;image=img/lib/azure2/compute/Function_Apps.svg;" vertex="1" parent="1">
          <mxGeometry x="1051" y="390" width="68" height="60" as="geometry" />
        </mxCell>
        <mxCell id="7OQiE5cQJ0veY1LdrL_h-4" value="AzureStorage BlobContainerにアクセスするためのSASトークンを返却" style="shape=callout;whiteSpace=wrap;html=1;perimeter=calloutPerimeter;position2=0.32;direction=west;" vertex="1" parent="1">
          <mxGeometry x="890" y="461" width="220" height="99" as="geometry" />
        </mxCell>
        <mxCell id="mgLfZYP_qs_p1kkLk9ck-1" value="Storage Account Blob - zip / json / img" style="image;aspect=fixed;html=1;points=[];align=center;fontSize=12;image=img/lib/azure2/storage/Storage_Accounts.svg;" vertex="1" parent="1">
          <mxGeometry x="1210" y="401.5" width="65" height="52" as="geometry" />
        </mxCell>
        <mxCell id="mgLfZYP_qs_p1kkLk9ck-2" style="edgeStyle=orthogonalEdgeStyle;rounded=0;orthogonalLoop=1;jettySize=auto;html=1;entryX=0.492;entryY=0.029;entryDx=0;entryDy=0;entryPerimeter=0;" edge="1" parent="1" source="FE-DTu5zrDRGLD5Htq22-17" target="mgLfZYP_qs_p1kkLk9ck-1">
          <mxGeometry relative="1" as="geometry" />
        </mxCell>
        <mxCell id="mgLfZYP_qs_p1kkLk9ck-3" value="SASトークンを使って各データをアップロード" style="shape=callout;whiteSpace=wrap;html=1;perimeter=calloutPerimeter;position2=0.5;direction=west;" vertex="1" parent="1">
          <mxGeometry x="1140" y="470" width="270" height="70" as="geometry" />
        </mxCell>
        <mxCell id="mgLfZYP_qs_p1kkLk9ck-4" value="キャラクターデータ" style="shape=callout;whiteSpace=wrap;html=1;perimeter=calloutPerimeter;position2=0.5;direction=west;" vertex="1" parent="1">
          <mxGeometry x="1140" y="540" width="130" height="70" as="geometry" />
        </mxCell>
        <mxCell id="mgLfZYP_qs_p1kkLk9ck-5" value="ユドナリウムZIP" style="shape=callout;whiteSpace=wrap;html=1;perimeter=calloutPerimeter;position2=0.5;direction=west;" vertex="1" parent="1">
          <mxGeometry x="1260" y="540" width="130" height="70" as="geometry" />
        </mxCell>
        <mxCell id="mgLfZYP_qs_p1kkLk9ck-6" value="キャラクター画像" style="shape=callout;whiteSpace=wrap;html=1;perimeter=calloutPerimeter;position2=0.85;direction=west;" vertex="1" parent="1">
          <mxGeometry x="1370" y="539" width="130" height="71" as="geometry" />
        </mxCell>
        <mxCell id="mgLfZYP_qs_p1kkLk9ck-7" value="API" style="image;aspect=fixed;html=1;points=[];align=center;fontSize=12;image=img/lib/azure2/compute/Function_Apps.svg;" vertex="1" parent="1">
          <mxGeometry x="1400" y="390" width="68" height="60" as="geometry" />
        </mxCell>
        <mxCell id="mgLfZYP_qs_p1kkLk9ck-9" value="履歴を保存" style="shape=callout;whiteSpace=wrap;html=1;perimeter=calloutPerimeter;position2=1;direction=south;" vertex="1" parent="1">
          <mxGeometry x="1480" y="390" width="102.5" height="35" as="geometry" />
        </mxCell>
        <mxCell id="Ti9mfzKvAifv-pc_R8bE-1" value="SQL Server" style="verticalLabelPosition=bottom;html=1;verticalAlign=top;align=center;strokeColor=none;fillColor=#00BEF2;shape=mxgraph.azure.sql_database_sql_azure;" vertex="1" parent="1">
          <mxGeometry x="1452.5" y="490" width="47.5" height="50" as="geometry" />
        </mxCell>
        <mxCell id="Ti9mfzKvAifv-pc_R8bE-2" style="edgeStyle=orthogonalEdgeStyle;rounded=0;orthogonalLoop=1;jettySize=auto;html=1;entryX=0.35;entryY=0;entryDx=0;entryDy=0;entryPerimeter=0;" edge="1" parent="1" source="mgLfZYP_qs_p1kkLk9ck-7" target="Ti9mfzKvAifv-pc_R8bE-1">
          <mxGeometry relative="1" as="geometry" />
        </mxCell>
        <mxCell id="Ti9mfzKvAifv-pc_R8bE-7" style="edgeStyle=orthogonalEdgeStyle;rounded=0;orthogonalLoop=1;jettySize=auto;html=1;" edge="1" parent="1" source="Ti9mfzKvAifv-pc_R8bE-3" target="Ti9mfzKvAifv-pc_R8bE-4">
          <mxGeometry relative="1" as="geometry" />
        </mxCell>
        <mxCell id="Ti9mfzKvAifv-pc_R8bE-3" value="チュートリアル&lt;div&gt;&lt;/div&gt;" style="rounded=0;whiteSpace=wrap;html=1;" vertex="1" parent="1">
          <mxGeometry x="1610" y="200" width="140" height="60" as="geometry" />
        </mxCell>
        <mxCell id="SMedUY_gp81kpBCL_W5h-6" style="edgeStyle=orthogonalEdgeStyle;rounded=0;orthogonalLoop=1;jettySize=auto;html=1;entryX=0;entryY=0.5;entryDx=0;entryDy=0;" edge="1" parent="1" source="Ti9mfzKvAifv-pc_R8bE-4" target="Ti9mfzKvAifv-pc_R8bE-9">
          <mxGeometry relative="1" as="geometry" />
        </mxCell>
        <mxCell id="Ti9mfzKvAifv-pc_R8bE-4" value="ユドナリウム&lt;div&gt;&lt;/div&gt;" style="rounded=0;whiteSpace=wrap;html=1;" vertex="1" parent="1">
          <mxGeometry x="1610" y="50" width="140" height="60" as="geometry" />
        </mxCell>
        <mxCell id="Ti9mfzKvAifv-pc_R8bE-6" value="iframeで表示" style="shape=callout;whiteSpace=wrap;html=1;perimeter=calloutPerimeter;position2=0.32;" vertex="1" parent="1">
          <mxGeometry x="1680" y="-10" width="160" height="60" as="geometry" />
        </mxCell>
        <mxCell id="Ti9mfzKvAifv-pc_R8bE-8" value="postMessageでコマンドを通信" style="shape=callout;whiteSpace=wrap;html=1;perimeter=calloutPerimeter;position2=0.5;direction=south;" vertex="1" parent="1">
          <mxGeometry x="1680" y="120" width="220" height="60" as="geometry" />
        </mxCell>
        <mxCell id="SMedUY_gp81kpBCL_W5h-2" style="edgeStyle=orthogonalEdgeStyle;rounded=0;orthogonalLoop=1;jettySize=auto;html=1;" edge="1" parent="1" source="Ti9mfzKvAifv-pc_R8bE-9" target="SMedUY_gp81kpBCL_W5h-1">
          <mxGeometry relative="1" as="geometry" />
        </mxCell>
        <mxCell id="Ti9mfzKvAifv-pc_R8bE-9" value="ユドナリウムにキャラクターのZIPを読み込み&lt;div&gt;&lt;/div&gt;" style="rounded=0;whiteSpace=wrap;html=1;" vertex="1" parent="1">
          <mxGeometry x="1950" y="50" width="310" height="60" as="geometry" />
        </mxCell>
        <mxCell id="Ti9mfzKvAifv-pc_R8bE-10" value="Storage Account Blob - zip" style="image;aspect=fixed;html=1;points=[];align=center;fontSize=12;image=img/lib/azure2/storage/Storage_Accounts.svg;" vertex="1" parent="1">
          <mxGeometry x="2072.5" y="510" width="65" height="52" as="geometry" />
        </mxCell>
        <mxCell id="SMedUY_gp81kpBCL_W5h-3" style="edgeStyle=orthogonalEdgeStyle;rounded=0;orthogonalLoop=1;jettySize=auto;html=1;" edge="1" parent="1" source="SMedUY_gp81kpBCL_W5h-1" target="Ti9mfzKvAifv-pc_R8bE-10">
          <mxGeometry relative="1" as="geometry" />
        </mxCell>
        <mxCell id="SMedUY_gp81kpBCL_W5h-1" value="CDN" style="image;aspect=fixed;html=1;points=[];align=center;fontSize=12;image=img/lib/azure2/networking/Front_Doors.svg;" vertex="1" parent="1">
          <mxGeometry x="2071" y="330" width="68" height="60" as="geometry" />
        </mxCell>
        <mxCell id="SMedUY_gp81kpBCL_W5h-4" value="CORS対応のため&lt;div&gt;レスポンスヘッダを付与&lt;/div&gt;" style="shape=callout;whiteSpace=wrap;html=1;perimeter=calloutPerimeter;position2=0.19;direction=west;" vertex="1" parent="1">
          <mxGeometry x="1920" y="390" width="152.5" height="71" as="geometry" />
        </mxCell>
        <mxCell id="SMedUY_gp81kpBCL_W5h-7" value="ロードコマンドの場合" style="shape=callout;whiteSpace=wrap;html=1;perimeter=calloutPerimeter;position2=0.93;direction=west;" vertex="1" parent="1">
          <mxGeometry x="1910" y="90" width="150" height="70" as="geometry" />
        </mxCell>
        <mxCell id="SMedUY_gp81kpBCL_W5h-9" value="ユドナリウムZIP" style="shape=callout;whiteSpace=wrap;html=1;perimeter=calloutPerimeter;position2=0.5;direction=west;" vertex="1" parent="1">
          <mxGeometry x="2000" y="589" width="130" height="70" as="geometry" />
        </mxCell>
        <mxCell id="FE-DTu5zrDRGLD5Htq22-5" value="枠" parent="0" />
        <mxCell id="FE-DTu5zrDRGLD5Htq22-6" value="" style="rounded=0;whiteSpace=wrap;html=1;fillColor=none;" vertex="1" parent="FE-DTu5zrDRGLD5Htq22-5">
          <mxGeometry x="110" y="-60" width="2180" height="350" as="geometry" />
        </mxCell>
        <mxCell id="FE-DTu5zrDRGLD5Htq22-8" value="" style="rounded=0;whiteSpace=wrap;html=1;fillColor=none;" vertex="1" parent="FE-DTu5zrDRGLD5Htq22-5">
          <mxGeometry x="160" y="400" width="360" height="230" as="geometry" />
        </mxCell>
        <mxCell id="SMedUY_gp81kpBCL_W5h-8" value="" style="rounded=0;whiteSpace=wrap;html=1;fillColor=none;" vertex="1" parent="FE-DTu5zrDRGLD5Htq22-5">
          <mxGeometry x="840" y="380" width="780" height="250" as="geometry" />
        </mxCell>
        <mxCell id="SMedUY_gp81kpBCL_W5h-10" value="" style="rounded=0;whiteSpace=wrap;html=1;fillColor=none;" vertex="1" parent="FE-DTu5zrDRGLD5Htq22-5">
          <mxGeometry x="1910" y="310" width="350" height="370" as="geometry" />
        </mxCell>
      </root>
    </mxGraphModel>
  </diagram>
</mxfile>
